Mekorot-Vilna-Italic.ufo
<glyph name="numbersign" format="2">
  <advance width="500"/>
  <unicode hex="0023"/>
  <outline>
    <contour>
      <point x="542.83" y="283" type="line"/>
      <point x="523.27" y="210" type="line"/>
      <point x="425.27" y="210" type="line"/>
      <point x="340" y="0" type="line"/>
      <point x="262" y="0" type="line"/>
      <point x="347.27" y="210" type="line"/>
      <point x="234.27" y="210" type="line"/>
      <point x="149" y="0" type="line"/>
      <point x="71" y="0" type="line"/>
      <point x="156.27" y="210" type="line"/>
      <point x="60.2695" y="210" type="line"/>
      <point x="79.8301" y="283" type="line"/>
      <point x="186.83" y="283" type="line"/>
      <point x="240.734" y="417" type="line"/>
      <point x="144.734" y="417" type="line"/>
      <point x="164.295" y="490" type="line"/>
      <point x="270.295" y="490" type="line"/>
      <point x="356.564" y="700" type="line"/>
      <point x="433.564" y="700" type="line"/>
      <point x="348.295" y="490" type="line"/>
      <point x="461.295" y="490" type="line"/>
      <point x="547.564" y="700" type="line"/>
      <point x="624.564" y="700" type="line"/>
      <point x="539.295" y="490" type="line"/>
      <point x="627.295" y="490" type="line"/>
      <point x="607.734" y="417" type="line"/>
      <point x="509.734" y="417" type="line"/>
      <point x="455.83" y="283" type="line"/>
    </contour>
    <contour>
      <point x="431.734" y="417" type="line"/>
      <point x="318.734" y="417" type="line"/>
      <point x="264.83" y="283" type="line"/>
      <point x="377.83" y="283" type="line"/>
    </contour>
  </outline>
</glyph>
<glyph name="dollar" format="2">
  <advance width="500"/>
  <unicode hex="0024"/>
  <outline>
    <contour>
      <point x="556.884" y="481" type="line"/>
      <point x="535.884" y="481" type="line"/>
      <point x="533.679" y="581"/>
      <point x="507.468" y="625"/>
      <point x="440.756" y="641" type="curve"/>
      <point x="383.146" y="426" type="line"/>
      <point x="466.749" y="376"/>
      <point x="491.39" y="356"/>
      <point x="515.672" y="316" type="curve" smooth="yes"/>
      <point x="533.901" y="287"/>
      <point x="537.38" y="244"/>
      <point x="524.518" y="196" type="curve" smooth="yes"/>
      <point x="509.513" y="140"/>
      <point x="480.455" y="95"/>
      <point x="438.881" y="63" type="curve" smooth="yes"/>
      <point x="398.574" y="32"/>
      <point x="355.02" y="15"/>
      <point x="269" y="0" type="curve"/>
      <point x="242.473" y="-99" type="line"/>
      <point x="187.473" y="-99" type="line"/>
      <point x="214" y="0" type="line"/>
      <point x="152.804" y="3"/>
      <point x="130.411" y="9"/>
      <point x="57.5215" y="43" type="curve"/>
      <point x="99.3223" y="199" type="line"/>
      <point x="119.786" y="197" type="line"/>
      <point x="122.848" y="89"/>
      <point x="150.79" y="44"/>
      <point x="221.038" y="30" type="curve"/>
      <point x="288.294" y="281" type="line"/>
      <point x="172.246" y="348"/>
      <point x="138.056" y="407"/>
      <point x="161.902" y="496" type="curve" smooth="yes"/>
      <point x="178.783" y="559"/>
      <point x="223.985" y="612"/>
      <point x="287.56" y="644" type="curve" smooth="yes"/>
      <point x="323.114" y="661"/>
      <point x="346.722" y="667"/>
      <point x="394.062" y="672" type="curve"/>
      <point x="414.962" y="750" type="line"/>
      <point x="469.962" y="750" type="line"/>
      <point x="449.598" y="674" type="line"/>
      <point x="524.114" y="661"/>
      <point x="555.167" y="650"/>
      <point x="594.664" y="622" type="curve"/>
    </contour>
    <contour>
      <point x="335.987" y="250" type="curve"/>
      <point x="277.038" y="30" type="line"/>
      <point x="343.254" y="42"/>
      <point x="382.096" y="75"/>
      <point x="397.905" y="134" type="curve" smooth="yes"/>
      <point x="412.374" y="188"/>
      <point x="403.93" y="205"/>
    </contour>
    <contour>
      <point x="334.648" y="454" type="curve"/>
      <point x="385.56" y="644" type="line"/>
      <point x="318.272" y="628"/>
      <point x="285.306" y="602"/>
      <point x="272.443" y="554" type="curve" smooth="yes"/>
      <point x="260.118" y="508"/>
      <point x="280.275" y="475"/>
    </contour>
  </outline>
</glyph>
<glyph name="percent" format="2">
  <advance width="1000"/>
  <unicode hex="0025"/>
  <outline>
    <contour>
      <point x="860.677" y="372" type="curve" smooth="yes"/>
      <point x="930.677" y="372"/>
      <point x="964.619" y="327"/>
      <point x="945.863" y="257" type="curve" smooth="yes"/>
      <point x="924.963" y="179"/>
      <point x="868.455" y="95"/>
      <point x="799.45" y="39" type="curve" smooth="yes"/>
      <point x="759.607" y="6"/>
      <point x="708.249" y="-14"/>
      <point x="664.249" y="-14" type="curve" smooth="yes"/>
      <point x="584.249" y="-14"/>
      <point x="545.986" y="41"/>
      <point x="568.494" y="125" type="curve" smooth="yes"/>
      <point x="601.451" y="248"/>
      <point x="747.677" y="372"/>
    </contour>
    <contour>
      <point x="878.012" y="321" type="curve" smooth="yes"/>
      <point x="852.012" y="321"/>
      <point x="825.725" y="305"/>
      <point x="791.078" y="269" type="curve" smooth="yes"/>
      <point x="744.949" y="220"/>
      <point x="686.565" y="129"/>
      <point x="675.579" y="88" type="curve" smooth="yes"/>
      <point x="665.934" y="52"/>
      <point x="677.574" y="32"/>
      <point x="709.574" y="32" type="curve" smooth="yes"/>
      <point x="746.574" y="32"/>
      <point x="789.345" y="61"/>
      <point x="834.082" y="116" type="curve" smooth="yes"/>
      <point x="875.479" y="166"/>
      <point x="900.001" y="209"/>
      <point x="910.72" y="249" type="curve" smooth="yes"/>
      <point x="921.705" y="290"/>
      <point x="908.012" y="321"/>
    </contour>
    <contour>
      <point x="913.421" y="692" type="line"/>
      <point x="331.856" y="-8" type="line"/>
      <point x="276.856" y="-8" type="line"/>
      <point x="790.985" y="612" type="line"/>
      <point x="744.162" y="594"/>
      <point x="702.75" y="585"/>
      <point x="668.75" y="585" type="curve" smooth="yes"/>
      <point x="654.75" y="585"/>
      <point x="643.019" y="586"/>
      <point x="623.09" y="590" type="curve"/>
      <point x="598.242" y="501"/>
      <point x="567.237" y="445"/>
      <point x="508.625" y="383" type="curve" smooth="yes"/>
      <point x="453.084" y="325"/>
      <point x="391.777" y="294"/>
      <point x="331.777" y="294" type="curve" smooth="yes"/>
      <point x="255.777" y="294"/>
      <point x="217.782" y="350"/>
      <point x="239.218" y="430" type="curve" smooth="yes"/>
      <point x="273.516" y="558"/>
      <point x="415.67" y="678"/>
      <point x="531.67" y="678" type="curve" smooth="yes"/>
      <point x="556.67" y="678"/>
      <point x="577.526" y="670"/>
      <point x="599.435" y="651" type="curve" smooth="yes"/>
      <point x="624.54" y="629"/>
      <point x="643.933" y="623"/>
      <point x="684.933" y="623" type="curve" smooth="yes"/>
      <point x="745.933" y="623"/>
      <point x="827.167" y="650"/>
      <point x="857.474" y="681" type="curve" smooth="yes"/>
      <point x="864.349" y="688"/>
      <point x="870.421" y="692"/>
      <point x="875.421" y="692" type="curve" smooth="yes"/>
    </contour>
    <contour>
      <point x="540.076" y="631" type="curve" smooth="yes"/>
      <point x="524.611" y="633"/>
      <point x="493.985" y="612"/>
      <point x="464.679" y="581" type="curve" smooth="yes"/>
      <point x="415.745" y="529"/>
      <point x="359.434" y="442"/>
      <point x="344.107" y="396" type="curve" smooth="yes"/>
      <point x="333.533" y="364"/>
      <point x="347.103" y="340"/>
      <point x="377.103" y="340" type="curve" smooth="yes"/>
      <point x="409.103" y="340"/>
      <point x="441.193" y="359"/>
      <point x="481.447" y="401" type="curve" smooth="yes"/>
      <point x="531.648" y="454"/>
      <point x="571.065" y="519"/>
      <point x="584.463" y="569" type="curve" smooth="yes"/>
      <point x="590.358" y="591"/>
      <point x="585.842" y="604"/>
      <point x="567.253" y="613" type="curve" smooth="yes"/>
      <point x="561.789" y="615"/>
      <point x="561.057" y="616"/>
      <point x="553.933" y="623" type="curve" smooth="yes"/>
      <point x="546.54" y="629"/>
      <point x="543.808" y="630"/>
    </contour>
  </outline>
</glyph>
<glyph name="ampersand" format="2">
  <advance width="833"/>
  <unicode hex="0026"/>
  <outline>
    <contour>
      <point x="689.271" y="419" type="line"/>
      <point x="895.271" y="419" type="line"/>
      <point x="888.84" y="395" type="line"/>
      <point x="844.769" y="391"/>
      <point x="830.893" y="384"/>
      <point x="805.122" y="355" type="curve" smooth="yes"/>
      <point x="766.332" y="311" type="line" smooth="yes"/>
      <point x="727.811" y="268"/>
      <point x="712.523" y="252"/>
      <point x="637.159" y="176" type="curve"/>
      <point x="673.867" y="104"/>
      <point x="693.775" y="85"/>
      <point x="731.775" y="85" type="curve" smooth="yes"/>
      <point x="755.775" y="85"/>
      <point x="775.723" y="96"/>
      <point x="799.958" y="123" type="curve"/>
      <point x="816.742" y="111" type="line"/>
      <point x="793.775" y="85" type="line" smooth="yes"/>
      <point x="757.79" y="44"/>
      <point x="740.503" y="28"/>
      <point x="721.02" y="15" type="curve" smooth="yes"/>
      <point x="692.196" y="-3"/>
      <point x="650.713" y="-16"/>
      <point x="619.713" y="-16" type="curve" smooth="yes"/>
      <point x="566.713" y="-16"/>
      <point x="536.607" y="6"/>
      <point x="494.292" y="72" type="curve"/>
      <point x="395.947" y="11"/>
      <point x="322.98" y="-15"/>
      <point x="248.98" y="-15" type="curve" smooth="yes"/>
      <point x="136.98" y="-15"/>
      <point x="77.541" y="58"/>
      <point x="105.14" y="161" type="curve" smooth="yes"/>
      <point x="130.327" y="255"/>
      <point x="201.208" y="318"/>
      <point x="361.964" y="388" type="curve"/>
      <point x="340.453" y="457"/>
      <point x="337.027" y="489"/>
      <point x="348.817" y="533" type="curve" smooth="yes"/>
      <point x="374.808" y="630"/>
      <point x="466.153" y="691"/>
      <point x="586.153" y="691" type="curve" smooth="yes"/>
      <point x="687.153" y="691"/>
      <point x="740.291" y="643"/>
      <point x="720.463" y="569" type="curve" smooth="yes"/>
      <point x="703.582" y="506"/>
      <point x="645.793" y="462"/>
      <point x="529.343" y="423" type="curve"/>
      <point x="623.001" y="209" type="line"/>
      <point x="700.294" y="281"/>
      <point x="727.136" y="314"/>
      <point x="737.854" y="354" type="curve" smooth="yes"/>
      <point x="745.625" y="383"/>
      <point x="739.964" y="388"/>
      <point x="682.84" y="395" type="curve"/>
    </contour>
    <contour>
      <point x="399.634" y="286" type="curve" smooth="yes"/>
      <point x="370.926" y="358" type="line"/>
      <point x="307.352" y="326"/>
      <point x="281.652" y="301"/>
      <point x="271.738" y="264" type="curve" smooth="yes"/>
      <point x="257.806" y="212"/>
      <point x="269.656" y="148"/>
      <point x="300.599" y="103" type="curve" smooth="yes"/>
      <point x="318.632" y="77"/>
      <point x="348.345" y="61"/>
      <point x="378.345" y="61" type="curve" smooth="yes"/>
      <point x="404.345" y="61"/>
      <point x="432.292" y="72"/>
      <point x="478.795" y="100" type="curve"/>
      <point x="458.049" y="142"/>
      <point x="444.623" y="174"/>
    </contour>
    <contour>
      <point x="518.113" y="452" type="curve"/>
      <point x="572.668" y="469"/>
      <point x="598.831" y="492"/>
      <point x="609.816" y="533" type="curve" smooth="yes"/>
      <point x="627.77" y="600"/>
      <point x="600.311" y="658"/>
      <point x="551.311" y="658" type="curve" smooth="yes"/>
      <point x="519.311" y="658"/>
      <point x="493.684" y="637"/>
      <point x="484.306" y="602" type="curve" smooth="yes"/>
      <point x="473.319" y="561"/>
      <point x="482.798" y="518"/>
    </contour>
  </outline>
</glyph>
<glyph name="quotesingle" format="2">
  <advance width="278"/>
  <unicode hex="0027"/>
  <outline>
    <contour>
      <point x="268.252" y="404" type="curve"/>
      <point x="227.252" y="404" type="line"/>
      <point x="227.878" y="425"/>
      <point x="228.237" y="445"/>
      <point x="229.113" y="452" type="curve" smooth="yes"/>
      <point x="230.353" y="535"/>
      <point x="235.502" y="599"/>
      <point x="241.129" y="620" type="curve" smooth="yes"/>
      <point x="252.65" y="663"/>
      <point x="286.153" y="691"/>
      <point x="324.153" y="691" type="curve" smooth="yes"/>
      <point x="361.153" y="691"/>
      <point x="381.383" y="662"/>
      <point x="371.2" y="624" type="curve" smooth="yes"/>
      <point x="365.306" y="602"/>
      <point x="339.836" y="548"/>
    </contour>
  </outline>
</glyph>
<glyph name="parenright" format="2">
  <advance width="333"/>
  <unicode hex="0029"/>
  <outline>
    <contour>
      <point x="-18.0156" y="-168" type="curve"/>
      <point x="-10.7812" y="-141" type="line"/>
      <point x="59.9375" y="-101"/>
      <point x="91.9043" y="-75"/>
      <point x="123.693" y="-31" type="curve" smooth="yes"/>
      <point x="167.771" y="29"/>
      <point x="208.833" y="130"/>
      <point x="245.811" y="268" type="curve" smooth="yes"/>
      <point x="282.252" y="404"/>
      <point x="293.171" y="497"/>
      <point x="279.783" y="559" type="curve" smooth="yes"/>
      <point x="270.842" y="604"/>
      <point x="252.54" y="629"/>
      <point x="205.454" y="666" type="curve"/>
      <point x="212.957" y="694" type="line"/>
      <point x="295.147" y="635"/>
      <point x="327.43" y="595"/>
      <point x="354.138" y="523" type="curve" smooth="yes"/>
      <point x="381.773" y="447"/>
      <point x="382.926" y="358"/>
      <point x="358.274" y="266" type="curve" smooth="yes"/>
      <point x="323.977" y="138"/>
      <point x="246.091" y="19"/>
      <point x="135.439" y="-73" type="curve" smooth="yes"/>
      <point x="86.4541" y="-114"/>
      <point x="52.8271" y="-135"/>
    </contour>
  </outline>
</glyph>
<glyph name="hyphen" format="2">
  <advance width="333"/>
  <unicode hex="002D"/>
  <outline>
    <contour>
      <point x="363.901" y="287" type="line"/>
      <point x="332.819" y="171" type="line"/>
      <point x="89.8193" y="171" type="line"/>
      <point x="120.901" y="287" type="line"/>
    </contour>
  </outline>
</glyph>
<glyph name="period" format="2">
  <advance width="250"/>
  <unicode hex="002E"/>
  <outline>
    <contour>
      <point x="166.8" y="156" type="curve" smooth="yes"/>
      <point x="213.8" y="156"/>
      <point x="241.35" y="117"/>
      <point x="228.757" y="70" type="curve" smooth="yes"/>
      <point x="216.431" y="24"/>
      <point x="168.517" y="-13"/>
      <point x="120.517" y="-13" type="curve" smooth="yes"/>
      <point x="73.5166" y="-13"/>
      <point x="47.4307" y="24"/>
      <point x="60.292" y="72" type="curve" smooth="yes"/>
      <point x="72.3496" y="117"/>
      <point x="120.8" y="156"/>
    </contour>
  </outline>
</glyph>
<glyph name="slash" format="2">
  <advance width="278"/>
  <unicode hex="002F"/>
  <outline>
    <contour>
      <point x="487.153" y="691" type="line"/>
      <point x="60.9092" y="-19" type="line"/>
      <point x="-29.0908" y="-19" type="line"/>
      <point x="397.153" y="691" type="line"/>
    </contour>
  </outline>
</glyph>
<glyph name="two" format="2">
  <advance width="500"/>
  <unicode hex="0032"/>
  <outline>
    <contour>
      <point x="534.537" y="211" type="line"/>
      <point x="433" y="0" type="line"/>
      <point x="17" y="0" type="line"/>
      <point x="23.1631" y="23" type="line"/>
      <point x="210.963" y="179"/>
      <point x="257.217" y="221"/>
      <point x="329.117" y="299" type="curve" smooth="yes"/>
      <point x="374.246" y="348"/>
      <point x="407.983" y="403"/>
      <point x="419.773" y="447" type="curve" smooth="yes"/>
      <point x="425.937" y="470"/>
      <point x="425.438" y="498"/>
      <point x="419.065" y="519" type="curve" smooth="yes"/>
      <point x="406.712" y="555"/>
      <point x="378.803" y="574"/>
      <point x="334.803" y="574" type="curve" smooth="yes"/>
      <point x="280.803" y="574"/>
      <point x="236.3" y="546"/>
      <point x="188.688" y="484" type="curve"/>
      <point x="160.688" y="484" type="line"/>
      <point x="208.783" y="559"/>
      <point x="237.894" y="593"/>
      <point x="287.344" y="632" type="curve" smooth="yes"/>
      <point x="331.99" y="668"/>
      <point x="385.349" y="688"/>
      <point x="435.349" y="688" type="curve" smooth="yes"/>
      <point x="543.349" y="688"/>
      <point x="599.985" y="612"/>
      <point x="571.314" y="505" type="curve" smooth="yes"/>
      <point x="550.95" y="429"/>
      <point x="497.998" y="362"/>
      <point x="398.901" y="287" type="curve" smooth="yes"/>
      <point x="195.638" y="133" type="line"/>
      <point x="346.638" y="133" type="line" smooth="yes"/>
      <point x="448.638" y="133"/>
      <point x="462.245" y="139"/>
      <point x="510.537" y="211" type="curve"/>
    </contour>
  </outline>
</glyph>
<glyph name="three" format="2">
  <advance width="500"/>
  <unicode hex="0033"/>
  <outline>
    <contour>
      <point x="198.138" y="523" type="curve"/>
      <point x="180.353" y="535" type="line"/>
      <point x="262.951" y="638"/>
      <point x="351.349" y="688"/>
      <point x="450.349" y="688" type="curve" smooth="yes"/>
      <point x="552.349" y="688"/>
      <point x="599.684" y="637"/>
      <point x="576.64" y="551" type="curve" smooth="yes"/>
      <point x="560.831" y="492"/>
      <point x="534.061" y="463"/>
      <point x="459.61" y="424" type="curve"/>
      <point x="494.787" y="406"/>
      <point x="508.572" y="394"/>
      <point x="523.142" y="370" type="curve" smooth="yes"/>
      <point x="542.763" y="335"/>
      <point x="546.241" y="292"/>
      <point x="533.916" y="246" type="curve" smooth="yes"/>
      <point x="494.795" y="100"/>
      <point x="332.249" y="-14"/>
      <point x="165.249" y="-14" type="curve" smooth="yes"/>
      <point x="73.249" y="-14"/>
      <point x="21.8945" y="22"/>
      <point x="36.3643" y="76" type="curve" smooth="yes"/>
      <point x="45.4746" y="110"/>
      <point x="78.9053" y="134"/>
      <point x="116.905" y="134" type="curve" smooth="yes"/>
      <point x="146.905" y="134"/>
      <point x="172.618" y="118"/>
      <point x="201.168" y="79" type="curve" smooth="yes"/>
      <point x="225.594" y="47"/>
      <point x="241.646" y="36"/>
      <point x="265.646" y="36" type="curve" smooth="yes"/>
      <point x="325.646" y="36"/>
      <point x="375.972" y="82"/>
      <point x="395.265" y="154" type="curve" smooth="yes"/>
      <point x="408.126" y="202"/>
      <point x="402.184" y="247"/>
      <point x="378.954" y="276" type="curve" smooth="yes"/>
      <point x="352.064" y="310"/>
      <point x="323.619" y="327"/>
      <point x="248.39" y="356" type="curve"/>
      <point x="252.945" y="373" type="line"/>
      <point x="355.983" y="403"/>
      <point x="400.361" y="438"/>
      <point x="418.047" y="504" type="curve" smooth="yes"/>
      <point x="434.927" y="567"/>
      <point x="406.646" y="607"/>
      <point x="343.646" y="607" type="curve" smooth="yes"/>
      <point x="291.646" y="607"/>
      <point x="252.482" y="584"/>
    </contour>
  </outline>
</glyph>
<glyph name="five" format="2">
  <advance width="500"/>
  <unicode hex="0035"/>
  <outline>
    <contour>
      <point x="296.104" y="549" type="line"/>
      <point x="252.4" y="468" type="line"/>
      <point x="333.061" y="463"/>
      <point x="362.988" y="459"/>
      <point x="398.041" y="448" type="curve" smooth="yes"/>
      <point x="498.734" y="417"/>
      <point x="541.299" y="337"/>
      <point x="513.433" y="233" type="curve" smooth="yes"/>
      <point x="475.651" y="92"/>
      <point x="331.856" y="-8"/>
      <point x="166.856" y="-8" type="curve" smooth="yes"/>
      <point x="77.8564" y="-8"/>
      <point x="29.2344" y="27"/>
      <point x="43.4355" y="80" type="curve" smooth="yes"/>
      <point x="52.8145" y="115"/>
      <point x="85.5127" y="140"/>
      <point x="121.513" y="140" type="curve" smooth="yes"/>
      <point x="147.513" y="140"/>
      <point x="174.029" y="127"/>
      <point x="208.455" y="95" type="curve" smooth="yes"/>
      <point x="240.417" y="65"/>
      <point x="264.201" y="53"/>
      <point x="287.201" y="53" type="curve" smooth="yes"/>
      <point x="343.201" y="53"/>
      <point x="398.991" y="97"/>
      <point x="413.996" y="153" type="curve" smooth="yes"/>
      <point x="431.681" y="219"/>
      <point x="393.954" y="276"/>
      <point x="312.457" y="304" type="curve" smooth="yes"/>
      <point x="272.208" y="318"/>
      <point x="232.815" y="324"/>
      <point x="139.691" y="331" type="curve"/>
      <point x="329.134" y="676" type="line"/>
      <point x="651.134" y="676" type="line"/>
      <point x="574.104" y="549" type="line"/>
    </contour>
  </outline>
</glyph>
<glyph name="eight" format="2">
  <advance width="500"/>
  <unicode hex="0038"/>
  <outline>
    <contour>
      <point x="264.815" y="324" type="curve"/>
      <point x="181.625" y="383"/>
      <point x="156.361" y="438"/>
      <point x="176.458" y="513" type="curve" smooth="yes"/>
      <point x="204.593" y="618"/>
      <point x="312.349" y="688"/>
      <point x="447.349" y="688" type="curve" smooth="yes"/>
      <point x="566.349" y="688"/>
      <point x="627.344" y="632"/>
      <point x="603.496" y="543" type="curve" smooth="yes"/>
      <point x="586.348" y="479"/>
      <point x="535.361" y="438"/>
      <point x="430.252" y="404" type="curve"/>
      <point x="519.031" y="336"/>
      <point x="545.418" y="274"/>
      <point x="522.106" y="187" type="curve" smooth="yes"/>
      <point x="489.952" y="67"/>
      <point x="375.517" y="-13"/>
      <point x="236.517" y="-13" type="curve" smooth="yes"/>
      <point x="109.517" y="-13"/>
      <point x="42.7373" y="55"/>
      <point x="70.0684" y="157" type="curve" smooth="yes"/>
      <point x="81.8574" y="201"/>
      <point x="107.04" y="239"/>
      <point x="143.542" y="267" type="curve" smooth="yes"/>
      <point x="176.241" y="292"/>
      <point x="202.725" y="305"/>
    </contour>
    <contour>
      <point x="411.074" y="422" type="curve"/>
      <point x="455.864" y="466"/>
      <point x="470.027" y="489"/>
      <point x="482.621" y="536" type="curve" smooth="yes"/>
      <point x="503.521" y="614"/>
      <point x="483.578" y="659"/>
      <point x="427.578" y="659" type="curve" smooth="yes"/>
      <point x="380.578" y="659"/>
      <point x="334.933" y="623"/>
      <point x="322.339" y="576" type="curve" smooth="yes"/>
      <point x="307.334" y="520"/>
      <point x="338.597" y="465"/>
    </contour>
    <contour>
      <point x="281.992" y="306" type="curve"/>
      <point x="226.184" y="247"/>
      <point x="206.877" y="216"/>
      <point x="192.14" y="161" type="curve" smooth="yes"/>
      <point x="168.292" y="72"/>
      <point x="190.091" y="19"/>
      <point x="251.091" y="19" type="curve" smooth="yes"/>
      <point x="305.091" y="19"/>
      <point x="349.077" y="60"/>
      <point x="367.029" y="127" type="curve" smooth="yes"/>
      <point x="386.857" y="201"/>
      <point x="371.433" y="233"/>
    </contour>
  </outline>
</glyph>
<glyph name="nine" format="2">
  <advance width="500"/>
  <unicode hex="0039"/>
  <outline>
    <contour>
      <point x="27.5166" y="-13" type="curve"/>
      <point x="34.4834" y="13" type="line"/>
      <point x="186.254" y="42"/>
      <point x="288.422" y="121"/>
      <point x="372.15" y="273" type="curve"/>
      <point x="341.398" y="259"/>
      <point x="314.059" y="254"/>
      <point x="276.059" y="254" type="curve" smooth="yes"/>
      <point x="167.06" y="254"/>
      <point x="115.495" y="334"/>
      <point x="147.113" y="452" type="curve" smooth="yes"/>
      <point x="183.822" y="589"/>
      <point x="300.349" y="688"/>
      <point x="425.349" y="688" type="curve" smooth="yes"/>
      <point x="565.349" y="688"/>
      <point x="627.07" y="575"/>
      <point x="580.716" y="402" type="curve" smooth="yes"/>
      <point x="546.686" y="275"/>
      <point x="464.016" y="168"/>
      <point x="341.384" y="91" type="curve" smooth="yes"/>
      <point x="247.574" y="32"/>
      <point x="172.876" y="7"/>
    </contour>
    <contour>
      <point x="396.888" y="328" type="curve" smooth="yes"/>
      <point x="406.854" y="354" type="line" smooth="yes"/>
      <point x="421.912" y="399"/>
      <point x="432.486" y="431"/>
      <point x="439.721" y="458" type="curve" smooth="yes"/>
      <point x="458.745" y="529"/>
      <point x="467.502" y="599"/>
      <point x="460.004" y="627" type="curve" smooth="yes"/>
      <point x="455.167" y="650"/>
      <point x="441.114" y="661"/>
      <point x="416.114" y="661" type="curve" smooth="yes"/>
      <point x="367.114" y="661"/>
      <point x="347.076" y="631"/>
      <point x="315.994" y="515" type="curve" smooth="yes"/>
      <point x="273.926" y="358"/>
      <point x="281.117" y="299"/>
      <point x="343.117" y="299" type="curve" smooth="yes"/>
      <point x="358.117" y="299"/>
      <point x="378.188" y="303"/>
      <point x="386.528" y="308" type="curve" smooth="yes"/>
      <point x="390.064" y="310"/>
      <point x="392.404" y="315"/>
    </contour>
  </outline>
</glyph>
<glyph name="semicolon" format="2">
  <advance width="333"/>
  <unicode hex="003B"/>
  <outline>
    <contour>
      <point x="51.7695" y="-180" type="curve"/>
      <point x="46.6641" y="-158" type="line"/>
      <point x="135.598" y="-106"/>
      <point x="180.852" y="-64"/>
      <point x="191.301" y="-25" type="curve" smooth="yes"/>
      <point x="194.249" y="-14"/>
      <point x="188.928" y="-4"/>
      <point x="178.928" y="-4" type="curve" smooth="yes"/>
      <point x="171.928" y="-4" type="line"/>
      <point x="159.393" y="-6" type="line"/>
      <point x="151.393" y="-6" type="line" smooth="yes"/>
      <point x="139.393" y="-6"/>
      <point x="118.536" y="2"/>
      <point x="110.947" y="11" type="curve" smooth="yes"/>
      <point x="97.6992" y="25"/>
      <point x="94.3252" y="46"/>
      <point x="101.292" y="72" type="curve" smooth="yes"/>
      <point x="114.689" y="122"/>
      <point x="156.532" y="155"/>
      <point x="206.532" y="155" type="curve" smooth="yes"/>
      <point x="266.532" y="155"/>
      <point x="294.938" y="108"/>
      <point x="276.45" y="39" type="curve" smooth="yes"/>
      <point x="253.406" y="-47"/>
      <point x="185.722" y="-113"/>
    </contour>
    <contour>
      <point x="292.472" y="472" type="curve" smooth="yes"/>
      <point x="339.472" y="472"/>
      <point x="367.29" y="434"/>
      <point x="354.696" y="387" type="curve" smooth="yes"/>
      <point x="342.371" y="341"/>
      <point x="294.188" y="303"/>
      <point x="247.188" y="303" type="curve" smooth="yes"/>
      <point x="199.188" y="303"/>
      <point x="173.103" y="340"/>
      <point x="186.232" y="389" type="curve" smooth="yes"/>
      <point x="198.29" y="434"/>
      <point x="246.472" y="472"/>
    </contour>
  </outline>
</glyph>
<glyph name="greater" format="2">
  <advance width="570"/>
  <unicode hex="003E"/>
  <outline>
    <contour>
      <point x="27.7842" y="-12" type="line"/>
      <point x="53.5078" y="84" type="line"/>
      <point x="483.791" y="253" type="line"/>
      <point x="144.074" y="422" type="line"/>
      <point x="169.798" y="518" type="line"/>
      <point x="618.045" y="295" type="line"/>
      <point x="595.537" y="211" type="line"/>
    </contour>
  </outline>
</glyph>
<glyph name="at" format="2">
  <advance width="930"/>
  <unicode hex="0040"/>
  <outline>
    <contour>
      <point x="719.864" y="466" type="curve"/>
      <point x="741.582" y="506" type="line"/>
      <point x="812.582" y="506" type="line"/>
      <point x="676.916" y="246" type="line" smooth="yes"/>
      <point x="674.576" y="241"/>
      <point x="671.7" y="234"/>
      <point x="670.093" y="228" type="curve" smooth="yes"/>
      <point x="661.786" y="197"/>
      <point x="670.23" y="180"/>
      <point x="695.23" y="180" type="curve" smooth="yes"/>
      <point x="761.23" y="180"/>
      <point x="849.758" y="279"/>
      <point x="878.16" y="385" type="curve" smooth="yes"/>
      <point x="916.745" y="529"/>
      <point x="816.703" y="652"/>
      <point x="660.703" y="652" type="curve" smooth="yes"/>
      <point x="494.703" y="652"/>
      <point x="337.994" y="515"/>
      <point x="287.084" y="325" type="curve" smooth="yes"/>
      <point x="240.46" y="151"/>
      <point x="331.234" y="27"/>
      <point x="506.234" y="27" type="curve" smooth="yes"/>
      <point x="573.234" y="27"/>
      <point x="626.45" y="39"/>
      <point x="718.364" y="76" type="curve"/>
      <point x="721.986" y="41" type="line"/>
      <point x="612.66" y="-5"/>
      <point x="555.909" y="-19"/>
      <point x="481.909" y="-19" type="curve" smooth="yes"/>
      <point x="268.909" y="-19"/>
      <point x="143.905" y="134"/>
      <point x="196.423" y="330" type="curve" smooth="yes"/>
      <point x="250.281" y="531"/>
      <point x="460.153" y="691"/>
      <point x="670.153" y="691" type="curve" smooth="yes"/>
      <point x="860.153" y="691"/>
      <point x="972.052" y="560"/>
      <point x="926.5" y="390" type="curve" smooth="yes"/>
      <point x="890.863" y="257"/>
      <point x="773.316" y="143"/>
      <point x="671.316" y="143" type="curve" smooth="yes"/>
      <point x="621.316" y="143"/>
      <point x="592.355" y="173"/>
      <point x="597.413" y="218" type="curve"/>
      <point x="550.087" y="172"/>
      <point x="494.585" y="144"/>
      <point x="451.585" y="144" type="curve" smooth="yes"/>
      <point x="398.585" y="144"/>
      <point x="370.982" y="194"/>
      <point x="388.398" y="259" type="curve" smooth="yes"/>
      <point x="408.228" y="333"/>
      <point x="461.396" y="412"/>
      <point x="528.132" y="467" type="curve" smooth="yes"/>
      <point x="568.975" y="500"/>
      <point x="617.065" y="519"/>
      <point x="661.065" y="519" type="curve" smooth="yes"/>
      <point x="697.065" y="519"/>
      <point x="709.386" y="509"/>
    </contour>
    <contour>
      <point x="661.204" y="471" type="curve" smooth="yes"/>
      <point x="636.74" y="473"/>
      <point x="597.381" y="453"/>
      <point x="560.539" y="420" type="curve" smooth="yes"/>
      <point x="516.356" y="382"/>
      <point x="484.691" y="331"/>
      <point x="470.222" y="277" type="curve" smooth="yes"/>
      <point x="456.021" y="224"/>
      <point x="470.179" y="191"/>
      <point x="506.179" y="191" type="curve" smooth="yes"/>
      <point x="536.179" y="191"/>
      <point x="572.877" y="216"/>
      <point x="606.398" y="259" type="curve" smooth="yes"/>
      <point x="638.385" y="300"/>
      <point x="671.729" y="361"/>
      <point x="685.787" y="406" type="curve" smooth="yes"/>
      <point x="698.237" y="445"/>
      <point x="689.668" y="469"/>
    </contour>
  </outline>
</glyph>
<glyph name="B" format="2">
  <advance width="667"/>
  <unicode hex="0042"/>
  <outline>
    <contour>
      <point x="197.134" y="676" type="line"/>
      <point x="506.134" y="676" type="line" smooth="yes"/>
      <point x="673.134" y="676"/>
      <point x="750.86" y="619"/>
      <point x="723.262" y="516" type="curve" smooth="yes"/>
      <point x="702.897" y="440"/>
      <point x="648.912" y="399"/>
      <point x="523.802" y="365" type="curve"/>
      <point x="589.782" y="350"/>
      <point x="619.763" y="335"/>
      <point x="646.725" y="305" type="curve" smooth="yes"/>
      <point x="673.418" y="274"/>
      <point x="681.433" y="233"/>
      <point x="669.374" y="188" type="curve" smooth="yes"/>
      <point x="639.096" y="75"/>
      <point x="507" y="0"/>
      <point x="338" y="0" type="curve" smooth="yes"/>
      <point x="16" y="0" type="line"/>
      <point x="22.6992" y="25" type="line"/>
      <point x="97.8428" y="33"/>
      <point x="116.058" y="45"/>
      <point x="129.723" y="96" type="curve" smooth="yes"/>
      <point x="259.41" y="580" type="line" smooth="yes"/>
      <point x="273.076" y="631"/>
      <point x="258.363" y="647"/>
      <point x="190.435" y="651" type="curve"/>
    </contour>
    <contour>
      <point x="355.906" y="343" type="line"/>
      <point x="288.919" y="93" type="line" smooth="yes"/>
      <point x="277.13" y="49"/>
      <point x="289.574" y="32"/>
      <point x="333.574" y="32" type="curve" smooth="yes"/>
      <point x="414.574" y="32"/>
      <point x="468.972" y="82"/>
      <point x="494.963" y="179" type="curve" smooth="yes"/>
      <point x="524.438" y="289"/>
      <point x="488.906" y="343"/>
      <point x="385.906" y="343" type="curve" smooth="yes"/>
    </contour>
    <contour>
      <point x="423.966" y="597" type="curve" smooth="yes"/>
      <point x="363.945" y="373" type="line"/>
      <point x="487.749" y="376"/>
      <point x="528.252" y="404"/>
      <point x="556.386" y="509" type="curve" smooth="yes"/>
      <point x="581.573" y="603"/>
      <point x="561.095" y="646"/>
      <point x="491.095" y="646" type="curve" smooth="yes"/>
      <point x="452.095" y="646"/>
      <point x="433.612" y="633"/>
    </contour>
  </outline>
</glyph>
<glyph name="E" format="2">
  <advance width="667"/>
  <unicode hex="0045"/>
  <outline>
    <contour>
      <point x="774.134" y="676" type="line"/>
      <point x="720.275" y="475" type="line"/>
      <point x="695.275" y="475" type="line"/>
      <point x="705.913" y="608"/>
      <point x="666.023" y="642"/>
      <point x="503.023" y="642" type="curve" smooth="yes"/>
      <point x="451.023" y="642"/>
      <point x="435.612" y="633"/>
      <point x="425.43" y="595" type="curve" smooth="yes"/>
      <point x="363.266" y="363" type="line"/>
      <point x="470.998" y="362"/>
      <point x="519.644" y="398"/>
      <point x="565.19" y="512" type="curve"/>
      <point x="591.19" y="512" type="line"/>
      <point x="500.623" y="174" type="line"/>
      <point x="474.623" y="174" type="line"/>
      <point x="493.705" y="290"/>
      <point x="463.155" y="329"/>
      <point x="354.155" y="329" type="curve"/>
      <point x="289.312" y="87" type="line" smooth="yes"/>
      <point x="277.79" y="44"/>
      <point x="293.307" y="31"/>
      <point x="357.307" y="31" type="curve" smooth="yes"/>
      <point x="433.307" y="31"/>
      <point x="492.594" y="47"/>
      <point x="548.508" y="84" type="curve" smooth="yes"/>
      <point x="592.278" y="113"/>
      <point x="619.781" y="141"/>
      <point x="668.733" y="208" type="curve"/>
      <point x="696.733" y="208" type="line"/>
      <point x="601" y="0" type="line"/>
      <point x="16" y="0" type="line"/>
      <point x="22.6992" y="25" type="line"/>
      <point x="98.8428" y="33"/>
      <point x="115.79" y="44"/>
      <point x="129.723" y="96" type="curve" smooth="yes"/>
      <point x="259.41" y="580" type="line" smooth="yes"/>
      <point x="273.076" y="631"/>
      <point x="258.363" y="647"/>
      <point x="190.435" y="651" type="curve"/>
      <point x="197.134" y="676" type="line"/>
    </contour>
  </outline>
</glyph>
<glyph name="H" format="2">
  <advance width="778"/>
  <unicode hex="0048"/>
  <outline>
    <contour>
      <point x="596.352" y="326" type="line"/>
      <point x="355.352" y="326" type="line"/>
      <point x="293.723" y="96" type="line" smooth="yes"/>
      <point x="280.594" y="47"/>
      <point x="293.843" y="33"/>
      <point x="364.699" y="25" type="curve"/>
      <point x="358" y="0" type="line"/>
      <point x="21" y="0" type="line"/>
      <point x="27.6992" y="25" type="line"/>
      <point x="100.11" y="34"/>
      <point x="118.594" y="47"/>
      <point x="131.723" y="96" type="curve" smooth="yes"/>
      <point x="261.41" y="580" type="line" smooth="yes"/>
      <point x="274.808" y="630"/>
      <point x="260.827" y="645"/>
      <point x="195.435" y="651" type="curve"/>
      <point x="202.134" y="676" type="line"/>
      <point x="539.134" y="676" type="line"/>
      <point x="532.435" y="651" type="line"/>
      <point x="461.095" y="646"/>
      <point x="436.808" y="630"/>
      <point x="423.41" y="580" type="curve" smooth="yes"/>
      <point x="367.945" y="373" type="line"/>
      <point x="608.945" y="373" type="line"/>
      <point x="664.41" y="580" type="line" smooth="yes"/>
      <point x="677.808" y="630"/>
      <point x="662.095" y="646"/>
      <point x="593.435" y="651" type="curve"/>
      <point x="600.134" y="676" type="line"/>
      <point x="940.134" y="676" type="line"/>
      <point x="933.435" y="651" type="line"/>
      <point x="864.095" y="646"/>
      <point x="839.808" y="630"/>
      <point x="826.41" y="580" type="curve" smooth="yes"/>
      <point x="696.723" y="96" type="line" smooth="yes"/>
      <point x="683.594" y="47"/>
      <point x="696.11" y="34"/>
      <point x="765.699" y="25" type="curve"/>
      <point x="759" y="0" type="line"/>
      <point x="419" y="0" type="line"/>
      <point x="425.699" y="25" type="line"/>
      <point x="500.843" y="33"/>
      <point x="521.594" y="47"/>
      <point x="534.723" y="96" type="curve" smooth="yes"/>
    </contour>
  </outline>
</glyph>
<glyph name="I" format="2">
  <advance width="389"/>
  <unicode hex="0049"/>
  <outline>
    <contour>
      <point x="138.723" y="96" type="curve" smooth="yes"/>
      <point x="268.41" y="580" type="line" smooth="yes"/>
      <point x="282.076" y="631"/>
      <point x="265.095" y="646"/>
      <point x="194.435" y="651" type="curve"/>
      <point x="201.134" y="676" type="line"/>
      <point x="551.134" y="676" type="line"/>
      <point x="544.435" y="651" type="line"/>
      <point x="469.631" y="648"/>
      <point x="444.344" y="632"/>
      <point x="430.41" y="580" type="curve" smooth="yes"/>
      <point x="300.723" y="96" type="line" smooth="yes"/>
      <point x="286.79" y="44"/>
      <point x="302.038" y="30"/>
      <point x="376.699" y="25" type="curve"/>
      <point x="370" y="0" type="line"/>
      <point x="20" y="0" type="line"/>
      <point x="26.6992" y="25" type="line"/>
      <point x="103.574" y="32"/>
      <point x="125.325" y="46"/>
    </contour>
  </outline>
</glyph>
<glyph name="L" format="2">
  <advance width="667"/>
  <unicode hex="004C"/>
  <outline>
    <contour>
      <point x="698.824" y="227" type="line"/>
      <point x="597" y="0" type="line"/>
      <point x="19" y="0" type="line"/>
      <point x="25.6992" y="25" type="line"/>
      <point x="101.11" y="34"/>
      <point x="117.058" y="45"/>
      <point x="130.723" y="96" type="curve" smooth="yes"/>
      <point x="260.41" y="580" type="line" smooth="yes"/>
      <point x="274.076" y="631"/>
      <point x="260.363" y="647"/>
      <point x="193.435" y="651" type="curve"/>
      <point x="200.134" y="676" type="line"/>
      <point x="549.134" y="676" type="line"/>
      <point x="542.435" y="651" type="line"/>
      <point x="454.363" y="647"/>
      <point x="436.88" y="634"/>
      <point x="416.783" y="559" type="curve" smooth="yes"/>
      <point x="290.312" y="87" type="line" smooth="yes"/>
      <point x="278.79" y="44"/>
      <point x="294.307" y="31"/>
      <point x="355.307" y="31" type="curve" smooth="yes"/>
      <point x="432.307" y="31"/>
      <point x="493.13" y="49"/>
      <point x="544.044" y="86" type="curve" smooth="yes"/>
      <point x="587.618" y="118"/>
      <point x="615.925" y="149"/>
      <point x="669.824" y="227" type="curve"/>
    </contour>
  </outline>
</glyph>
<glyph name="O" format="2">
  <advance width="778"/>
  <unicode hex="004F"/>
  <outline>
    <contour>
      <point x="578.153" y="691" type="curve" smooth="yes"/>
      <point x="779.153" y="691"/>
      <point x="887.692" y="540"/>
      <point x="833.031" y="336" type="curve" smooth="yes"/>
      <point x="777.565" y="129"/>
      <point x="590.909" y="-19"/>
      <point x="383.909" y="-19" type="curve" smooth="yes"/>
      <point x="176.909" y="-19"/>
      <point x="69.2979" y="128"/>
      <point x="124.763" y="335" type="curve" smooth="yes"/>
      <point x="180.496" y="543"/>
      <point x="369.153" y="691"/>
    </contour>
    <contour>
      <point x="568.311" y="658" type="curve" smooth="yes"/>
      <point x="451.311" y="658"/>
      <point x="357.229" y="542"/>
      <point x="299.352" y="326" type="curve" smooth="yes"/>
      <point x="245.226" y="124"/>
      <point x="277.751" y="14"/>
      <point x="392.751" y="14" type="curve" smooth="yes"/>
      <point x="507.751" y="14"/>
      <point x="599.226" y="124"/>
      <point x="654.155" y="329" type="curve" smooth="yes"/>
      <point x="709.889" y="537"/>
      <point x="678.311" y="658"/>
    </contour>
  </outline>
</glyph>
<glyph name="W" format="2">
  <advance width="1000"/>
  <unicode hex="0057"/>
  <outline>
    <contour>
      <point x="1162.13" y="676" type="line"/>
      <point x="1155.43" y="651" type="line"/>
      <point x="1121.63" y="648"/>
      <point x="1093" y="627"/>
      <point x="1069.29" y="587" type="curve" smooth="yes"/>
      <point x="707.98" y="-15" type="line"/>
      <point x="680.98" y="-15" type="line"/>
      <point x="637.793" y="462" type="line"/>
      <point x="323.98" y="-15" type="line"/>
      <point x="295.98" y="-15" type="line"/>
      <point x="245.286" y="587" type="line" smooth="yes"/>
      <point x="241.416" y="636"/>
      <point x="233.827" y="645"/>
      <point x="193.435" y="651" type="curve"/>
      <point x="200.134" y="676" type="line"/>
      <point x="494.134" y="676" type="line"/>
      <point x="487.435" y="651" type="line"/>
      <point x="434.363" y="647"/>
      <point x="419.951" y="638"/>
      <point x="412.181" y="609" type="curve" smooth="yes"/>
      <point x="409.77" y="600"/>
      <point x="409.626" y="592"/>
      <point x="410.339" y="576" type="curve" smooth="yes"/>
      <point x="432.806" y="212" type="line"/>
      <point x="633.334" y="520" type="line"/>
      <point x="624.057" y="616" type="line" smooth="yes"/>
      <point x="619.487" y="640"/>
      <point x="601.899" y="649"/>
      <point x="561.435" y="651" type="curve"/>
      <point x="568.134" y="676" type="line"/>
      <point x="880.134" y="676" type="line"/>
      <point x="873.435" y="651" type="line"/>
      <point x="867.167" y="650"/>
      <point x="862.167" y="650"/>
      <point x="860.167" y="650" type="curve" smooth="yes"/>
      <point x="815.363" y="647"/>
      <point x="797.951" y="638"/>
      <point x="791.521" y="614" type="curve" smooth="yes"/>
      <point x="789.109" y="605"/>
      <point x="789.09" y="590"/>
      <point x="790.516" y="558" type="curve" smooth="yes"/>
      <point x="808.484" y="222" type="line"/>
      <point x="1012.39" y="565" type="line" smooth="yes"/>
      <point x="1021.14" y="579"/>
      <point x="1027.16" y="594"/>
      <point x="1030.65" y="607" type="curve" smooth="yes"/>
      <point x="1038.95" y="638"/>
      <point x="1026.63" y="648"/>
      <point x="973.435" y="651" type="curve"/>
      <point x="980.134" y="676" type="line"/>
    </contour>
  </outline>
</glyph>
<glyph name="bracketright" format="2">
  <advance width="333"/>
  <unicode hex="005D"/>
  <outline>
    <contour>
      <point x="-7.9248" y="-149" type="line"/>
      <point x="0.917969" y="-116" type="line"/>
      <point x="80.918" y="-116" type="line" smooth="yes"/>
      <point x="122.918" y="-116"/>
      <point x="133.329" y="-107"/>
      <point x="145.119" y="-63" type="curve" smooth="yes"/>
      <point x="316.07" y="575" type="line" smooth="yes"/>
      <point x="331.612" y="633"/>
      <point x="323.827" y="645"/>
      <point x="267.827" y="645" type="curve" smooth="yes"/>
      <point x="204.827" y="645" type="line"/>
      <point x="213.67" y="678" type="line"/>
      <point x="447.67" y="678" type="line"/>
      <point x="226.075" y="-149" type="line"/>
    </contour>
  </outline>
</glyph>
<glyph name="asciicircum" format="2">
  <advance width="581"/>
  <unicode hex="005E"/>
  <outline>
    <contour>
      <point x="245.332" y="311" type="line"/>
      <point x="156.332" y="311" type="line"/>
      <point x="432.134" y="676" type="line"/>
      <point x="512.134" y="676" type="line"/>
      <point x="592.332" y="311" type="line"/>
      <point x="503.332" y="311" type="line"/>
      <point x="447.215" y="583" type="line"/>
    </contour>
  </outline>
</glyph>
<glyph name="grave" format="2">
  <advance width="333"/>
  <unicode hex="0060"/>
  <outline>
    <contour>
      <point x="387.478" y="528" type="line"/>
      <point x="331.478" y="528" type="line"/>
      <point x="213.057" y="616" type="line" smooth="yes"/>
      <point x="188.88" y="634"/>
      <point x="181.631" y="648"/>
      <point x="186.99" y="668" type="curve" smooth="yes"/>
      <point x="193.688" y="693"/>
      <point x="220.048" y="713"/>
      <point x="246.048" y="713" type="curve" smooth="yes"/>
      <point x="265.048" y="713"/>
      <point x="281.368" y="703"/>
      <point x="292.545" y="685" type="curve" smooth="yes"/>
    </contour>
  </outline>
</glyph>
<glyph name="a" format="2">
  <advance width="500"/>
  <unicode hex="0061"/>
  <outline>
    <contour>
      <point x="490.148" y="64" type="line"/>
      <point x="499.521" y="43" type="line"/>
      <point x="450.536" y="2"/>
      <point x="415.249" y="-14"/>
      <point x="372.249" y="-14" type="curve" smooth="yes"/>
      <point x="323.249" y="-14"/>
      <point x="306.34" y="5"/>
      <point x="309.005" y="56" type="curve"/>
      <point x="240.607" y="6"/>
      <point x="189.249" y="-14"/>
      <point x="132.249" y="-14" type="curve" smooth="yes"/>
      <point x="68.249" y="-14"/>
      <point x="33.3066" y="31"/>
      <point x="49.6514" y="92" type="curve" smooth="yes"/>
      <point x="61.1729" y="135"/>
      <point x="91.2832" y="169"/>
      <point x="142.322" y="199" type="curve" smooth="yes"/>
      <point x="186.021" y="224"/>
      <point x="240.38" y="244"/>
      <point x="369.025" y="280" type="curve"/>
      <point x="388.586" y="353" type="line" smooth="yes"/>
      <point x="404.931" y="414"/>
      <point x="386.166" y="441"/>
      <point x="328.166" y="441" type="curve" smooth="yes"/>
      <point x="293.166" y="441"/>
      <point x="260.879" y="425"/>
      <point x="255.252" y="404" type="curve" smooth="yes"/>
      <point x="253.644" y="398"/>
      <point x="255.036" y="392"/>
      <point x="261.356" y="382" type="curve" smooth="yes"/>
      <point x="269.069" y="366"/>
      <point x="271.586" y="353"/>
      <point x="267.835" y="339" type="curve" smooth="yes"/>
      <point x="258.725" y="305"/>
      <point x="224.294" y="281"/>
      <point x="184.294" y="281" type="curve" smooth="yes"/>
      <point x="143.294" y="281"/>
      <point x="125.992" y="306"/>
      <point x="136.979" y="347" type="curve" smooth="yes"/>
      <point x="157.074" y="422"/>
      <point x="246.74" y="473"/>
      <point x="359.74" y="473" type="curve" smooth="yes"/>
      <point x="481.74" y="473"/>
      <point x="543.539" y="420"/>
      <point x="521.031" y="336" type="curve" smooth="yes"/>
      <point x="451.096" y="75" type="line" smooth="yes"/>
      <point x="446.809" y="59"/>
      <point x="451.397" y="50"/>
      <point x="465.397" y="50" type="curve" smooth="yes"/>
      <point x="470.397" y="50"/>
      <point x="473.665" y="51"/>
      <point x="477.47" y="54" type="curve" smooth="yes"/>
    </contour>
    <contour>
      <point x="319.795" y="100" type="curve"/>
      <point x="358.647" y="245" type="line"/>
      <point x="273.021" y="224"/>
      <point x="219.767" y="182"/>
      <point x="204.226" y="124" type="curve" smooth="yes"/>
      <point x="193.508" y="84"/>
      <point x="207.273" y="57"/>
      <point x="237.273" y="57" type="curve" smooth="yes"/>
      <point x="261.273" y="57"/>
      <point x="284.488" y="69"/>
    </contour>
  </outline>
</glyph>
<glyph name="b" format="2">
  <advance width="556"/>
  <unicode hex="0062"/>
  <outline>
    <contour>
      <point x="392.134" y="676" type="line"/>
      <point x="322.734" y="417" type="line"/>
      <point x="370.185" y="456"/>
      <point x="411.74" y="473"/>
      <point x="459.74" y="473" type="curve" smooth="yes"/>
      <point x="570.74" y="473"/>
      <point x="622.017" y="377"/>
      <point x="585.04" y="239" type="curve" smooth="yes"/>
      <point x="545.115" y="90"/>
      <point x="424.249" y="-14"/>
      <point x="291.249" y="-14" type="curve" smooth="yes"/>
      <point x="241.249" y="-14"/>
      <point x="209.536" y="2"/>
      <point x="174.521" y="43" type="curve"/>
      <point x="80.5166" y="-13" type="line"/>
      <point x="68.5166" y="-13" type="line"/>
      <point x="231.162" y="594" type="line" smooth="yes"/>
      <point x="241.88" y="634"/>
      <point x="235.291" y="643"/>
      <point x="191.703" y="652" type="curve"/>
      <point x="198.134" y="676" type="line"/>
    </contour>
    <contour>
      <point x="307.462" y="360" type="curve"/>
      <point x="236.991" y="97" type="line" smooth="yes"/>
      <point x="224.13" y="49"/>
      <point x="242.823" y="18"/>
      <point x="284.823" y="18" type="curve" smooth="yes"/>
      <point x="348.823" y="18"/>
      <point x="396.24" y="83"/>
      <point x="433.217" y="221" type="curve" smooth="yes"/>
      <point x="468.318" y="352"/>
      <point x="455.271" y="419"/>
      <point x="393.271" y="419" type="curve" smooth="yes"/>
      <point x="360.271" y="419"/>
      <point x="335.983" y="403"/>
    </contour>
  </outline>
</glyph>
<glyph name="d" format="2">
  <advance width="556"/>
  <unicode hex="0064"/>
  <outline>
    <contour>
      <point x="335.517" y="-13" type="curve"/>
      <point x="352.934" y="52" type="line"/>
      <point x="292.536" y="2"/>
      <point x="255.249" y="-14"/>
      <point x="202.249" y="-14" type="curve" smooth="yes"/>
      <point x="97.249" y="-14"/>
      <point x="47.7754" y="85"/>
      <point x="84.2168" y="221" type="curve" smooth="yes"/>
      <point x="123.069" y="366"/>
      <point x="233.74" y="473"/>
      <point x="343.74" y="473" type="curve" smooth="yes"/>
      <point x="389.74" y="473"/>
      <point x="415.453" y="457"/>
      <point x="446.127" y="411" type="curve"/>
      <point x="495.162" y="594" type="line" smooth="yes"/>
      <point x="507.487" y="640"/>
      <point x="500.363" y="647"/>
      <point x="434.703" y="652" type="curve"/>
      <point x="441.134" y="676" type="line"/>
      <point x="656.134" y="676" type="line"/>
      <point x="502.062" y="101" type="line" smooth="yes"/>
      <point x="490.809" y="59"/>
      <point x="500.325" y="46"/>
      <point x="545.521" y="43" type="curve"/>
      <point x="539.359" y="20" type="line"/>
      <point x="475.216" y="12" type="line" smooth="yes"/>
      <point x="411.34" y="5"/>
      <point x="385" y="0"/>
    </contour>
    <contour>
      <point x="366.011" y="112" type="curve" smooth="yes"/>
      <point x="431.122" y="355" type="line"/>
      <point x="427.304" y="393"/>
      <point x="402.734" y="417"/>
      <point x="369.734" y="417" type="curve" smooth="yes"/>
      <point x="311.734" y="417"/>
      <point x="268.926" y="358"/>
      <point x="234.36" y="229" type="curve" smooth="yes"/>
      <point x="200.331" y="102"/>
      <point x="209.254" y="42"/>
      <point x="262.254" y="42" type="curve" smooth="yes"/>
      <point x="284.254" y="42"/>
      <point x="308.201" y="53"/>
      <point x="334.364" y="76" type="curve" smooth="yes"/>
      <point x="349.848" y="89"/>
      <point x="364.402" y="106"/>
    </contour>
  </outline>
</glyph>
<glyph name="h" format="2">
  <advance width="556"/>
  <unicode hex="0068"/>
  <outline>
    <contour>
      <point x="389.134" y="676" type="line"/>
      <point x="313.84" y="395" type="line"/>
      <point x="381.381" y="453"/>
      <point x="423.74" y="473"/>
      <point x="476.74" y="473" type="curve" smooth="yes"/>
      <point x="558.74" y="473"/>
      <point x="597.003" y="418"/>
      <point x="573.959" y="332" type="curve" smooth="yes"/>
      <point x="507.508" y="84" type="line" smooth="yes"/>
      <point x="496.254" y="42"/>
      <point x="505.234" y="27"/>
      <point x="540.431" y="24" type="curve"/>
      <point x="534" y="0" type="line"/>
      <point x="299" y="0" type="line"/>
      <point x="305.431" y="24" type="line"/>
      <point x="340.503" y="28"/>
      <point x="357.79" y="44"/>
      <point x="367.704" y="81" type="curve" smooth="yes"/>
      <point x="432.548" y="323" type="line" smooth="yes"/>
      <point x="447.553" y="379"/>
      <point x="437.787" y="406"/>
      <point x="402.787" y="406" type="curve" smooth="yes"/>
      <point x="379.787" y="406"/>
      <point x="352.572" y="394"/>
      <point x="324.409" y="371" type="curve" smooth="yes"/>
      <point x="311.998" y="362"/>
      <point x="302.318" y="352"/>
      <point x="301.246" y="348" type="curve" smooth="yes"/>
      <point x="229.704" y="81" type="line" smooth="yes"/>
      <point x="219.79" y="44"/>
      <point x="227.771" y="29"/>
      <point x="263.431" y="24" type="curve"/>
      <point x="257" y="0" type="line"/>
      <point x="16" y="0" type="line"/>
      <point x="22.4307" y="24" type="line"/>
      <point x="69.8428" y="33"/>
      <point x="80.2539" y="42"/>
      <point x="91.5078" y="84" type="curve" smooth="yes"/>
      <point x="228.162" y="594" type="line" smooth="yes"/>
      <point x="239.147" y="635"/>
      <point x="234.291" y="643"/>
      <point x="190.703" y="652" type="curve"/>
      <point x="197.134" y="676" type="line"/>
    </contour>
  </outline>
</glyph>
<glyph name="l" format="2">
  <advance width="278"/>
  <unicode hex="006C"/>
  <outline>
    <contour>
      <point x="387.134" y="676" type="line"/>
      <point x="228.508" y="84" type="line" smooth="yes"/>
      <point x="217.79" y="44"/>
      <point x="228.699" y="25"/>
      <point x="261.431" y="24" type="curve"/>
      <point x="255" y="0" type="line"/>
      <point x="16" y="0" type="line"/>
      <point x="22.4307" y="24" type="line"/>
      <point x="57.2344" y="27"/>
      <point x="79.5938" y="47"/>
      <point x="89.5078" y="84" type="curve" smooth="yes"/>
      <point x="226.162" y="594" type="line" smooth="yes"/>
      <point x="236.076" y="631"/>
      <point x="224.899" y="649"/>
      <point x="190.703" y="652" type="curve"/>
      <point x="197.134" y="676" type="line"/>
    </contour>
  </outline>
</glyph>
<glyph name="m" format="2">
  <advance width="833"/>
  <unicode hex="006D"/>
  <outline>
    <contour>
      <point x="330.524" y="461" type="line"/>
      <point x="310.429" y="386" type="line"/>
      <point x="364.505" y="446"/>
      <point x="417.74" y="473"/>
      <point x="480.74" y="473" type="curve" smooth="yes"/>
      <point x="543.74" y="473"/>
      <point x="572.31" y="449"/>
      <point x="585.429" y="386" type="curve"/>
      <point x="654.577" y="450"/>
      <point x="698.74" y="473"/>
      <point x="755.74" y="473" type="curve" smooth="yes"/>
      <point x="837.74" y="473"/>
      <point x="876.003" y="418"/>
      <point x="852.959" y="332" type="curve" smooth="yes"/>
      <point x="785.704" y="81" type="line" smooth="yes"/>
      <point x="774.182" y="38"/>
      <point x="781.967" y="26"/>
      <point x="820.431" y="24" type="curve"/>
      <point x="814" y="0" type="line"/>
      <point x="576" y="0" type="line"/>
      <point x="582.431" y="24" type="line"/>
      <point x="621.234" y="27"/>
      <point x="635.45" y="39"/>
      <point x="646.704" y="81" type="curve" smooth="yes"/>
      <point x="711.548" y="323" type="line" smooth="yes"/>
      <point x="727.356" y="382"/>
      <point x="718.787" y="406"/>
      <point x="680.787" y="406" type="curve" smooth="yes"/>
      <point x="663.787" y="406"/>
      <point x="644.912" y="399"/>
      <point x="618.356" y="382" type="curve" smooth="yes"/>
      <point x="602.677" y="372"/>
      <point x="581.586" y="353"/>
      <point x="580.246" y="348" type="curve" smooth="yes"/>
      <point x="508.704" y="81" type="line" smooth="yes"/>
      <point x="498.521" y="43"/>
      <point x="506.503" y="28"/>
      <point x="540.431" y="24" type="curve"/>
      <point x="534" y="0" type="line"/>
      <point x="300" y="0" type="line"/>
      <point x="306.431" y="24" type="line"/>
      <point x="344.234" y="27"/>
      <point x="358.718" y="40"/>
      <point x="369.704" y="81" type="curve" smooth="yes"/>
      <point x="434.548" y="323" type="line" smooth="yes"/>
      <point x="450.625" y="383"/>
      <point x="441.787" y="406"/>
      <point x="402.787" y="406" type="curve" smooth="yes"/>
      <point x="385.787" y="406"/>
      <point x="366.912" y="399"/>
      <point x="341.625" y="383" type="curve" smooth="yes"/>
      <point x="325.945" y="373"/>
      <point x="304.854" y="354"/>
      <point x="303.246" y="348" type="curve" smooth="yes"/>
      <point x="231.704" y="81" type="line" smooth="yes"/>
      <point x="221.521" y="43"/>
      <point x="228.771" y="29"/>
      <point x="262.431" y="24" type="curve"/>
      <point x="256" y="0" type="line"/>
      <point x="16" y="0" type="line"/>
      <point x="22.4307" y="24" type="line"/>
      <point x="68.5742" y="32"/>
      <point x="82.5215" y="43"/>
      <point x="93.5078" y="84" type="curve" smooth="yes"/>
      <point x="172.285" y="378" type="line" smooth="yes"/>
      <point x="183.271" y="419"/>
      <point x="175.486" y="431"/>
      <point x="133.094" y="437" type="curve"/>
      <point x="139.524" y="461" type="line"/>
    </contour>
  </outline>
</glyph>
<glyph name="n" format="2">
  <advance width="556"/>
  <unicode hex="006E"/>
  <outline>
    <contour>
      <point x="335.524" y="461" type="line"/>
      <point x="315.429" y="386" type="line"/>
      <point x="368.237" y="445"/>
      <point x="421.74" y="473"/>
      <point x="481.74" y="473" type="curve" smooth="yes"/>
      <point x="563.74" y="473"/>
      <point x="602.003" y="418"/>
      <point x="578.959" y="332" type="curve" smooth="yes"/>
      <point x="511.704" y="81" type="line" smooth="yes"/>
      <point x="500.45" y="39"/>
      <point x="507.234" y="27"/>
      <point x="545.431" y="24" type="curve"/>
      <point x="539" y="0" type="line"/>
      <point x="304" y="0" type="line"/>
      <point x="310.431" y="24" type="line"/>
      <point x="345.503" y="28"/>
      <point x="362.79" y="44"/>
      <point x="372.704" y="81" type="curve" smooth="yes"/>
      <point x="437.548" y="323" type="line" smooth="yes"/>
      <point x="452.553" y="379"/>
      <point x="442.787" y="406"/>
      <point x="407.787" y="406" type="curve" smooth="yes"/>
      <point x="384.787" y="406"/>
      <point x="357.572" y="394"/>
      <point x="329.409" y="371" type="curve" smooth="yes"/>
      <point x="316.998" y="362"/>
      <point x="307.318" y="352"/>
      <point x="306.246" y="348" type="curve" smooth="yes"/>
      <point x="234.704" y="81" type="line" smooth="yes"/>
      <point x="224.79" y="44"/>
      <point x="232.771" y="29"/>
      <point x="268.431" y="24" type="curve"/>
      <point x="262" y="0" type="line"/>
      <point x="21" y="0" type="line"/>
      <point x="27.4307" y="24" type="line"/>
      <point x="74.8428" y="33"/>
      <point x="85.2539" y="42"/>
      <point x="96.5078" y="84" type="curve" smooth="yes"/>
      <point x="175.285" y="378" type="line" smooth="yes"/>
      <point x="186.539" y="420"/>
      <point x="180.218" y="430"/>
      <point x="138.094" y="437" type="curve"/>
      <point x="144.524" y="461" type="line"/>
    </contour>
  </outline>
</glyph>
<glyph name="o" format="2">
  <advance width="500"/>
  <unicode hex="006F"/>
  <outline>
    <contour>
      <point x="377.74" y="473" type="curve" smooth="yes"/>
      <point x="506.74" y="473"/>
      <point x="574.873" y="369"/>
      <point x="537.36" y="229" type="curve" smooth="yes"/>
      <point x="500.115" y="90"/>
      <point x="376.249" y="-14"/>
      <point x="247.249" y="-14" type="curve" smooth="yes"/>
      <point x="116.249" y="-14"/>
      <point x="48.8477" y="89"/>
      <point x="87.1641" y="232" type="curve" smooth="yes"/>
      <point x="123.605" y="368"/>
      <point x="250.74" y="473"/>
    </contour>
    <contour>
      <point x="370.434" y="442" type="curve" smooth="yes"/>
      <point x="308.434" y="442"/>
      <point x="276.5" y="390"/>
      <point x="229.341" y="214" type="curve" smooth="yes"/>
      <point x="190.221" y="68"/>
      <point x="196.555" y="17"/>
      <point x="255.555" y="17" type="curve" smooth="yes"/>
      <point x="313.555" y="17"/>
      <point x="347.488" y="69"/>
      <point x="388.753" y="223" type="curve" smooth="yes"/>
      <point x="432.696" y="387"/>
      <point x="428.434" y="442"/>
    </contour>
  </outline>
</glyph>
<glyph name="v" format="2">
  <advance width="500"/>
  <unicode hex="0076"/>
  <outline>
    <contour>
      <point x="608.524" y="461" type="line"/>
      <point x="602.094" y="437" type="line"/>
      <point x="570.29" y="434"/>
      <point x="560.146" y="426"/>
      <point x="529.356" y="382" type="curve" smooth="yes"/>
      <point x="263.249" y="-14" type="line"/>
      <point x="237.249" y="-14" type="line"/>
      <point x="196.562" y="282" type="line" smooth="yes"/>
      <point x="191.548" y="323"/>
      <point x="171.343" y="423"/>
      <point x="169.074" y="422" type="curve"/>
      <point x="165.486" y="431"/>
      <point x="160.29" y="434"/>
      <point x="138.094" y="437" type="curve"/>
      <point x="144.524" y="461" type="line"/>
      <point x="394.524" y="461" type="line"/>
      <point x="388.094" y="437" type="line"/>
      <point x="379.826" y="436"/>
      <point x="371.558" y="435"/>
      <point x="369.558" y="435" type="curve" smooth="yes"/>
      <point x="344.022" y="433"/>
      <point x="332.146" y="426"/>
      <point x="328.127" y="411" type="curve" smooth="yes"/>
      <point x="326.52" y="405"/>
      <point x="326.912" y="399"/>
      <point x="328.82" y="380" type="curve" smooth="yes"/>
      <point x="353.427" y="177" type="line"/>
      <point x="474.193" y="359" type="line" smooth="yes"/>
      <point x="486.017" y="377"/>
      <point x="494.304" y="393"/>
      <point x="497.252" y="404" type="curve" smooth="yes"/>
      <point x="503.683" y="428"/>
      <point x="493.558" y="435"/>
      <point x="451.094" y="437" type="curve"/>
      <point x="457.524" y="461" type="line"/>
    </contour>
  </outline>
</glyph>
<glyph name="y" format="2">
  <advance width="500"/>
  <unicode hex="0079"/>
  <outline>
    <contour>
      <point x="603.524" y="461" type="line"/>
      <point x="597.094" y="437" type="line"/>
      <point x="565.29" y="434"/>
      <point x="552.61" y="424"/>
      <point x="524.356" y="382" type="curve" smooth="yes"/>
      <point x="268.98" y="-15" type="line" smooth="yes"/>
      <point x="208.794" y="-109"/>
      <point x="178.075" y="-149"/>
      <point x="150.913" y="-172" type="curve" smooth="yes"/>
      <point x="124.286" y="-193"/>
      <point x="92.0703" y="-205"/>
      <point x="58.0703" y="-205" type="curve" smooth="yes"/>
      <point x="1.07031" y="-205"/>
      <point x="-30.0869" y="-172"/>
      <point x="-17.7617" y="-126" type="curve" smooth="yes"/>
      <point x="-7.5791" y="-88"/>
      <point x="26.3867" y="-62"/>
      <point x="63.3867" y="-62" type="curve" smooth="yes"/>
      <point x="97.3867" y="-62"/>
      <point x="116.028" y="-82"/>
      <point x="108.258" y="-111" type="curve" smooth="yes"/>
      <point x="107.186" y="-115"/>
      <point x="104.846" y="-120"/>
      <point x="102.506" y="-125" type="curve" smooth="yes"/>
      <point x="100.702" y="-128"/>
      <point x="100.167" y="-130"/>
      <point x="99.8984" y="-131" type="curve" smooth="yes"/>
      <point x="97.4873" y="-140"/>
      <point x="103.344" y="-148"/>
      <point x="112.344" y="-148" type="curve" smooth="yes"/>
      <point x="135.344" y="-148"/>
      <point x="169.918" y="-116"/>
      <point x="200.315" y="-66" type="curve" smooth="yes"/>
      <point x="232.517" y="-13" type="line"/>
      <point x="191.562" y="282" type="line" smooth="yes"/>
      <point x="185.815" y="324"/>
      <point x="167.074" y="422"/>
      <point x="164.074" y="422" type="curve"/>
      <point x="160.486" y="431"/>
      <point x="155.29" y="434"/>
      <point x="133.094" y="437" type="curve"/>
      <point x="139.524" y="461" type="line"/>
      <point x="389.524" y="461" type="line"/>
      <point x="383.094" y="437" type="line"/>
      <point x="366.826" y="436" type="line" smooth="yes"/>
      <point x="341.29" y="434"/>
      <point x="326.879" y="425"/>
      <point x="323.127" y="411" type="curve" smooth="yes"/>
      <point x="320.983" y="403"/>
      <point x="320.983" y="403"/>
      <point x="327.318" y="352" type="curve" smooth="yes"/>
      <point x="349.747" y="167" type="line"/>
      <point x="469.193" y="359" type="line" smooth="yes"/>
      <point x="484.893" y="384"/>
      <point x="489.304" y="393"/>
      <point x="492.252" y="404" type="curve" smooth="yes"/>
      <point x="498.683" y="428"/>
      <point x="488.558" y="435"/>
      <point x="446.094" y="437" type="curve"/>
      <point x="452.524" y="461" type="line"/>
    </contour>
  </outline>
</glyph>
<glyph name="asciitilde" format="2">
  <advance width="520"/>
  <unicode hex="007E"/>
  <outline>
    <contour>
      <point x="518.528" y="308" type="curve"/>
      <point x="560.667" y="260" type="line"/>
      <point x="498.786" y="197"/>
      <point x="460.891" y="175"/>
      <point x="414.891" y="175" type="curve" smooth="yes"/>
      <point x="381.891" y="175"/>
      <point x="358.035" y="183"/>
      <point x="318.733" y="208" type="curve" smooth="yes"/>
      <point x="279.433" y="233"/>
      <point x="251.111" y="243"/>
      <point x="216.111" y="243" type="curve" smooth="yes"/>
      <point x="187.111" y="243"/>
      <point x="167.433" y="233"/>
      <point x="135.857" y="201" type="curve"/>
      <point x="95.1836" y="247" type="line"/>
      <point x="144.992" y="306"/>
      <point x="187.691" y="331"/>
      <point x="241.691" y="331" type="curve" smooth="yes"/>
      <point x="274.691" y="331"/>
      <point x="298.548" y="323"/>
      <point x="364.438" y="289" type="curve" smooth="yes"/>
      <point x="405.078" y="269"/>
      <point x="421.471" y="263"/>
      <point x="438.471" y="263" type="curve" smooth="yes"/>
      <point x="461.471" y="263"/>
      <point x="484.954" y="276"/>
    </contour>
  </outline>
</glyph>
<glyph name="uni0592" format="2">
  <advance width="0"/>
  <unicode hex="0592"/>
  <outline>
    <contour>
      <point x="111.187" y="665" type="curve" smooth="yes"/>
      <point x="90.1865" y="665"/>
      <point x="78.7412" y="682"/>
      <point x="84.1006" y="702" type="curve" smooth="yes"/>
      <point x="89.7275" y="723"/>
      <point x="110.282" y="740"/>
      <point x="131.282" y="740" type="curve" smooth="yes"/>
      <point x="152.282" y="740"/>
      <point x="163.728" y="723"/>
      <point x="158.101" y="702" type="curve" smooth="yes"/>
      <point x="152.741" y="682"/>
      <point x="132.187" y="665"/>
    </contour>
    <contour>
      <point x="209" y="780" type="curve" smooth="yes"/>
      <point x="188" y="780"/>
      <point x="175.556" y="797"/>
      <point x="181.183" y="818" type="curve" smooth="yes"/>
      <point x="186.541" y="838"/>
      <point x="208.097" y="855"/>
      <point x="229.097" y="855" type="curve" smooth="yes"/>
      <point x="250.097" y="855"/>
      <point x="262.541" y="838"/>
      <point x="257.183" y="818" type="curve" smooth="yes"/>
      <point x="251.556" y="797"/>
      <point x="230" y="780"/>
    </contour>
    <contour>
      <point x="245.187" y="665" type="curve" smooth="yes"/>
      <point x="224.187" y="665"/>
      <point x="212.741" y="682"/>
      <point x="218.101" y="702" type="curve" smooth="yes"/>
      <point x="223.728" y="723"/>
      <point x="244.282" y="740"/>
      <point x="265.282" y="740" type="curve" smooth="yes"/>
      <point x="286.282" y="740"/>
      <point x="297.728" y="723"/>
      <point x="292.101" y="702" type="curve" smooth="yes"/>
      <point x="286.741" y="682"/>
      <point x="266.187" y="665"/>
    </contour>
  </outline>
</glyph>
<glyph name="uni0593" format="2">
  <advance width="0"/>
  <unicode hex="0593"/>
  <outline>
    <contour>
      <point x="152.598" y="674" type="curve" smooth="yes"/>
      <point x="124.832" y="701" type="line" smooth="yes"/>
      <point x="108.119" y="717"/>
      <point x="116.086" y="743"/>
      <point x="139.086" y="743" type="curve" smooth="yes"/>
      <point x="196.086" y="743" type="line"/>
      <point x="148.144" y="788" type="line" smooth="yes"/>
      <point x="131.432" y="804"/>
      <point x="137.254" y="822"/>
      <point x="160.254" y="822" type="curve" smooth="yes"/>
      <point x="220.254" y="822" type="line"/>
      <point x="169.116" y="870" type="line" smooth="yes"/>
      <point x="153.135" y="885"/>
      <point x="157.154" y="900"/>
      <point x="181.154" y="900" type="curve" smooth="yes"/>
      <point x="254.154" y="900" type="line" smooth="yes"/>
      <point x="268.154" y="900"/>
      <point x="276.082" y="896"/>
      <point x="280.011" y="892" type="curve" smooth="yes"/>
      <point x="291.063" y="881" type="line" smooth="yes"/>
      <point x="303.312" y="867"/>
      <point x="299.097" y="855"/>
      <point x="277.097" y="855" type="curve" smooth="yes"/>
      <point x="236.097" y="855" type="line"/>
      <point x="282.843" y="813" type="line" smooth="yes"/>
      <point x="297.092" y="799"/>
      <point x="293.805" y="783"/>
      <point x="270.805" y="783" type="curve" smooth="yes"/>
      <point x="209.805" y="783" type="line"/>
      <point x="261.675" y="734" type="line" smooth="yes"/>
      <point x="275.924" y="720"/>
      <point x="272.637" y="704"/>
      <point x="249.637" y="704" type="curve" smooth="yes"/>
      <point x="188.637" y="704" type="line"/>
      <point x="203.885" y="690" type="line" smooth="yes"/>
      <point x="216.67" y="678"/>
      <point x="215.187" y="665"/>
      <point x="192.187" y="665" type="curve" smooth="yes"/>
      <point x="180.187" y="665" type="line" smooth="yes"/>
      <point x="165.187" y="665"/>
      <point x="160.722" y="667"/>
    </contour>
  </outline>
</glyph>
<glyph name="uni0597" format="2">
  <advance width="0"/>
  <unicode hex="0597"/>
  <outline>
    <contour>
      <point x="136.746" y="738" type="curve" smooth="yes"/>
      <point x="126.354" y="744"/>
      <point x="132.249" y="766"/>
      <point x="145.856" y="772" type="curve" smooth="yes"/>
      <point x="170.805" y="783"/>
      <point x="194.699" y="805"/>
      <point x="210.47" y="834" type="curve" smooth="yes"/>
      <point x="218.221" y="848"/>
      <point x="235.489" y="849"/>
      <point x="236.202" y="833" type="curve" smooth="yes"/>
      <point x="236.699" y="805"/>
      <point x="248.536" y="782"/>
      <point x="267.856" y="772" type="curve" smooth="yes"/>
      <point x="278.249" y="766"/>
      <point x="272.354" y="744"/>
      <point x="258.746" y="738" type="curve" smooth="yes"/>
      <point x="233.799" y="727"/>
      <point x="209.904" y="705"/>
      <point x="194.134" y="676" type="curve" smooth="yes"/>
      <point x="186.383" y="662"/>
      <point x="168.114" y="661"/>
      <point x="168.134" y="676" type="curve" smooth="yes"/>
      <point x="167.904" y="705"/>
      <point x="155.799" y="727"/>
    </contour>
  </outline>
</glyph>
<glyph name="uni0599" format="2">
  <advance width="0"/>
  <unicode hex="0599"/>
  <outline>
    <contour>
      <point x="221.401" y="677" type="curve" smooth="yes"/>
      <point x="231.125" y="773"/>
      <point x="213.432" y="804"/>
      <point x="167.666" y="831" type="curve" smooth="yes"/>
      <point x="160.737" y="835"/>
      <point x="158.417" y="845"/>
      <point x="161.097" y="855" type="curve" smooth="yes"/>
      <point x="165.651" y="872"/>
      <point x="182.135" y="885"/>
      <point x="199.135" y="885" type="curve" smooth="yes"/>
      <point x="205.135" y="885"/>
      <point x="210.6" y="883"/>
      <point x="214.527" y="879" type="curve" smooth="yes"/>
      <point x="261.273" y="837"/>
      <point x="268.569" y="756"/>
      <point x="249.938" y="679" type="curve" smooth="yes"/>
      <point x="247.794" y="671"/>
      <point x="240.187" y="665"/>
      <point x="232.187" y="665" type="curve" smooth="yes"/>
      <point x="225.187" y="665"/>
      <point x="220.526" y="670"/>
    </contour>
  </outline>
</glyph>
<glyph name="uni059B" format="2">
  <advance width="0"/>
  <unicode hex="059B"/>
  <outline>
    <contour>
      <point x="-68.4355" y="-80" type="curve" smooth="yes"/>
      <point x="-47.4355" y="-80"/>
      <point x="-35.9912" y="-97"/>
      <point x="-41.6182" y="-118" type="curve" smooth="yes"/>
      <point x="-46.9766" y="-138"/>
      <point x="-67.5322" y="-155"/>
      <point x="-88.5322" y="-155" type="curve" smooth="yes"/>
      <point x="-109.532" y="-155"/>
      <point x="-121.977" y="-138"/>
      <point x="-116.618" y="-118" type="curve" smooth="yes"/>
      <point x="-110.991" y="-97"/>
      <point x="-89.4355" y="-80"/>
    </contour>
    <contour>
      <point x="40.7266" y="-57" type="curve" smooth="yes"/>
      <point x="43.6025" y="-50"/>
      <point x="50.9424" y="-45"/>
      <point x="57.9424" y="-45" type="curve" smooth="yes"/>
      <point x="65.9424" y="-45"/>
      <point x="71.335" y="-51"/>
      <point x="69.1914" y="-59" type="curve" smooth="yes"/>
      <point x="45.5586" y="-136"/>
      <point x="-4.14453" y="-217"/>
      <point x="-73.3984" y="-259" type="curve" smooth="yes"/>
      <point x="-79.4707" y="-263"/>
      <point x="-86.0068" y="-265"/>
      <point x="-93.0068" y="-265" type="curve" smooth="yes"/>
      <point x="-109.007" y="-265"/>
      <point x="-119.523" y="-252"/>
      <point x="-114.968" y="-235" type="curve" smooth="yes"/>
      <point x="-112.288" y="-225"/>
      <point x="-103.609" y="-215"/>
      <point x="-94.5371" y="-211" type="curve" smooth="yes"/>
      <point x="-34.3027" y="-184"/>
      <point x="0.00390625" y="-153"/>
    </contour>
  </outline>
</glyph>
<glyph name="uni059D" format="2">
  <advance width="0"/>
  <unicode hex="059D"/>
  <outline>
    <contour>
      <point x="141.401" y="677" type="curve" smooth="yes"/>
      <point x="138.526" y="670"/>
      <point x="131.187" y="665"/>
      <point x="124.187" y="665" type="curve" smooth="yes"/>
      <point x="116.187" y="665"/>
      <point x="111.794" y="671"/>
      <point x="113.938" y="679" type="curve" smooth="yes"/>
      <point x="136.569" y="756"/>
      <point x="187.273" y="837"/>
      <point x="256.527" y="879" type="curve" smooth="yes"/>
      <point x="262.6" y="883"/>
      <point x="269.135" y="885"/>
      <point x="275.135" y="885" type="curve" smooth="yes"/>
      <point x="292.135" y="885"/>
      <point x="301.651" y="872"/>
      <point x="297.097" y="855" type="curve" smooth="yes"/>
      <point x="294.417" y="845"/>
      <point x="286.737" y="835"/>
      <point x="277.666" y="831" type="curve" smooth="yes"/>
      <point x="217.432" y="804"/>
      <point x="183.125" y="773"/>
    </contour>
  </outline>
</glyph>
<glyph name="uni059F" format="2">
  <advance width="0"/>
  <unicode hex="059F"/>
  <outline>
    <contour>
      <point x="336.346" y="841" type="curve" smooth="yes"/>
      <point x="308.666" y="831"/>
      <point x="287.163" y="803"/>
      <point x="290.465" y="778" type="curve" smooth="yes"/>
      <point x="292.766" y="753"/>
      <point x="317.282" y="740"/>
      <point x="344.694" y="749" type="curve" smooth="yes"/>
      <point x="372.105" y="758"/>
      <point x="392.608" y="786"/>
      <point x="390.307" y="811" type="curve" smooth="yes"/>
      <point x="388.273" y="837"/>
      <point x="363.757" y="850"/>
    </contour>
    <contour>
      <point x="257.479" y="737" type="line" smooth="yes"/>
      <point x="263.354" y="744"/>
      <point x="263.426" y="748"/>
      <point x="259.838" y="757" type="curve" smooth="yes"/>
      <point x="244.896" y="802"/>
      <point x="280.973" y="862"/>
      <point x="336.063" y="881" type="curve" smooth="yes"/>
      <point x="384.351" y="897"/>
      <point x="427.188" y="874"/>
      <point x="431.397" y="830" type="curve" smooth="yes"/>
      <point x="435.608" y="786"/>
      <point x="399.479" y="737"/>
      <point x="351.191" y="721" type="curve" smooth="yes"/>
      <point x="333.584" y="715"/>
      <point x="316.584" y="715"/>
      <point x="302.655" y="719" type="curve" smooth="yes"/>
      <point x="294.924" y="720"/>
      <point x="290.388" y="718"/>
      <point x="287.048" y="713" type="curve" smooth="yes"/>
      <point x="263.598" y="674" type="line" smooth="yes"/>
      <point x="258.454" y="666"/>
      <point x="252.918" y="664"/>
      <point x="245.722" y="667" type="curve" smooth="yes"/>
      <point x="219.401" y="677" type="line" smooth="yes"/>
      <point x="212.205" y="680"/>
      <point x="212.813" y="686"/>
      <point x="218.688" y="693" type="curve" smooth="yes"/>
    </contour>
    <contour>
      <point x="114.346" y="841" type="curve" smooth="yes"/>
      <point x="91.7568" y="850"/>
      <point x="60.2734" y="837"/>
      <point x="44.3066" y="811" type="curve" smooth="yes"/>
      <point x="28.6084" y="786"/>
      <point x="34.1055" y="758"/>
      <point x="56.6943" y="749" type="curve" smooth="yes"/>
      <point x="79.2822" y="740"/>
      <point x="110.766" y="753"/>
      <point x="126.465" y="778" type="curve" smooth="yes"/>
      <point x="143.163" y="803"/>
      <point x="136.666" y="831"/>
    </contour>
    <contour>
      <point x="137.479" y="737" type="curve" smooth="yes"/>
      <point x="152.688" y="693" type="line" smooth="yes"/>
      <point x="154.813" y="686"/>
      <point x="152.205" y="680"/>
      <point x="143.401" y="677" type="curve" smooth="yes"/>
      <point x="111.722" y="667" type="line" smooth="yes"/>
      <point x="102.918" y="664"/>
      <point x="98.4541" y="666"/>
      <point x="97.5977" y="674" type="curve" smooth="yes"/>
      <point x="95.0479" y="713" type="line" smooth="yes"/>
      <point x="94.3877" y="718"/>
      <point x="90.9238" y="720"/>
      <point x="82.6553" y="719" type="curve" smooth="yes"/>
      <point x="66.584" y="715"/>
      <point x="49.584" y="715"/>
      <point x="35.1914" y="721" type="curve" smooth="yes"/>
      <point x="-4.52148" y="737"/>
      <point x="-14.3916" y="786"/>
      <point x="13.3975" y="830" type="curve" smooth="yes"/>
      <point x="41.1875" y="874"/>
      <point x="96.3506" y="897"/>
      <point x="136.063" y="881" type="curve" smooth="yes"/>
      <point x="180.973" y="862"/>
      <point x="184.896" y="802"/>
      <point x="145.838" y="757" type="curve" smooth="yes"/>
      <point x="137.426" y="748"/>
      <point x="135.354" y="744"/>
    </contour>
  </outline>
</glyph>
<glyph name="uni05A1" format="2">
  <advance width="0"/>
  <unicode hex="05A1"/>
  <outline>
    <contour>
      <point x="168.302" y="755" type="line"/>
      <point x="187.302" y="755" type="line" smooth="yes"/>
      <point x="223.302" y="755"/>
      <point x="240.321" y="770"/>
      <point x="248.896" y="802" type="curve" smooth="yes"/>
      <point x="258.541" y="838" type="line" smooth="yes"/>
      <point x="260.685" y="846"/>
      <point x="268.293" y="852"/>
      <point x="277.293" y="852" type="curve" smooth="yes"/>
      <point x="302.293" y="852" type="line" smooth="yes"/>
      <point x="310.293" y="852"/>
      <point x="315.685" y="846"/>
      <point x="313.541" y="838" type="curve" smooth="yes"/>
      <point x="300.948" y="791" type="line" smooth="yes"/>
      <point x="289.694" y="749"/>
      <point x="264.603" y="730"/>
      <point x="220.603" y="730" type="curve" smooth="yes"/>
      <point x="161.603" y="730" type="line"/>
      <point x="148.741" y="682" type="line" smooth="yes"/>
      <point x="146.598" y="674"/>
      <point x="138.99" y="668"/>
      <point x="129.99" y="668" type="curve" smooth="yes"/>
      <point x="104.99" y="668" type="line" smooth="yes"/>
      <point x="96.9902" y="668"/>
      <point x="91.5977" y="674"/>
      <point x="93.7412" y="682" type="curve" smooth="yes"/>
      <point x="135.541" y="838" type="line" smooth="yes"/>
      <point x="137.685" y="846"/>
      <point x="146.293" y="852"/>
      <point x="154.293" y="852" type="curve" smooth="yes"/>
      <point x="179.293" y="852" type="line" smooth="yes"/>
      <point x="188.293" y="852"/>
      <point x="192.685" y="846"/>
      <point x="190.541" y="838" type="curve" smooth="yes"/>
    </contour>
  </outline>
</glyph>
<glyph name="uni05A3" format="2">
  <advance width="0"/>
  <unicode hex="05A3"/>
  <outline>
    <contour>
      <point x="35.7881" y="-165" type="line"/>
      <point x="63.9229" y="-60" type="line" smooth="yes"/>
      <point x="66.0664" y="-52"/>
      <point x="74.9424" y="-45"/>
      <point x="82.9424" y="-45" type="curve" smooth="yes"/>
      <point x="87.9424" y="-45" type="line" smooth="yes"/>
      <point x="95.9424" y="-45"/>
      <point x="101.066" y="-52"/>
      <point x="98.9229" y="-60" type="curve" smooth="yes"/>
      <point x="60.0703" y="-205" type="line" smooth="yes"/>
      <point x="57.9268" y="-213"/>
      <point x="49.0508" y="-220"/>
      <point x="41.0508" y="-220" type="curve" smooth="yes"/>
      <point x="-158.949" y="-220" type="line" smooth="yes"/>
      <point x="-166.949" y="-220"/>
      <point x="-172.073" y="-213"/>
      <point x="-169.93" y="-205" type="curve" smooth="yes"/>
      <point x="-163.23" y="-180" type="line" smooth="yes"/>
      <point x="-161.087" y="-172"/>
      <point x="-152.212" y="-165"/>
      <point x="-144.212" y="-165" type="curve" smooth="yes"/>
    </contour>
  </outline>
</glyph>
<glyph name="uni05A7" format="2">
  <advance width="0"/>
  <unicode hex="05A7"/>
  <outline>
    <contour>
      <point x="9.67773" y="-199" type="line" smooth="yes"/>
      <point x="16.7305" y="-210"/>
      <point x="20.3906" y="-215"/>
      <point x="15.8359" y="-232" type="curve" smooth="yes"/>
      <point x="11.8164" y="-247" type="line" smooth="yes"/>
      <point x="9.40527" y="-256"/>
      <point x="1.26172" y="-264"/>
      <point x="-5.73828" y="-264" type="curve" smooth="yes"/>
      <point x="-135.738" y="-264" type="line" smooth="yes"/>
      <point x="-142.738" y="-264"/>
      <point x="-146.595" y="-256"/>
      <point x="-144.184" y="-247" type="curve" smooth="yes"/>
      <point x="-139.628" y="-230" type="line" smooth="yes"/>
      <point x="-137.217" y="-221"/>
      <point x="-129.341" y="-214"/>
      <point x="-122.341" y="-214" type="curve" smooth="yes"/>
      <point x="-25.3408" y="-214" type="line"/>
      <point x="-93.4219" y="-121" type="line" smooth="yes"/>
      <point x="-102.206" y="-109"/>
      <point x="-105.599" y="-103"/>
      <point x="-101.312" y="-87" type="curve" smooth="yes"/>
      <point x="-97.292" y="-72" type="line" smooth="yes"/>
      <point x="-94.6133" y="-62"/>
      <point x="-86.7373" y="-55"/>
      <point x="-79.7373" y="-55" type="curve" smooth="yes"/>
      <point x="50.2627" y="-55" type="line" smooth="yes"/>
      <point x="57.2627" y="-55"/>
      <point x="61.3867" y="-62"/>
      <point x="58.708" y="-72" type="curve" smooth="yes"/>
      <point x="54.4209" y="-88" type="line" smooth="yes"/>
      <point x="51.7412" y="-98"/>
      <point x="43.8652" y="-105"/>
      <point x="36.8652" y="-105" type="curve" smooth="yes"/>
      <point x="-59.1348" y="-105" type="line"/>
    </contour>
  </outline>
</glyph>
<glyph name="uni05AA" format="2">
  <advance width="0"/>
  <unicode hex="05AA"/>
  <outline>
    <contour>
      <point x="-71.9434" y="-164" type="line"/>
      <point x="-102.872" y="-160"/>
      <point x="-128.441" y="-136"/>
      <point x="-120.135" y="-105" type="curve" smooth="yes"/>
      <point x="-108.077" y="-60" type="line" smooth="yes"/>
      <point x="-105.934" y="-52"/>
      <point x="-98.0576" y="-45"/>
      <point x="-90.0576" y="-45" type="curve" smooth="yes"/>
      <point x="-64.0576" y="-45" type="line" smooth="yes"/>
      <point x="-56.0576" y="-45"/>
      <point x="-51.9336" y="-52"/>
      <point x="-54.0771" y="-60" type="curve" smooth="yes"/>
      <point x="-65.3311" y="-102" type="line" smooth="yes"/>
      <point x="-70.958" y="-123"/>
      <point x="-58.5127" y="-140"/>
      <point x="-37.5127" y="-140" type="curve" smooth="yes"/>
      <point x="-16.5127" y="-140"/>
      <point x="5.04199" y="-123"/>
      <point x="10.6689" y="-102" type="curve" smooth="yes"/>
      <point x="21.9229" y="-60" type="line" smooth="yes"/>
      <point x="24.0664" y="-52"/>
      <point x="31.9424" y="-45"/>
      <point x="39.9424" y="-45" type="curve" smooth="yes"/>
      <point x="65.9424" y="-45" type="line" smooth="yes"/>
      <point x="73.9424" y="-45"/>
      <point x="78.0664" y="-52"/>
      <point x="75.9229" y="-60" type="curve" smooth="yes"/>
      <point x="63.8652" y="-105" type="line" smooth="yes"/>
      <point x="55.291" y="-137"/>
      <point x="13.3965" y="-159"/>
      <point x="-15.9434" y="-164" type="curve"/>
      <point x="-30.9492" y="-220" type="line" smooth="yes"/>
      <point x="-33.0928" y="-228"/>
      <point x="-41.9678" y="-235"/>
      <point x="-50.9678" y="-235" type="curve" smooth="yes"/>
      <point x="-74.9678" y="-235" type="line" smooth="yes"/>
      <point x="-83.9678" y="-235"/>
      <point x="-89.0928" y="-228"/>
      <point x="-86.9492" y="-220" type="curve" smooth="yes"/>
    </contour>
  </outline>
</glyph>
<glyph name="uni05AB" format="2">
  <advance width="0"/>
  <unicode hex="05AB"/>
  <outline>
    <contour>
      <point x="310.881" y="843" type="line"/>
      <point x="312.881" y="843"/>
      <point x="315.149" y="844"/>
      <point x="317.149" y="844" type="curve" smooth="yes"/>
      <point x="327.149" y="844"/>
      <point x="333.006" y="836"/>
      <point x="330.326" y="826" type="curve" smooth="yes"/>
      <point x="328.45" y="819"/>
      <point x="321.843" y="813"/>
      <point x="315.039" y="810" type="curve" smooth="yes"/>
      <point x="192.713" y="764" type="line"/>
      <point x="287.924" y="720" type="line" smooth="yes"/>
      <point x="296.852" y="716"/>
      <point x="299.244" y="710"/>
      <point x="296.297" y="699" type="curve" smooth="yes"/>
      <point x="289.598" y="674" type="line" smooth="yes"/>
      <point x="287.187" y="665"/>
      <point x="280.383" y="662"/>
      <point x="273.187" y="665" type="curve" smooth="yes"/>
      <point x="100.89" y="746" type="line" smooth="yes"/>
      <point x="89.2295" y="751"/>
      <point x="91.9092" y="761"/>
      <point x="106.249" y="766" type="curve" smooth="yes"/>
    </contour>
  </outline>
</glyph>
<glyph name="uni05AC" format="2">
  <advance width="0"/>
  <unicode hex="05AC"/>
  <outline>
    <contour>
      <point x="272.924" y="720" type="line"/>
      <point x="301.058" y="825" type="line" smooth="yes"/>
      <point x="303.202" y="833"/>
      <point x="312.077" y="840"/>
      <point x="320.077" y="840" type="curve" smooth="yes"/>
      <point x="325.077" y="840" type="line" smooth="yes"/>
      <point x="333.077" y="840"/>
      <point x="338.202" y="833"/>
      <point x="336.058" y="825" type="curve" smooth="yes"/>
      <point x="297.205" y="680" type="line" smooth="yes"/>
      <point x="295.062" y="672"/>
      <point x="286.187" y="665"/>
      <point x="278.187" y="665" type="curve" smooth="yes"/>
      <point x="78.1865" y="665" type="line" smooth="yes"/>
      <point x="70.1865" y="665"/>
      <point x="65.0615" y="672"/>
      <point x="67.2051" y="680" type="curve" smooth="yes"/>
      <point x="73.9043" y="705" type="line" smooth="yes"/>
      <point x="76.0479" y="713"/>
      <point x="84.9238" y="720"/>
      <point x="92.9238" y="720" type="curve" smooth="yes"/>
    </contour>
  </outline>
</glyph>
<glyph name="uni05AF" format="2">
  <advance width="0"/>
  <unicode hex="05AF"/>
  <outline>
    <contour>
      <point x="215.163" y="803" type="curve" smooth="yes"/>
      <point x="188.163" y="803"/>
      <point x="160.269" y="781"/>
      <point x="153.033" y="754" type="curve" smooth="yes"/>
      <point x="145.799" y="727"/>
      <point x="161.904" y="705"/>
      <point x="188.904" y="705" type="curve" smooth="yes"/>
      <point x="215.904" y="705"/>
      <point x="243.799" y="727"/>
      <point x="251.033" y="754" type="curve" smooth="yes"/>
      <point x="258.269" y="781"/>
      <point x="242.163" y="803"/>
    </contour>
    <contour>
      <point x="225.881" y="843" type="curve" smooth="yes"/>
      <point x="274.881" y="843"/>
      <point x="304.163" y="803"/>
      <point x="291.033" y="754" type="curve" smooth="yes"/>
      <point x="277.904" y="705"/>
      <point x="227.187" y="665"/>
      <point x="178.187" y="665" type="curve" smooth="yes"/>
      <point x="129.187" y="665"/>
      <point x="99.9043" y="705"/>
      <point x="113.033" y="754" type="curve" smooth="yes"/>
      <point x="126.163" y="803"/>
      <point x="176.881" y="843"/>
    </contour>
  </outline>
</glyph>
<glyph name="afii57800" format="2">
  <advance width="0"/>
  <unicode hex="05B2"/>
  <outline>
    <contour>
      <point x="-188.757" y="-70" type="line" smooth="yes"/>
      <point x="-186.613" y="-62"/>
      <point x="-178.737" y="-55"/>
      <point x="-169.737" y="-55" type="curve" smooth="yes"/>
      <point x="8.2627" y="-55" type="line" smooth="yes"/>
      <point x="17.2627" y="-55"/>
      <point x="21.3867" y="-62"/>
      <point x="19.2432" y="-70" type="curve" smooth="yes"/>
      <point x="12.5449" y="-95" type="line" smooth="yes"/>
      <point x="10.4014" y="-103"/>
      <point x="2.52539" y="-110"/>
      <point x="-6.47461" y="-110" type="curve" smooth="yes"/>
      <point x="-184.475" y="-110" type="line" smooth="yes"/>
      <point x="-193.475" y="-110"/>
      <point x="-197.599" y="-103"/>
      <point x="-195.455" y="-95" type="curve" smooth="yes"/>
    </contour>
    <contour>
      <point x="88.1279" y="-160" type="curve" smooth="yes"/>
      <point x="109.128" y="-160"/>
      <point x="120.573" y="-177"/>
      <point x="114.946" y="-198" type="curve" smooth="yes"/>
      <point x="109.587" y="-218"/>
      <point x="89.0322" y="-235"/>
      <point x="68.0322" y="-235" type="curve" smooth="yes"/>
      <point x="47.0322" y="-235"/>
      <point x="34.5869" y="-218"/>
      <point x="39.9463" y="-198" type="curve" smooth="yes"/>
      <point x="45.5732" y="-177"/>
      <point x="67.1279" y="-160"/>
    </contour>
    <contour>
      <point x="118.942" y="-45" type="curve" smooth="yes"/>
      <point x="139.942" y="-45"/>
      <point x="151.387" y="-62"/>
      <point x="146.028" y="-82" type="curve" smooth="yes"/>
      <point x="140.401" y="-103"/>
      <point x="119.846" y="-120"/>
      <point x="98.8457" y="-120" type="curve" smooth="yes"/>
      <point x="77.8457" y="-120"/>
      <point x="65.4014" y="-103"/>
      <point x="71.0283" y="-82" type="curve" smooth="yes"/>
      <point x="76.3867" y="-62"/>
      <point x="97.9424" y="-45"/>
    </contour>
  </outline>
</glyph>
<glyph name="afii57802" format="2">
  <advance width="0"/>
  <unicode hex="05B3"/>
  <outline>
    <contour>
      <point x="-151.475" y="-110" type="curve" smooth="yes"/>
      <point x="-184.475" y="-110" type="line" smooth="yes"/>
      <point x="-193.475" y="-110"/>
      <point x="-197.599" y="-103"/>
      <point x="-195.455" y="-95" type="curve" smooth="yes"/>
      <point x="-188.757" y="-70" type="line" smooth="yes"/>
      <point x="-186.613" y="-62"/>
      <point x="-178.737" y="-55"/>
      <point x="-169.737" y="-55" type="curve" smooth="yes"/>
      <point x="8.2627" y="-55" type="line" smooth="yes"/>
      <point x="17.2627" y="-55"/>
      <point x="21.3867" y="-62"/>
      <point x="19.2432" y="-70" type="curve" smooth="yes"/>
      <point x="12.5449" y="-95" type="line" smooth="yes"/>
      <point x="10.4014" y="-103"/>
      <point x="2.52539" y="-110"/>
      <point x="-6.47461" y="-110" type="curve" smooth="yes"/>
      <point x="-39.4746" y="-110" type="line" smooth="yes"/>
      <point x="-67.4746" y="-110"/>
      <point x="-79.3496" y="-117"/>
      <point x="-84.9766" y="-138" type="curve" smooth="yes"/>
      <point x="-87.3887" y="-147"/>
      <point x="-91.8721" y="-160"/>
      <point x="-84.3555" y="-173" type="curve" smooth="yes"/>
      <point x="-79.9629" y="-179"/>
      <point x="-79.374" y="-188"/>
      <point x="-82.0537" y="-198" type="curve" smooth="yes"/>
      <point x="-87.4131" y="-218"/>
      <point x="-107.968" y="-235"/>
      <point x="-128.968" y="-235" type="curve" smooth="yes"/>
      <point x="-149.968" y="-235"/>
      <point x="-162.413" y="-218"/>
      <point x="-157.054" y="-198" type="curve" smooth="yes"/>
      <point x="-154.374" y="-188"/>
      <point x="-147.963" y="-179"/>
      <point x="-140.087" y="-172" type="curve" smooth="yes"/>
      <point x="-125.872" y="-160"/>
      <point x="-124.389" y="-147"/>
      <point x="-121.977" y="-138" type="curve" smooth="yes"/>
      <point x="-116.35" y="-117"/>
      <point x="-125.475" y="-110"/>
    </contour>
    <contour>
      <point x="88.1279" y="-160" type="curve" smooth="yes"/>
      <point x="109.128" y="-160"/>
      <point x="120.573" y="-177"/>
      <point x="114.946" y="-198" type="curve" smooth="yes"/>
      <point x="109.587" y="-218"/>
      <point x="89.0322" y="-235"/>
      <point x="68.0322" y="-235" type="curve" smooth="yes"/>
      <point x="47.0322" y="-235"/>
      <point x="34.5869" y="-218"/>
      <point x="39.9463" y="-198" type="curve" smooth="yes"/>
      <point x="45.5732" y="-177"/>
      <point x="67.1279" y="-160"/>
    </contour>
    <contour>
      <point x="118.942" y="-45" type="curve" smooth="yes"/>
      <point x="139.942" y="-45"/>
      <point x="151.387" y="-62"/>
      <point x="146.028" y="-82" type="curve" smooth="yes"/>
      <point x="140.401" y="-103"/>
      <point x="119.846" y="-120"/>
      <point x="98.8457" y="-120" type="curve" smooth="yes"/>
      <point x="77.8457" y="-120"/>
      <point x="65.4014" y="-103"/>
      <point x="71.0283" y="-82" type="curve" smooth="yes"/>
      <point x="76.3867" y="-62"/>
      <point x="97.9424" y="-45"/>
    </contour>
  </outline>
</glyph>
<glyph name="afii57794" format="2">
  <advance width="0"/>
  <unicode hex="05B5"/>
  <outline>
    <contour>
      <point x="-1.97168" y="-82" type="curve" smooth="yes"/>
      <point x="3.38672" y="-62"/>
      <point x="24.9424" y="-45"/>
      <point x="45.9424" y="-45" type="curve" smooth="yes"/>
      <point x="65.9424" y="-45"/>
      <point x="78.3867" y="-62"/>
      <point x="73.0283" y="-82" type="curve" smooth="yes"/>
      <point x="67.4014" y="-103"/>
      <point x="45.8457" y="-120"/>
      <point x="25.8457" y="-120" type="curve" smooth="yes"/>
      <point x="4.8457" y="-120"/>
      <point x="-7.59863" y="-103"/>
    </contour>
    <contour>
      <point x="-116.972" y="-82" type="curve" smooth="yes"/>
      <point x="-111.613" y="-62"/>
      <point x="-90.0576" y="-45"/>
      <point x="-70.0576" y="-45" type="curve" smooth="yes"/>
      <point x="-49.0576" y="-45"/>
      <point x="-36.6133" y="-62"/>
      <point x="-41.9717" y="-82" type="curve" smooth="yes"/>
      <point x="-47.5986" y="-103"/>
      <point x="-69.1543" y="-120"/>
      <point x="-90.1543" y="-120" type="curve" smooth="yes"/>
      <point x="-110.154" y="-120"/>
      <point x="-122.599" y="-103"/>
    </contour>
  </outline>
</glyph>
<glyph name="afii57795" format="2">
  <advance width="0"/>
  <unicode hex="05B6"/>
  <outline>
    <contour>
      <point x="-79.0576" y="-45" type="curve" smooth="yes"/>
      <point x="-58.0576" y="-45"/>
      <point x="-46.6133" y="-62"/>
      <point x="-51.9717" y="-82" type="curve" smooth="yes"/>
      <point x="-57.5986" y="-103"/>
      <point x="-78.1543" y="-120"/>
      <point x="-99.1543" y="-120" type="curve" smooth="yes"/>
      <point x="-120.154" y="-120"/>
      <point x="-131.599" y="-103"/>
      <point x="-125.972" y="-82" type="curve" smooth="yes"/>
      <point x="-120.613" y="-62"/>
      <point x="-100.058" y="-45"/>
    </contour>
    <contour>
      <point x="-42.8721" y="-160" type="curve" smooth="yes"/>
      <point x="-21.8721" y="-160"/>
      <point x="-9.42676" y="-177"/>
      <point x="-15.0537" y="-198" type="curve" smooth="yes"/>
      <point x="-20.4131" y="-218"/>
      <point x="-41.9678" y="-235"/>
      <point x="-62.9678" y="-235" type="curve" smooth="yes"/>
      <point x="-83.9678" y="-235"/>
      <point x="-96.4131" y="-218"/>
      <point x="-91.0537" y="-198" type="curve" smooth="yes"/>
      <point x="-85.4268" y="-177"/>
      <point x="-63.8721" y="-160"/>
    </contour>
    <contour>
      <point x="54.9424" y="-45" type="curve" smooth="yes"/>
      <point x="75.9424" y="-45"/>
      <point x="87.3867" y="-62"/>
      <point x="82.0283" y="-82" type="curve" smooth="yes"/>
      <point x="76.4014" y="-103"/>
      <point x="55.8457" y="-120"/>
      <point x="34.8457" y="-120" type="curve" smooth="yes"/>
      <point x="13.8457" y="-120"/>
      <point x="2.40137" y="-103"/>
      <point x="8.02832" y="-82" type="curve" smooth="yes"/>
      <point x="13.3867" y="-62"/>
      <point x="33.9424" y="-45"/>
    </contour>
  </outline>
</glyph>
<glyph name="afii57798" format="2">
  <advance width="0"/>
  <unicode hex="05B7"/>
  <outline>
    <contour>
      <point x="-133.757" y="-70" type="line" smooth="yes"/>
      <point x="-131.613" y="-62"/>
      <point x="-122.737" y="-55"/>
      <point x="-114.737" y="-55" type="curve" smooth="yes"/>
      <point x="85.2627" y="-55" type="line" smooth="yes"/>
      <point x="93.2627" y="-55"/>
      <point x="98.3867" y="-62"/>
      <point x="96.2432" y="-70" type="curve" smooth="yes"/>
      <point x="89.5449" y="-95" type="line" smooth="yes"/>
      <point x="87.4014" y="-103"/>
      <point x="78.5254" y="-110"/>
      <point x="70.5254" y="-110" type="curve" smooth="yes"/>
      <point x="-129.475" y="-110" type="line" smooth="yes"/>
      <point x="-137.475" y="-110"/>
      <point x="-142.599" y="-103"/>
      <point x="-140.455" y="-95" type="curve" smooth="yes"/>
    </contour>
  </outline>
</glyph>
<glyph name="afii57807" format="2">
  <advance width="0"/>
  <unicode hex="05BC"/>
  <outline>
    <contour>
      <point x="90.5664" y="338" type="curve"/>
      <point x="90.7012" y="338.5" type="line"/>
      <point x="111.701" y="338.5"/>
      <point x="124.146" y="321.5"/>
      <point x="118.519" y="300.5" type="curve" smooth="yes"/>
      <point x="112.892" y="279.5"/>
      <point x="91.3369" y="262.5"/>
      <point x="70.3369" y="262.5" type="curve" smooth="yes"/>
      <point x="49.3369" y="262.5"/>
      <point x="36.8916" y="279.5"/>
      <point x="42.5186" y="300.5" type="curve" smooth="yes"/>
      <point x="48.1455" y="321.5"/>
      <point x="69.7012" y="338.5"/>
    </contour>
  </outline>
</glyph>
<glyph name="afii57839" format="2">
  <advance width="0"/>
  <unicode hex="05BD"/>
  <outline>
    <contour>
      <point x="-73.6279" y="-230" type="line" smooth="yes"/>
      <point x="-82.6279" y="-230"/>
      <point x="-87.7529" y="-223"/>
      <point x="-85.6094" y="-215" type="curve" smooth="yes"/>
      <point x="-44.0771" y="-60" type="line" smooth="yes"/>
      <point x="-41.9336" y="-52"/>
      <point x="-33.0576" y="-45"/>
      <point x="-24.0576" y="-45" type="curve" smooth="yes"/>
      <point x="-0.0576172" y="-45" type="line" smooth="yes"/>
      <point x="8.94238" y="-45"/>
      <point x="14.0664" y="-52"/>
      <point x="11.9229" y="-60" type="curve" smooth="yes"/>
      <point x="-29.6094" y="-215" type="line" smooth="yes"/>
      <point x="-31.7529" y="-223"/>
      <point x="-40.6279" y="-230"/>
      <point x="-49.6279" y="-230" type="curve" smooth="yes"/>
    </contour>
  </outline>
</glyph>
<glyph name="afii57645" format="2">
  <advance width="433"/>
  <unicode hex="05BE"/>
  <outline>
    <contour>
      <point x="189.803" y="574" type="line" smooth="yes"/>
      <point x="195.162" y="594"/>
      <point x="206.77" y="600"/>
      <point x="222.77" y="600" type="curve" smooth="yes"/>
      <point x="529.77" y="600" type="line" smooth="yes"/>
      <point x="550.77" y="600"/>
      <point x="557.09" y="590"/>
      <point x="553.07" y="575" type="curve" smooth="yes"/>
      <point x="511.539" y="420"/>
      <point x="565.129" y="620"/>
      <point x="523.597" y="465" type="curve" smooth="yes"/>
      <point x="519.577" y="450"/>
      <point x="507.897" y="440"/>
      <point x="486.897" y="440" type="curve" smooth="yes"/>
      <point x="179.897" y="440" type="line" smooth="yes"/>
      <point x="163.897" y="440"/>
      <point x="155.505" y="446"/>
      <point x="160.864" y="466" type="curve" smooth="yes"/>
    </contour>
  </outline>
</glyph>
<glyph name="afii57803" format="2">
  <advance width="0"/>
  <unicode hex="05C2"/>
  <outline>
    <contour>
      <point x="360.904" y="705" type="curve"/>
      <point x="360.404" y="705" type="line"/>
      <point x="381.404" y="705"/>
      <point x="393.849" y="688"/>
      <point x="388.49" y="668" type="curve" smooth="yes"/>
      <point x="382.863" y="647"/>
      <point x="361.308" y="630"/>
      <point x="340.308" y="630" type="curve" smooth="yes"/>
      <point x="320.308" y="630"/>
      <point x="307.863" y="647"/>
      <point x="313.49" y="668" type="curve" smooth="yes"/>
      <point x="318.849" y="688"/>
      <point x="340.404" y="705"/>
    </contour>
  </outline>
</glyph>
<glyph name="afii57658" format="2">
  <advance width="400"/>
  <unicode hex="05C3"/>
  <outline>
    <contour>
      <point x="148.102" y="131" type="curve" smooth="yes"/>
      <point x="132.977" y="138"/>
      <point x="139.676" y="163"/>
      <point x="158.016" y="168" type="curve" smooth="yes"/>
      <point x="192.499" y="181"/>
      <point x="224.197" y="206"/>
      <point x="244.504" y="237" type="curve" smooth="yes"/>
      <point x="256.059" y="254"/>
      <point x="280.059" y="254"/>
      <point x="281.504" y="237" type="curve" smooth="yes"/>
      <point x="286.197" y="206"/>
      <point x="304.23" y="180"/>
      <point x="332.016" y="168" type="curve" smooth="yes"/>
      <point x="347.408" y="162"/>
      <point x="340.977" y="138"/>
      <point x="322.102" y="131" type="curve" smooth="yes"/>
      <point x="287.886" y="119"/>
      <point x="255.188" y="94"/>
      <point x="234.881" y="63" type="curve" smooth="yes"/>
      <point x="224.325" y="46"/>
      <point x="200.325" y="46"/>
      <point x="198.881" y="63" type="curve" smooth="yes"/>
      <point x="195.188" y="94"/>
      <point x="175.886" y="119"/>
    </contour>
    <contour>
      <point x="247.242" y="501" type="curve" smooth="yes"/>
      <point x="232.118" y="508"/>
      <point x="238.817" y="533"/>
      <point x="257.156" y="538" type="curve" smooth="yes"/>
      <point x="291.64" y="551"/>
      <point x="323.339" y="576"/>
      <point x="343.646" y="607" type="curve" smooth="yes"/>
      <point x="355.2" y="624"/>
      <point x="379.2" y="624"/>
      <point x="380.646" y="607" type="curve" smooth="yes"/>
      <point x="385.339" y="576"/>
      <point x="403.372" y="550"/>
      <point x="431.156" y="538" type="curve" smooth="yes"/>
      <point x="446.549" y="532"/>
      <point x="440.118" y="508"/>
      <point x="421.242" y="501" type="curve" smooth="yes"/>
      <point x="387.027" y="489"/>
      <point x="354.328" y="464"/>
      <point x="334.022" y="433" type="curve" smooth="yes"/>
      <point x="323.467" y="416"/>
      <point x="299.467" y="416"/>
      <point x="298.022" y="433" type="curve" smooth="yes"/>
      <point x="294.328" y="464"/>
      <point x="275.027" y="489"/>
    </contour>
  </outline>
</glyph>
<glyph name="afii57664" format="2">
  <advance width="593"/>
  <unicode hex="05D0"/>
  <outline>
    <contour>
      <point x="313.272" y="628" type="curve" smooth="yes"/>
      <point x="308.789" y="615"/>
      <point x="304.502" y="599"/>
      <point x="305.482" y="584" type="curve" smooth="yes"/>
      <point x="310.334" y="520"/>
      <point x="332.688" y="484"/>
      <point x="374.897" y="440" type="curve" smooth="yes"/>
      <point x="452.122" y="355" type="line"/>
      <point x="452.122" y="355"/>
      <point x="461.246" y="348"/>
      <point x="470.193" y="359" type="curve" smooth="yes"/>
      <point x="470.193" y="359"/>
      <point x="506.252" y="404"/>
      <point x="515.467" y="416" type="curve" smooth="yes"/>
      <point x="523.146" y="426"/>
      <point x="523.094" y="437"/>
      <point x="516.701" y="443" type="curve" smooth="yes"/>
      <point x="494.4" y="468"/>
      <point x="484.42" y="483"/>
      <point x="487.602" y="521" type="curve" smooth="yes"/>
      <point x="490.032" y="545"/>
      <point x="507.41" y="580"/>
      <point x="516.626" y="592" type="curve" smooth="yes"/>
      <point x="533.789" y="615"/>
      <point x="550.004" y="627"/>
      <point x="566.416" y="636" type="curve" smooth="yes"/>
      <point x="603.507" y="655"/>
      <point x="597.487" y="640"/>
      <point x="604.181" y="609" type="curve" smooth="yes"/>
      <point x="606.233" y="598"/>
      <point x="614.09" y="590"/>
      <point x="623.215" y="583" type="curve" smooth="yes"/>
      <point x="643.195" y="568"/>
      <point x="682.032" y="545"/>
      <point x="682.511" y="502" type="curve" smooth="yes"/>
      <point x="683.31" y="449"/>
      <point x="657.467" y="416"/>
      <point x="630.82" y="380" type="curve" smooth="yes"/>
      <point x="619.533" y="364"/>
      <point x="600.05" y="351"/>
      <point x="595.998" y="362" type="curve" smooth="yes"/>
      <point x="590.285" y="378"/>
      <point x="579.769" y="391"/>
      <point x="565.447" y="401" type="curve" smooth="yes"/>
      <point x="557.787" y="406"/>
      <point x="545.252" y="404"/>
      <point x="537.572" y="394" type="curve" smooth="yes"/>
      <point x="492.566" y="338" type="line"/>
      <point x="492.566" y="338"/>
      <point x="484.352" y="326"/>
      <point x="491.476" y="319" type="curve" smooth="yes"/>
      <point x="555.523" y="252"/>
      <point x="593.466" y="207"/>
      <point x="577.226" y="124" type="curve" smooth="yes"/>
      <point x="568.972" y="82"/>
      <point x="539.378" y="35"/>
      <point x="501.68" y="10" type="curve" smooth="yes"/>
      <point x="457.909" y="-19"/>
      <point x="467.627" y="21"/>
      <point x="472.397" y="50" type="curve" smooth="yes"/>
      <point x="481.331" y="102"/>
      <point x="394.57" y="185"/>
      <point x="327.863" y="257" type="curve" smooth="yes"/>
      <point x="301.634" y="286"/>
      <point x="269.815" y="324"/>
      <point x="254.103" y="340" type="curve"/>
      <point x="254.103" y="340"/>
      <point x="245.71" y="346"/>
      <point x="236.566" y="338" type="curve" smooth="yes"/>
      <point x="224.888" y="328"/>
      <point x="200.261" y="307"/>
      <point x="195.562" y="282" type="curve" smooth="yes"/>
      <point x="188.164" y="232"/>
      <point x="244.394" y="203"/>
      <point x="268.656" y="148" type="curve" smooth="yes"/>
      <point x="279.226" y="124"/>
      <point x="272.809" y="59"/>
      <point x="224.431" y="24" type="curve" smooth="yes"/>
      <point x="199.607" y="6"/>
      <point x="179" y="0"/>
      <point x="152" y="0" type="curve" smooth="yes"/>
      <point x="63" y="0" type="line" smooth="yes"/>
      <point x="59" y="0"/>
      <point x="41.7324" y="-1"/>
      <point x="60.0195" y="15" type="curve" smooth="yes"/>
      <point x="65.3594" y="20"/>
      <point x="71.5029" y="28"/>
      <point x="77.1104" y="34" type="curve" smooth="yes"/>
      <point x="85.79" y="44"/>
      <point x="89.2734" y="57"/>
      <point x="84.4883" y="69" type="curve" smooth="yes"/>
      <point x="76.8477" y="89"/>
      <point x="68.6182" y="118"/>
      <point x="89.1592" y="176" type="curve" smooth="yes"/>
      <point x="117.863" y="257"/>
      <point x="140.169" y="288"/>
      <point x="219.926" y="358" type="curve"/>
      <point x="219.926" y="358"/>
      <point x="227.605" y="368"/>
      <point x="223.017" y="377" type="curve" smooth="yes"/>
      <point x="200.199" y="415"/>
      <point x="179.897" y="440"/>
      <point x="183.008" y="474" type="curve" smooth="yes"/>
      <point x="186.798" y="518"/>
      <point x="198.64" y="551"/>
      <point x="227.822" y="589" type="curve" smooth="yes"/>
      <point x="238.842" y="604"/>
      <point x="265.004" y="627"/>
      <point x="283.684" y="637" type="curve" smooth="yes"/>
      <point x="305.631" y="648"/>
      <point x="319.095" y="646"/>
    </contour>
  </outline>
</glyph>
<glyph name="afii57666" format="2">
  <advance width="339"/>
  <unicode hex="05D2"/>
  <outline>
    <contour>
      <point x="192.627" y="21" type="line" smooth="yes"/>
      <point x="182.876" y="7"/>
      <point x="172" y="0"/>
      <point x="156" y="0" type="curve" smooth="yes"/>
      <point x="28" y="0" type="line" smooth="yes"/>
      <point x="12" y="0"/>
      <point x="8.41113" y="9"/>
      <point x="16.8945" y="22" type="curve" smooth="yes"/>
      <point x="96.2451" y="139" type="line" smooth="yes"/>
      <point x="105.996" y="153"/>
      <point x="116.872" y="160"/>
      <point x="132.872" y="160" type="curve" smooth="yes"/>
      <point x="238.872" y="160" type="line" smooth="yes"/>
      <point x="259.872" y="160"/>
      <point x="274.087" y="172"/>
      <point x="279.982" y="194" type="curve" smooth="yes"/>
      <point x="303.025" y="280"/>
      <point x="315.279" y="322"/>
      <point x="343.18" y="400" type="curve"/>
      <point x="343.18" y="400"/>
      <point x="351.074" y="422"/>
      <point x="328.879" y="425" type="curve" smooth="yes"/>
      <point x="291.486" y="431"/>
      <point x="256.826" y="436"/>
      <point x="236.524" y="461" type="curve" smooth="yes"/>
      <point x="228.472" y="472"/>
      <point x="221.759" y="488"/>
      <point x="221.314" y="505" type="curve" smooth="yes"/>
      <point x="220.138" y="523"/>
      <point x="225.496" y="543"/>
      <point x="229.516" y="558" type="curve" smooth="yes"/>
      <point x="237.679" y="581"/>
      <point x="252.646" y="607"/>
      <point x="262.593" y="618" type="curve" smooth="yes"/>
      <point x="292.167" y="650"/>
      <point x="303.971" y="653"/>
      <point x="315.2" y="624" type="curve" smooth="yes"/>
      <point x="321.842" y="604"/>
      <point x="348.233" y="598"/>
      <point x="360.162" y="594" type="curve" smooth="yes"/>
      <point x="398.482" y="584"/>
      <point x="417.516" y="558"/>
      <point x="414.941" y="526" type="curve" smooth="yes"/>
      <point x="412.099" y="493"/>
      <point x="381.648" y="454"/>
      <point x="371.323" y="408" type="curve" smooth="yes"/>
      <point x="352.012" y="321"/>
      <point x="364.733" y="208"/>
      <point x="357.676" y="163" type="curve" smooth="yes"/>
      <point x="349.475" y="110"/>
      <point x="339.436" y="80"/>
      <point x="303.967" y="26" type="curve" smooth="yes"/>
      <point x="271.837" y="-23"/>
      <point x="263.876" y="7"/>
      <point x="265.503" y="28" type="curve" smooth="yes"/>
      <point x="268.541" y="58"/>
      <point x="272.795" y="100"/>
      <point x="272.154" y="120" type="curve" smooth="yes"/>
      <point x="271.905" y="134"/>
      <point x="263.298" y="128"/>
      <point x="255.082" y="116" type="curve" smooth="yes"/>
    </contour>
  </outline>
</glyph>
<glyph name="afii57672" format="2">
  <advance width="576"/>
  <unicode hex="05D8"/>
  <outline>
    <contour>
      <point x="219.897" y="440" type="curve" smooth="yes"/>
      <point x="204.237" y="445"/>
      <point x="199.041" y="448"/>
      <point x="189.524" y="461" type="curve" smooth="yes"/>
      <point x="180.472" y="472"/>
      <point x="174.759" y="488"/>
      <point x="173.314" y="505" type="curve" smooth="yes"/>
      <point x="173.138" y="523"/>
      <point x="177.496" y="543"/>
      <point x="182.516" y="558" type="curve" smooth="yes"/>
      <point x="189.679" y="581"/>
      <point x="205.646" y="607"/>
      <point x="215.593" y="618" type="curve" smooth="yes"/>
      <point x="244.167" y="650"/>
      <point x="255.971" y="653"/>
      <point x="267.2" y="624" type="curve" smooth="yes"/>
      <point x="273.842" y="604"/>
      <point x="300.233" y="598"/>
      <point x="313.162" y="594" type="curve" smooth="yes"/>
      <point x="338.286" y="587"/>
      <point x="356.535" y="573"/>
      <point x="363.443" y="554" type="curve" smooth="yes"/>
      <point x="372.353" y="535"/>
      <point x="366.438" y="498"/>
      <point x="352.597" y="465" type="curve" smooth="yes"/>
      <point x="335.61" y="424"/>
      <point x="315.056" y="407"/>
      <point x="305.396" y="412" type="curve" smooth="yes"/>
      <point x="294.467" y="416"/>
      <point x="292.539" y="420"/>
      <point x="276.807" y="421" type="curve" smooth="yes"/>
      <point x="267.074" y="422"/>
      <point x="258.199" y="415"/>
      <point x="253.323" y="408" type="curve" smooth="yes"/>
      <point x="228.213" y="374"/>
      <point x="214.71" y="346"/>
      <point x="205.064" y="310" type="curve" smooth="yes"/>
      <point x="193.203" y="262"/>
      <point x="188.433" y="233"/>
      <point x="183.23" y="180" type="curve"/>
      <point x="183.23" y="180"/>
      <point x="181.872" y="160"/>
      <point x="202.872" y="160" type="curve" smooth="yes"/>
      <point x="540.872" y="160" type="line"/>
      <point x="540.872" y="160"/>
      <point x="561.14" y="161"/>
      <point x="569.499" y="181" type="curve" smooth="yes"/>
      <point x="600.471" y="263"/>
      <point x="608.888" y="328"/>
      <point x="578.356" y="382" type="curve" smooth="yes"/>
      <point x="556.539" y="420"/>
      <point x="509.113" y="452"/>
      <point x="464.218" y="430" type="curve" smooth="yes"/>
      <point x="429.663" y="413"/>
      <point x="392.854" y="354"/>
      <point x="362.098" y="284" type="curve" smooth="yes"/>
      <point x="356.347" y="270"/>
      <point x="348.471" y="263"/>
      <point x="339.007" y="265" type="curve" smooth="yes"/>
      <point x="331.274" y="266"/>
      <point x="327.418" y="274"/>
      <point x="332.901" y="287" type="curve" smooth="yes"/>
      <point x="373.912" y="399"/>
      <point x="426.582" y="506"/>
      <point x="482.697" y="596" type="curve"/>
      <point x="482.697" y="596"/>
      <point x="494.057" y="616"/>
      <point x="515.521" y="614" type="curve" smooth="yes"/>
      <point x="608.109" y="605"/>
      <point x="651.745" y="529"/>
      <point x="646.625" y="383" type="curve" smooth="yes"/>
      <point x="642.471" y="263"/>
      <point x="584.226" y="124"/>
      <point x="532.431" y="24" type="curve"/>
      <point x="532.431" y="24"/>
      <point x="522" y="0"/>
      <point x="496" y="0" type="curve" smooth="yes"/>
      <point x="106" y="0" type="line"/>
      <point x="106" y="0"/>
      <point x="84.2676" y="1"/>
      <point x="88.3594" y="20" type="curve" smooth="yes"/>
      <point x="108.35" y="117"/>
      <point x="119.068" y="157"/>
      <point x="139.987" y="250" type="curve" smooth="yes"/>
      <point x="151.117" y="299"/>
      <point x="191.873" y="369"/>
      <point x="223.396" y="412" type="curve" smooth="yes"/>
      <point x="230.807" y="421"/>
      <point x="235.558" y="435"/>
    </contour>
  </outline>
</glyph>
<glyph name="afii57677" format="2">
  <advance width="542"/>
  <unicode hex="05DD"/>
  <outline>
    <contour>
      <point x="344.77" y="600" type="curve" smooth="yes"/>
      <point x="539.27" y="600" type="line" smooth="yes"/>
      <point x="627.27" y="600"/>
      <point x="638.369" y="522"/>
      <point x="616.397" y="440" type="curve" smooth="yes"/>
      <point x="505.199" y="25" type="line" smooth="yes"/>
      <point x="501.18" y="10"/>
      <point x="489.5" y="0"/>
      <point x="468.5" y="0" type="curve" smooth="yes"/>
      <point x="78.5" y="0" type="line" smooth="yes"/>
      <point x="62.5" y="0"/>
      <point x="54.1074" y="6"/>
      <point x="59.4668" y="26" type="curve" smooth="yes"/>
      <point x="117.808" y="240" type="line" smooth="yes"/>
      <point x="144.871" y="341"/>
      <point x="201.02" y="405"/>
      <point x="236.397" y="440" type="curve"/>
      <point x="183.397" y="440"/>
      <point x="180.331" y="492"/>
      <point x="182.226" y="514" type="curve" smooth="yes"/>
      <point x="185.336" y="548"/>
      <point x="207.466" y="597"/>
      <point x="230.772" y="628" type="curve" smooth="yes"/>
      <point x="247.667" y="650"/>
      <point x="258.399" y="649"/>
      <point x="262.576" y="631" type="curve" smooth="yes"/>
      <point x="270.197" y="596"/>
      <point x="306.27" y="600"/>
    </contour>
    <contour>
      <point x="271.397" y="440" type="line"/>
      <point x="248.627" y="411"/>
      <point x="214.569" y="366"/>
      <point x="196.081" y="297" type="curve" smooth="yes"/>
      <point x="166.07" y="185" type="line" smooth="yes"/>
      <point x="161.783" y="169"/>
      <point x="167.372" y="160"/>
      <point x="185.372" y="160" type="curve" smooth="yes"/>
      <point x="481.372" y="160" type="line" smooth="yes"/>
      <point x="496.372" y="160"/>
      <point x="510.247" y="167"/>
      <point x="516.143" y="189" type="curve" smooth="yes"/>
      <point x="557.675" y="344" type="line" smooth="yes"/>
      <point x="571.072" y="394"/>
      <point x="545.397" y="440"/>
      <point x="487.397" y="440" type="curve" smooth="yes"/>
    </contour>
  </outline>
</glyph>
<glyph name="afii57678" format="2">
  <advance width="581"/>
  <unicode hex="05DE"/>
  <outline>
    <contour>
      <point x="202.285" y="378" type="curve"/>
      <point x="202.209" y="378.5" type="line"/>
      <point x="180.711" y="406.5"/>
      <point x="164.965" y="448.5"/>
      <point x="170.004" y="478.5" type="curve" smooth="yes"/>
      <point x="175.649" y="514.5"/>
      <point x="181.885" y="541.5"/>
      <point x="211.87" y="582.5" type="curve" smooth="yes"/>
      <point x="229.033" y="605.5"/>
      <point x="246.784" y="619.5"/>
      <point x="262.732" y="630.5" type="curve" smooth="yes"/>
      <point x="283.215" y="643.5"/>
      <point x="296.607" y="637.5"/>
      <point x="296.98" y="616.5" type="curve" smooth="yes"/>
      <point x="297.426" y="599.5"/>
      <point x="315.479" y="588.5"/>
      <point x="326.139" y="583.5" type="curve" smooth="yes"/>
      <point x="347.459" y="573.5"/>
      <point x="360.885" y="541.5"/>
      <point x="358.808" y="481.5" type="curve" smooth="yes"/>
      <point x="358.932" y="474.5"/>
      <point x="363.788" y="466.5"/>
      <point x="374.396" y="472.5" type="curve" smooth="yes"/>
      <point x="414.827" y="496.5"/>
      <point x="439.976" y="560.5"/>
      <point x="454.962" y="601.5" type="curve" smooth="yes"/>
      <point x="461.249" y="617.5"/>
      <point x="472.393" y="625.5"/>
      <point x="485.124" y="624.5" type="curve" smooth="yes"/>
      <point x="569.517" y="618.5"/>
      <point x="606.066" y="579.5"/>
      <point x="627.812" y="537.5" type="curve" smooth="yes"/>
      <point x="671.108" y="456.5"/>
      <point x="653.275" y="326.5"/>
      <point x="617.494" y="185.5" type="curve" smooth="yes"/>
      <point x="613.207" y="169.5"/>
      <point x="597.509" y="144.5"/>
      <point x="597.509" y="144.5" type="curve"/>
      <point x="513.551" y="21.5" type="line" smooth="yes"/>
      <point x="503.067" y="8.5"/>
      <point x="492.924" y="0.5"/>
      <point x="476.924" y="0.5" type="curve" smooth="yes"/>
      <point x="160.924" y="0.5" type="line" smooth="yes"/>
      <point x="144.924" y="0.5"/>
      <point x="141.336" y="9.5"/>
      <point x="150.818" y="22.5" type="curve" smooth="yes"/>
      <point x="230.169" y="139.5" type="line" smooth="yes"/>
      <point x="238.92" y="153.5"/>
      <point x="250.796" y="160.5"/>
      <point x="266.796" y="160.5" type="curve" smooth="yes"/>
      <point x="562.796" y="160.5" type="line" smooth="yes"/>
      <point x="571.796" y="160.5"/>
      <point x="580.672" y="167.5"/>
      <point x="583.083" y="176.5" type="curve" smooth="yes"/>
      <point x="595.48" y="226.5"/>
      <point x="611.472" y="323.5"/>
      <point x="562.889" y="388.5" type="curve" smooth="yes"/>
      <point x="519.43" y="446.5"/>
      <point x="463.233" y="449.5"/>
      <point x="422.233" y="449.5" type="curve" smooth="yes"/>
      <point x="363.233" y="449.5"/>
      <point x="275.979" y="407.5"/>
      <point x="238.778" y="354.5" type="curve" smooth="yes"/>
      <point x="176.931" y="265.5"/>
      <point x="183.566" y="189.5"/>
      <point x="154.595" y="107.5" type="curve" smooth="yes"/>
      <point x="144.824" y="78.5"/>
      <point x="132.661" y="55.5"/>
      <point x="117.767" y="33.5" type="curve" smooth="yes"/>
      <point x="93.1201" y="-2.5"/>
      <point x="63.0293" y="-21.5"/>
      <point x="71.4453" y="43.5" type="curve" smooth="yes"/>
      <point x="77.7715" y="89.5"/>
      <point x="85.2217" y="128.5"/>
      <point x="109.299" y="188.5" type="curve" smooth="yes"/>
      <point x="132.84" y="246.5"/>
      <point x="169.381" y="304.5"/>
      <point x="200.099" y="344.5" type="curve" smooth="yes"/>
      <point x="209.313" y="356.5"/>
      <point x="209.529" y="368.5"/>
    </contour>
  </outline>
</glyph>
<glyph name="afii57679" format="2">
  <advance width="273"/>
  <unicode hex="05DF"/>
  <outline>
    <contour>
      <point x="201.773" y="447" type="curve"/>
      <point x="201.755" y="446.93" type="line"/>
      <point x="185.166" y="455.93"/>
      <point x="173.793" y="476.93"/>
      <point x="171.884" y="495.93" type="curve" smooth="yes"/>
      <point x="170.511" y="516.93"/>
      <point x="174.602" y="535.93"/>
      <point x="179.89" y="551.93" type="curve" smooth="yes"/>
      <point x="186.784" y="573.93"/>
      <point x="205.626" y="606.93"/>
      <point x="215.574" y="617.93" type="curve" smooth="yes"/>
      <point x="244.148" y="649.93"/>
      <point x="255.952" y="652.93"/>
      <point x="267.182" y="623.93" type="curve" smooth="yes"/>
      <point x="273.822" y="603.93"/>
      <point x="300.751" y="599.93"/>
      <point x="313.679" y="595.93" type="curve" smooth="yes"/>
      <point x="340.071" y="589.93"/>
      <point x="356.731" y="584.93"/>
      <point x="368.444" y="568.93" type="curve" smooth="yes"/>
      <point x="394.87" y="536.93"/>
      <point x="363.649" y="468.93"/>
      <point x="324.343" y="437.93" type="curve" smooth="yes"/>
      <point x="307.859" y="424.93"/>
      <point x="297.376" y="411.93"/>
      <point x="297.376" y="411.93" type="curve"/>
      <point x="271.998" y="376.93"/>
      <point x="253.835" y="353.93"/>
      <point x="241.261" y="321.93" type="curve" smooth="yes"/>
      <point x="223.936" y="275.93"/>
      <point x="216.055" y="212.93"/>
      <point x="210.854" y="159.93" type="curve" smooth="yes"/>
      <point x="203.221" y="82.9297"/>
      <point x="174.938" y="-86.0703"/>
      <point x="157.612" y="-132.07" type="curve" smooth="yes"/>
      <point x="141.626" y="-173.07"/>
      <point x="114.908" y="-213.07"/>
      <point x="67.2422" y="-264.07" type="curve" smooth="yes"/>
      <point x="42.2764" y="-290.07"/>
      <point x="21.4199" y="-282.07"/>
      <point x="30.3867" y="-256.07" type="curve" smooth="yes"/>
      <point x="53.8027" y="-191.07"/>
      <point x="79.7031" y="-113.07"/>
      <point x="104.551" y="-24.0703" type="curve" smooth="yes"/>
      <point x="133.346" y="75.9297"/>
      <point x="137.351" y="131.93"/>
      <point x="167.146" y="231.93" type="curve" smooth="yes"/>
      <point x="187.098" y="298.93"/>
      <point x="210.691" y="345.93"/>
      <point x="261.912" y="413.93" type="curve" smooth="yes"/>
      <point x="266.52" y="419.93"/>
      <point x="269.663" y="427.93"/>
      <point x="259.199" y="429.93" type="curve" smooth="yes"/>
      <point x="239.003" y="432.93"/>
      <point x="221.807" y="435.93"/>
    </contour>
  </outline>
</glyph>
<glyph name="afii57680" format="2">
  <advance width="347"/>
  <unicode hex="05E0"/>
  <outline>
    <contour>
      <point x="217" y="0" type="curve" smooth="yes"/>
      <point x="24" y="0" type="line" smooth="yes"/>
      <point x="8" y="0"/>
      <point x="5.41113" y="9"/>
      <point x="13.8945" y="22" type="curve" smooth="yes"/>
      <point x="93.2451" y="139" type="line" smooth="yes"/>
      <point x="102.996" y="153"/>
      <point x="113.872" y="160"/>
      <point x="129.872" y="160" type="curve" smooth="yes"/>
      <point x="254.872" y="160" type="line" smooth="yes"/>
      <point x="272.872" y="160"/>
      <point x="280.552" y="170"/>
      <point x="283.303" y="184" type="curve" smooth="yes"/>
      <point x="305.849" y="298"/>
      <point x="317.279" y="322"/>
      <point x="345.18" y="400" type="curve"/>
      <point x="345.18" y="400"/>
      <point x="352.074" y="422"/>
      <point x="330.879" y="425" type="curve" smooth="yes"/>
      <point x="292.486" y="431"/>
      <point x="262.826" y="436"/>
      <point x="243.524" y="461" type="curve" smooth="yes"/>
      <point x="234.472" y="472"/>
      <point x="228.759" y="488"/>
      <point x="227.314" y="505" type="curve" smooth="yes"/>
      <point x="227.138" y="523"/>
      <point x="231.496" y="543"/>
      <point x="236.516" y="558" type="curve" smooth="yes"/>
      <point x="243.679" y="581"/>
      <point x="259.646" y="607"/>
      <point x="269.593" y="618" type="curve" smooth="yes"/>
      <point x="298.167" y="650"/>
      <point x="313.971" y="653"/>
      <point x="325.2" y="624" type="curve" smooth="yes"/>
      <point x="331.842" y="604"/>
      <point x="364.233" y="598"/>
      <point x="376.162" y="594" type="curve" smooth="yes"/>
      <point x="414.482" y="584"/>
      <point x="434.516" y="558"/>
      <point x="432.941" y="526" type="curve" smooth="yes"/>
      <point x="429.793" y="462"/>
      <point x="386.826" y="436"/>
      <point x="379.323" y="408" type="curve" smooth="yes"/>
      <point x="358.763" y="335"/>
      <point x="380.882" y="272"/>
      <point x="360.159" y="176" type="curve" smooth="yes"/>
      <point x="348.958" y="123"/>
      <point x="340.775" y="85"/>
      <point x="308.254" y="42" type="curve" smooth="yes"/>
      <point x="276" y="0"/>
      <point x="234" y="0"/>
    </contour>
  </outline>
</glyph>
<glyph name="afii57682" format="2">
  <advance width="552"/>
  <unicode hex="05E2"/>
  <outline>
    <contour>
      <point x="246.252" y="404" type="curve" smooth="yes"/>
      <point x="255.61" y="424"/>
      <point x="250.558" y="435"/>
      <point x="240.094" y="437" type="curve" smooth="yes"/>
      <point x="219.63" y="439"/>
      <point x="204.505" y="446"/>
      <point x="193.185" y="456" type="curve" smooth="yes"/>
      <point x="182.597" y="465"/>
      <point x="175.348" y="479"/>
      <point x="172.902" y="496" type="curve" smooth="yes"/>
      <point x="170.726" y="514"/>
      <point x="173.817" y="533"/>
      <point x="176.836" y="548" type="curve" smooth="yes"/>
      <point x="181.999" y="571"/>
      <point x="194.966" y="597"/>
      <point x="205.181" y="609" type="curve" smooth="yes"/>
      <point x="231.291" y="643"/>
      <point x="244.043" y="657"/>
      <point x="266.86" y="619" type="curve" smooth="yes"/>
      <point x="274.377" y="606"/>
      <point x="301.306" y="602"/>
      <point x="318.037" y="601" type="curve" smooth="yes"/>
      <point x="358.77" y="600"/>
      <point x="380.75" y="585"/>
      <point x="393.123" y="564" type="curve" smooth="yes"/>
      <point x="403.032" y="545"/>
      <point x="401.118" y="508"/>
      <point x="390.275" y="475" type="curve" smooth="yes"/>
      <point x="376.29" y="434"/>
      <point x="363.414" y="427"/>
      <point x="353.486" y="431" type="curve" smooth="yes"/>
      <point x="342.558" y="435"/>
      <point x="328.094" y="437"/>
      <point x="310.29" y="434" type="curve" smooth="yes"/>
      <point x="294.754" y="432"/>
      <point x="284.271" y="419"/>
      <point x="278.716" y="402" type="curve" smooth="yes"/>
      <point x="260.175" y="344"/>
      <point x="279.528" y="308"/>
      <point x="285.222" y="277" type="curve" smooth="yes"/>
      <point x="294.824" y="227"/>
      <point x="290.016" y="168"/>
      <point x="267.795" y="100" type="curve"/>
      <point x="375.479" y="166" type="line"/>
      <point x="390.963" y="179"/>
      <point x="397.963" y="179"/>
      <point x="410.93" y="205" type="curve" smooth="yes"/>
      <point x="430.308" y="240"/>
      <point x="454.294" y="281"/>
      <point x="474.796" y="309" type="curve" smooth="yes"/>
      <point x="517.142" y="370"/>
      <point x="513.998" y="362"/>
      <point x="537.716" y="402" type="curve" smooth="yes"/>
      <point x="545.734" y="417"/>
      <point x="544.61" y="424"/>
      <point x="529.414" y="427" type="curve" smooth="yes"/>
      <point x="511.754" y="432"/>
      <point x="492.361" y="438"/>
      <point x="474.524" y="461" type="curve" smooth="yes"/>
      <point x="465.472" y="472"/>
      <point x="459.759" y="488"/>
      <point x="458.314" y="505" type="curve" smooth="yes"/>
      <point x="457.138" y="523"/>
      <point x="462.496" y="543"/>
      <point x="466.516" y="558" type="curve" smooth="yes"/>
      <point x="474.679" y="581"/>
      <point x="489.646" y="607"/>
      <point x="500.593" y="618" type="curve" smooth="yes"/>
      <point x="529.167" y="650"/>
      <point x="541.971" y="653"/>
      <point x="553.2" y="624" type="curve" smooth="yes"/>
      <point x="560.842" y="604"/>
      <point x="588.233" y="598"/>
      <point x="600.162" y="594" type="curve" smooth="yes"/>
      <point x="639.482" y="584"/>
      <point x="659.319" y="561"/>
      <point x="657.941" y="526" type="curve" smooth="yes"/>
      <point x="656.242" y="501"/>
      <point x="648.721" y="458"/>
      <point x="601.486" y="431" type="curve" smooth="yes"/>
      <point x="589.879" y="425"/>
      <point x="575.396" y="412"/>
      <point x="569.716" y="402" type="curve" smooth="yes"/>
      <point x="522.548" y="323"/>
      <point x="509.117" y="299"/>
      <point x="478.164" y="232" type="curve" smooth="yes"/>
      <point x="446.408" y="162"/>
      <point x="428.742" y="111"/>
      <point x="404.182" y="38" type="curve" smooth="yes"/>
      <point x="397.627" y="21"/>
      <point x="391.947" y="11"/>
      <point x="371.464" y="-2" type="curve" smooth="yes"/>
      <point x="22.3193" y="-219" type="line" smooth="yes"/>
      <point x="13.9795" y="-224"/>
      <point x="1.97949" y="-224"/>
      <point x="5.99902" y="-209" type="curve" smooth="yes"/>
      <point x="58.335" y="-51" type="line" smooth="yes"/>
      <point x="64.1572" y="-33"/>
      <point x="69.8369" y="-23"/>
      <point x="90.0527" y="-11" type="curve" smooth="yes"/>
      <point x="208.345" y="61" type="line" smooth="yes"/>
      <point x="224.024" y="71"/>
      <point x="233.972" y="82"/>
      <point x="236.795" y="100" type="curve" smooth="yes"/>
      <point x="247.479" y="166"/>
      <point x="224.25" y="195"/>
      <point x="218.236" y="236" type="curve" smooth="yes"/>
      <point x="208.921" y="302"/>
      <point x="223.854" y="354"/>
    </contour>
  </outline>
</glyph>
<glyph name="afii57683" format="2">
  <advance width="493"/>
  <unicode hex="05E3"/>
  <outline>
    <contour>
      <point x="221.897" y="440" type="curve"/>
      <point x="196.061" y="463"/>
      <point x="193.831" y="492"/>
      <point x="195.726" y="514" type="curve" smooth="yes"/>
      <point x="197.836" y="548"/>
      <point x="219.966" y="597"/>
      <point x="244.272" y="628" type="curve" smooth="yes"/>
      <point x="260.167" y="650"/>
      <point x="271.899" y="649"/>
      <point x="275.076" y="631" type="curve" smooth="yes"/>
      <point x="283.697" y="596"/>
      <point x="319.77" y="600"/>
      <point x="357.77" y="600" type="curve" smooth="yes"/>
      <point x="496.77" y="600" type="line" smooth="yes"/>
      <point x="552.77" y="600"/>
      <point x="579.248" y="557"/>
      <point x="568.047" y="504" type="curve" smooth="yes"/>
      <point x="425.128" y="-160" type="line" smooth="yes"/>
      <point x="414.999" y="-209"/>
      <point x="386.353" y="-245"/>
      <point x="350.653" y="-270" type="curve" smooth="yes"/>
      <point x="328.902" y="-284"/>
      <point x="312.099" y="-287"/>
      <point x="320.602" y="-259" type="curve" smooth="yes"/>
      <point x="501.71" y="346" type="line" smooth="yes"/>
      <point x="518.376" y="397"/>
      <point x="505.897" y="440"/>
      <point x="455.897" y="440" type="curve" smooth="yes"/>
      <point x="261.897" y="440" type="line"/>
      <point x="232.074" y="422"/>
      <point x="192.069" y="366"/>
      <point x="187.672" y="316" type="curve" smooth="yes"/>
      <point x="183.811" y="268"/>
      <point x="234.811" y="268"/>
      <point x="283.078" y="269" type="curve" smooth="yes"/>
      <point x="314.347" y="270"/>
      <point x="334.72" y="249"/>
      <point x="332.609" y="215" type="curve" smooth="yes"/>
      <point x="331.035" y="183"/>
      <point x="318.925" y="149"/>
      <point x="279.298" y="128" type="curve" smooth="yes"/>
      <point x="239.671" y="107"/>
      <point x="171.082" y="116"/>
      <point x="140.689" y="122" type="curve"/>
      <point x="128.814" y="115"/>
      <point x="115.599" y="103"/>
      <point x="96.3838" y="91" type="curve" smooth="yes"/>
      <point x="85.5078" y="84"/>
      <point x="72.7041" y="81"/>
      <point x="66.8477" y="89" type="curve" smooth="yes"/>
      <point x="60.9912" y="97"/>
      <point x="68.4746" y="110"/>
      <point x="78.3496" y="117" type="curve" smooth="yes"/>
      <point x="96.833" y="130"/>
      <point x="95.2979" y="128"/>
      <point x="111.781" y="141" type="curve"/>
      <point x="88.3223" y="199"/>
      <point x="103.791" y="253"/>
      <point x="118.777" y="294" type="curve" smooth="yes"/>
      <point x="141.39" y="356"/>
      <point x="184.199" y="415"/>
    </contour>
  </outline>
</glyph>
<glyph name="afii57687" format="2">
  <advance width="544"/>
  <unicode hex="05E7"/>
  <outline>
    <contour>
      <point x="346.77" y="600" type="curve"/>
      <point x="346.27" y="600" type="line"/>
      <point x="377.197" y="596"/>
      <point x="559.485" y="612"/>
      <point x="610.656" y="538" type="curve" smooth="yes"/>
      <point x="661.364" y="466"/>
      <point x="594.128" y="230"/>
      <point x="549.836" y="158" type="curve" smooth="yes"/>
      <point x="530.262" y="126"/>
      <point x="482.472" y="82"/>
      <point x="427.845" y="61" type="curve" smooth="yes"/>
      <point x="353.343" y="33"/>
      <point x="249.486" y="41"/>
      <point x="210.16" y="-5" type="curve" smooth="yes"/>
      <point x="192.533" y="-26"/>
      <point x="173.213" y="-16"/>
      <point x="179.18" y="10" type="curve" smooth="yes"/>
      <point x="181.323" y="18"/>
      <point x="185.807" y="31"/>
      <point x="197.361" y="48" type="curve" smooth="yes"/>
      <point x="225.079" y="88"/>
      <point x="268.314" y="115"/>
      <point x="355.281" y="141" type="curve" smooth="yes"/>
      <point x="424.908" y="162"/>
      <point x="470.229" y="152"/>
      <point x="515.679" y="191" type="curve" smooth="yes"/>
      <point x="564.933" y="233"/>
      <point x="594.818" y="352"/>
      <point x="568.34" y="395" type="curve" smooth="yes"/>
      <point x="530.685" y="456"/>
      <point x="296.45" y="429"/>
      <point x="239.005" y="446" type="curve" smooth="yes"/>
      <point x="186.293" y="462"/>
      <point x="188.402" y="496"/>
      <point x="189.298" y="518" type="curve" smooth="yes"/>
      <point x="191.283" y="559"/>
      <point x="209.466" y="597"/>
      <point x="232.772" y="628" type="curve" smooth="yes"/>
      <point x="249.667" y="650"/>
      <point x="260.399" y="649"/>
      <point x="264.576" y="631" type="curve" smooth="yes"/>
      <point x="272.197" y="596"/>
      <point x="310.342" y="604"/>
    </contour>
    <contour>
      <point x="226.21" y="346" type="curve" smooth="yes"/>
      <point x="188.617" y="299"/>
      <point x="179.454" y="276"/>
      <point x="170.344" y="242" type="curve" smooth="yes"/>
      <point x="140.549" y="142"/>
      <point x="131.5" y="0"/>
      <point x="107.992" y="-84" type="curve" smooth="yes"/>
      <point x="87.7002" y="-156"/>
      <point x="67.7471" y="-223"/>
      <point x="3.33105" y="-288" type="curve" smooth="yes"/>
      <point x="-33.583" y="-325"/>
      <point x="-45.3154" y="-324"/>
      <point x="-30.5977" y="-284" type="curve" smooth="yes"/>
      <point x="10.4844" y="-168"/>
      <point x="11.7383" y="-126"/>
      <point x="41.1406" y="-20" type="curve" smooth="yes"/>
      <point x="67.8643" y="76"/>
      <point x="82.9082" y="162"/>
      <point x="109.324" y="227" type="curve" smooth="yes"/>
      <point x="128.918" y="274"/>
      <point x="160.048" y="323"/>
      <point x="200.426" y="358" type="curve" smooth="yes"/>
      <point x="235.732" y="389"/>
      <point x="247.177" y="372"/>
    </contour>
  </outline>
</glyph>
<glyph name="afii57688" format="2">
  <advance width="502"/>
  <unicode hex="05E8"/>
  <outline>
    <contour>
      <point x="519.175" y="344" type="curve" smooth="yes"/>
      <point x="532.572" y="394"/>
      <point x="506.897" y="440"/>
      <point x="448.897" y="440" type="curve" smooth="yes"/>
      <point x="225.897" y="440" type="line" smooth="yes"/>
      <point x="180.897" y="440"/>
      <point x="169.831" y="492"/>
      <point x="171.726" y="514" type="curve" smooth="yes"/>
      <point x="173.836" y="548"/>
      <point x="196.966" y="597"/>
      <point x="220.272" y="628" type="curve" smooth="yes"/>
      <point x="237.167" y="650"/>
      <point x="247.899" y="649"/>
      <point x="252.076" y="631" type="curve" smooth="yes"/>
      <point x="259.697" y="596"/>
      <point x="295.77" y="600"/>
      <point x="333.77" y="600" type="curve" smooth="yes"/>
      <point x="466.77" y="600" type="line" smooth="yes"/>
      <point x="554.77" y="600"/>
      <point x="584.425" y="539"/>
      <point x="569.897" y="440" type="curve" smooth="yes"/>
      <point x="559.677" y="372"/>
      <point x="520.733" y="208"/>
      <point x="511.265" y="154" type="curve" smooth="yes"/>
      <point x="507.369" y="132"/>
      <point x="495.292" y="72"/>
      <point x="462.359" y="20" type="curve" smooth="yes"/>
      <point x="437.909" y="-19"/>
      <point x="409.856" y="-8"/>
      <point x="420.967" y="26" type="curve" smooth="yes"/>
      <point x="420.967" y="26"/>
      <point x="476.609" y="215"/>
    </contour>
  </outline>
</glyph>
<glyph name="afii57716" format="2">
  <advance width="532"/>
  <unicode hex="05F0"/>
  <outline>
    <contour>
      <point x="627.138" y="523" type="curve" smooth="yes"/>
      <point x="623.955" y="485"/>
      <point x="606.041" y="448"/>
      <point x="574.003" y="418" type="curve" smooth="yes"/>
      <point x="568.396" y="412"/>
      <point x="558.447" y="401"/>
      <point x="557.5" y="390" type="curve" smooth="yes"/>
      <point x="550.279" y="322"/>
      <point x="536.27" y="210"/>
      <point x="527.532" y="155" type="curve" smooth="yes"/>
      <point x="524.638" y="133"/>
      <point x="510.632" y="77"/>
      <point x="467.359" y="20" type="curve" smooth="yes"/>
      <point x="440.445" y="-17"/>
      <point x="406.32" y="-10"/>
      <point x="416.699" y="25" type="curve" smooth="yes"/>
      <point x="416.699" y="25"/>
      <point x="490.811" y="268"/>
      <point x="526.036" y="392" type="curve" smooth="yes"/>
      <point x="530.787" y="406"/>
      <point x="525.271" y="419"/>
      <point x="513.343" y="423" type="curve" smooth="yes"/>
      <point x="498.414" y="427"/>
      <point x="473.558" y="435"/>
      <point x="460.505" y="446" type="curve" smooth="yes"/>
      <point x="446.721" y="458"/>
      <point x="437.544" y="476"/>
      <point x="436.902" y="496" type="curve" smooth="yes"/>
      <point x="435.994" y="515"/>
      <point x="442.496" y="543"/>
      <point x="447.516" y="558" type="curve" smooth="yes"/>
      <point x="454.679" y="581"/>
      <point x="469.646" y="607"/>
      <point x="479.593" y="618" type="curve" smooth="yes"/>
      <point x="508.167" y="650"/>
      <point x="520.971" y="653"/>
      <point x="531.2" y="624" type="curve" smooth="yes"/>
      <point x="538.842" y="604"/>
      <point x="564.233" y="598"/>
      <point x="577.162" y="594" type="curve" smooth="yes"/>
      <point x="615.482" y="584"/>
      <point x="629.443" y="554"/>
    </contour>
    <contour>
      <point x="361.138" y="523" type="curve" smooth="yes"/>
      <point x="357.955" y="485"/>
      <point x="340.041" y="448"/>
      <point x="308.003" y="418" type="curve" smooth="yes"/>
      <point x="302.396" y="412"/>
      <point x="292.447" y="401"/>
      <point x="291.5" y="390" type="curve" smooth="yes"/>
      <point x="284.279" y="322"/>
      <point x="270.27" y="210"/>
      <point x="261.532" y="155" type="curve" smooth="yes"/>
      <point x="258.638" y="133"/>
      <point x="244.632" y="77"/>
      <point x="201.359" y="20" type="curve" smooth="yes"/>
      <point x="174.445" y="-17"/>
      <point x="140.32" y="-10"/>
      <point x="150.699" y="25" type="curve" smooth="yes"/>
      <point x="150.699" y="25"/>
      <point x="224.811" y="268"/>
      <point x="260.036" y="392" type="curve" smooth="yes"/>
      <point x="264.787" y="406"/>
      <point x="259.271" y="419"/>
      <point x="247.343" y="423" type="curve" smooth="yes"/>
      <point x="232.414" y="427"/>
      <point x="207.558" y="435"/>
      <point x="194.505" y="446" type="curve" smooth="yes"/>
      <point x="180.721" y="458"/>
      <point x="171.544" y="476"/>
      <point x="170.902" y="496" type="curve" smooth="yes"/>
      <point x="169.994" y="515"/>
      <point x="176.496" y="543"/>
      <point x="181.516" y="558" type="curve" smooth="yes"/>
      <point x="188.679" y="581"/>
      <point x="203.646" y="607"/>
      <point x="213.593" y="618" type="curve" smooth="yes"/>
      <point x="242.167" y="650"/>
      <point x="254.971" y="653"/>
      <point x="265.2" y="624" type="curve" smooth="yes"/>
      <point x="272.842" y="604"/>
      <point x="298.233" y="598"/>
      <point x="311.162" y="594" type="curve" smooth="yes"/>
      <point x="349.482" y="584"/>
      <point x="363.443" y="554"/>
    </contour>
  </outline>
</glyph>
<glyph name="afii57717" format="2">
  <advance width="532"/>
  <unicode hex="05F1"/>
  <outline>
    <contour>
      <point x="341.271" y="419" type="curve" smooth="yes"/>
      <point x="327.5" y="390"/>
      <point x="301.658" y="357"/>
      <point x="268.815" y="324" type="curve" smooth="yes"/>
      <point x="256.601" y="312"/>
      <point x="240.045" y="295"/>
      <point x="231.457" y="304" type="curve" smooth="yes"/>
      <point x="221.136" y="314"/>
      <point x="235.763" y="335"/>
      <point x="243.175" y="344" type="curve" smooth="yes"/>
      <point x="265.409" y="371"/>
      <point x="282.5" y="390"/>
      <point x="273.199" y="415" type="curve" smooth="yes"/>
      <point x="264.826" y="436"/>
      <point x="243.022" y="433"/>
      <point x="219.237" y="445" type="curve" smooth="yes"/>
      <point x="198.185" y="456"/>
      <point x="179.74" y="473"/>
      <point x="174.118" y="508" type="curve" smooth="yes"/>
      <point x="171.013" y="530"/>
      <point x="178.588" y="562"/>
      <point x="185.143" y="579" type="curve" smooth="yes"/>
      <point x="194.842" y="604"/>
      <point x="204.86" y="619"/>
      <point x="218.076" y="631" type="curve" smooth="yes"/>
      <point x="244.238" y="654"/>
      <point x="252.095" y="646"/>
      <point x="258.736" y="626" type="curve" smooth="yes"/>
      <point x="266.377" y="606"/>
      <point x="278.233" y="598"/>
      <point x="303.626" y="592" type="curve" smooth="yes"/>
      <point x="327.286" y="587"/>
      <point x="352.999" y="571"/>
      <point x="360.961" y="541" type="curve" smooth="yes"/>
      <point x="372.975" y="500"/>
      <point x="359.721" y="458"/>
    </contour>
    <contour>
      <point x="627.138" y="523" type="curve" smooth="yes"/>
      <point x="623.955" y="485"/>
      <point x="606.041" y="448"/>
      <point x="574.003" y="418" type="curve" smooth="yes"/>
      <point x="568.396" y="412"/>
      <point x="558.447" y="401"/>
      <point x="557.5" y="390" type="curve" smooth="yes"/>
      <point x="550.279" y="322"/>
      <point x="536.27" y="210"/>
      <point x="527.532" y="155" type="curve" smooth="yes"/>
      <point x="524.638" y="133"/>
      <point x="510.632" y="77"/>
      <point x="467.359" y="20" type="curve" smooth="yes"/>
      <point x="440.445" y="-17"/>
      <point x="406.32" y="-10"/>
      <point x="416.699" y="25" type="curve" smooth="yes"/>
      <point x="416.699" y="25"/>
      <point x="490.811" y="268"/>
      <point x="526.036" y="392" type="curve" smooth="yes"/>
      <point x="530.787" y="406"/>
      <point x="525.271" y="419"/>
      <point x="513.343" y="423" type="curve" smooth="yes"/>
      <point x="498.414" y="427"/>
      <point x="473.558" y="435"/>
      <point x="460.505" y="446" type="curve" smooth="yes"/>
      <point x="446.721" y="458"/>
      <point x="437.544" y="476"/>
      <point x="436.902" y="496" type="curve" smooth="yes"/>
      <point x="435.994" y="515"/>
      <point x="442.496" y="543"/>
      <point x="447.516" y="558" type="curve" smooth="yes"/>
      <point x="454.679" y="581"/>
      <point x="469.646" y="607"/>
      <point x="479.593" y="618" type="curve" smooth="yes"/>
      <point x="508.167" y="650"/>
      <point x="520.971" y="653"/>
      <point x="531.2" y="624" type="curve" smooth="yes"/>
      <point x="538.842" y="604"/>
      <point x="564.233" y="598"/>
      <point x="577.162" y="594" type="curve" smooth="yes"/>
      <point x="615.482" y="584"/>
      <point x="629.443" y="554"/>
    </contour>
  </outline>
</glyph>
<glyph name="SF110000" format="2">
  <advance width="610"/>
  <unicode hex="2502"/>
  <outline>
    <contour>
      <point x="622.231" y="960" type="line"/>
      <point x="284.615" y="-300" type="line"/>
      <point x="164.615" y="-300" type="line"/>
      <point x="502.231" y="960" type="line"/>
    </contour>
  </outline>
</glyph>
<glyph name="uniE801" format="2">
  <advance width="266"/>
  <unicode hex="E801"/>
  <outline>
    <contour>
      <point x="192.924" y="720" type="curve" smooth="yes"/>
      <point x="213.924" y="720"/>
      <point x="226.368" y="703"/>
      <point x="220.741" y="682" type="curve" smooth="yes"/>
      <point x="215.383" y="662"/>
      <point x="193.827" y="645"/>
      <point x="172.827" y="645" type="curve" smooth="yes"/>
      <point x="151.827" y="645"/>
      <point x="139.383" y="662"/>
      <point x="144.741" y="682" type="curve" smooth="yes"/>
      <point x="150.368" y="703"/>
      <point x="171.924" y="720"/>
    </contour>
    <contour>
      <point x="361.138" y="523" type="curve" smooth="yes"/>
      <point x="357.955" y="485"/>
      <point x="340.041" y="448"/>
      <point x="308.003" y="418" type="curve" smooth="yes"/>
      <point x="302.396" y="412"/>
      <point x="292.447" y="401"/>
      <point x="291.5" y="390" type="curve" smooth="yes"/>
      <point x="284.279" y="322"/>
      <point x="270.27" y="210"/>
      <point x="261.532" y="155" type="curve" smooth="yes"/>
      <point x="258.638" y="133"/>
      <point x="244.632" y="77"/>
      <point x="201.359" y="20" type="curve" smooth="yes"/>
      <point x="174.445" y="-17"/>
      <point x="140.32" y="-10"/>
      <point x="150.699" y="25" type="curve" smooth="yes"/>
      <point x="150.699" y="25"/>
      <point x="224.811" y="268"/>
      <point x="260.036" y="392" type="curve" smooth="yes"/>
      <point x="264.787" y="406"/>
      <point x="259.271" y="419"/>
      <point x="247.343" y="423" type="curve" smooth="yes"/>
      <point x="232.414" y="427"/>
      <point x="207.558" y="435"/>
      <point x="194.505" y="446" type="curve" smooth="yes"/>
      <point x="180.721" y="458"/>
      <point x="171.544" y="476"/>
      <point x="170.902" y="496" type="curve" smooth="yes"/>
      <point x="169.994" y="515"/>
      <point x="176.496" y="543"/>
      <point x="181.516" y="558" type="curve" smooth="yes"/>
      <point x="188.679" y="581"/>
      <point x="203.646" y="607"/>
      <point x="213.593" y="618" type="curve" smooth="yes"/>
      <point x="242.167" y="650"/>
      <point x="254.971" y="653"/>
      <point x="265.2" y="624" type="curve" smooth="yes"/>
      <point x="272.842" y="604"/>
      <point x="298.233" y="598"/>
      <point x="311.162" y="594" type="curve" smooth="yes"/>
      <point x="349.482" y="584"/>
      <point x="363.443" y="554"/>
    </contour>
  </outline>
</glyph>
<glyph name="uniE802" format="2">
  <advance width="496"/>
  <unicode hex="E802"/>
  <outline>
    <contour>
      <point x="309.767" y="182" type="curve" smooth="yes"/>
      <point x="330.767" y="182"/>
      <point x="343.212" y="165"/>
      <point x="337.585" y="144" type="curve" smooth="yes"/>
      <point x="332.226" y="124"/>
      <point x="310.671" y="107"/>
      <point x="289.671" y="107" type="curve" smooth="yes"/>
      <point x="268.671" y="107"/>
      <point x="256.226" y="124"/>
      <point x="261.585" y="144" type="curve" smooth="yes"/>
      <point x="267.212" y="165"/>
      <point x="288.767" y="182"/>
    </contour>
    <contour>
      <point x="340.581" y="297" type="curve" smooth="yes"/>
      <point x="361.581" y="297"/>
      <point x="374.025" y="280"/>
      <point x="368.667" y="260" type="curve" smooth="yes"/>
      <point x="363.04" y="239"/>
      <point x="341.484" y="222"/>
      <point x="320.484" y="222" type="curve" smooth="yes"/>
      <point x="299.484" y="222"/>
      <point x="287.04" y="239"/>
      <point x="292.667" y="260" type="curve" smooth="yes"/>
      <point x="298.025" y="280"/>
      <point x="319.581" y="297"/>
    </contour>
    <contour>
      <point x="333.77" y="600" type="curve" smooth="yes"/>
      <point x="550.77" y="600" type="line" smooth="yes"/>
      <point x="610.77" y="600"/>
      <point x="607.855" y="563"/>
      <point x="598.138" y="523" type="curve" smooth="yes"/>
      <point x="589.224" y="486"/>
      <point x="573.041" y="448"/>
      <point x="526.166" y="441" type="curve" smooth="yes"/>
      <point x="512.63" y="439"/>
      <point x="510.146" y="426"/>
      <point x="510.146" y="426" type="curve"/>
      <point x="504.017" y="377"/>
      <point x="406.243" y="-70"/>
      <point x="398.506" y="-125" type="curve" smooth="yes"/>
      <point x="394.611" y="-147"/>
      <point x="381.606" y="-203"/>
      <point x="338.333" y="-260" type="curve" smooth="yes"/>
      <point x="310.419" y="-297"/>
      <point x="277.295" y="-290"/>
      <point x="287.673" y="-255" type="curve" smooth="yes"/>
      <point x="478.146" y="426" type="line" smooth="yes"/>
      <point x="481.897" y="440"/>
      <point x="474.897" y="440"/>
      <point x="466.897" y="440" type="curve" smooth="yes"/>
      <point x="225.897" y="440" type="line" smooth="yes"/>
      <point x="180.897" y="440"/>
      <point x="169.831" y="492"/>
      <point x="171.726" y="514" type="curve" smooth="yes"/>
      <point x="173.836" y="548"/>
      <point x="195.966" y="597"/>
      <point x="220.272" y="628" type="curve" smooth="yes"/>
      <point x="236.167" y="650"/>
      <point x="247.899" y="649"/>
      <point x="251.076" y="631" type="curve" smooth="yes"/>
      <point x="259.697" y="596"/>
      <point x="295.77" y="600"/>
    </contour>
  </outline>
</glyph>
<glyph name="uniFB1D" format="2">
  <advance width="266"/>
  <unicode hex="FB1D"/>
  <outline>
    <contour>
      <point x="182.7" y="234" type="curve" smooth="yes"/>
      <point x="203.7" y="234"/>
      <point x="216.145" y="217"/>
      <point x="210.786" y="197" type="curve" smooth="yes"/>
      <point x="205.159" y="176"/>
      <point x="183.604" y="159"/>
      <point x="162.604" y="159" type="curve" smooth="yes"/>
      <point x="141.604" y="159"/>
      <point x="129.159" y="176"/>
      <point x="134.786" y="197" type="curve" smooth="yes"/>
      <point x="140.145" y="217"/>
      <point x="161.7" y="234"/>
    </contour>
    <contour>
      <point x="341.271" y="419" type="curve" smooth="yes"/>
      <point x="327.5" y="390"/>
      <point x="301.658" y="357"/>
      <point x="268.815" y="324" type="curve" smooth="yes"/>
      <point x="256.601" y="312"/>
      <point x="240.045" y="295"/>
      <point x="231.457" y="304" type="curve" smooth="yes"/>
      <point x="221.136" y="314"/>
      <point x="235.763" y="335"/>
      <point x="243.175" y="344" type="curve" smooth="yes"/>
      <point x="265.409" y="371"/>
      <point x="282.5" y="390"/>
      <point x="273.199" y="415" type="curve" smooth="yes"/>
      <point x="264.826" y="436"/>
      <point x="243.022" y="433"/>
      <point x="219.237" y="445" type="curve" smooth="yes"/>
      <point x="198.185" y="456"/>
      <point x="179.74" y="473"/>
      <point x="174.118" y="508" type="curve" smooth="yes"/>
      <point x="171.013" y="530"/>
      <point x="178.588" y="562"/>
      <point x="185.143" y="579" type="curve" smooth="yes"/>
      <point x="194.842" y="604"/>
      <point x="204.86" y="619"/>
      <point x="218.076" y="631" type="curve" smooth="yes"/>
      <point x="244.238" y="654"/>
      <point x="252.095" y="646"/>
      <point x="258.736" y="626" type="curve" smooth="yes"/>
      <point x="266.377" y="606"/>
      <point x="278.233" y="598"/>
      <point x="303.626" y="592" type="curve" smooth="yes"/>
      <point x="327.286" y="587"/>
      <point x="352.999" y="571"/>
      <point x="360.961" y="541" type="curve" smooth="yes"/>
      <point x="372.975" y="500"/>
      <point x="359.721" y="458"/>
    </contour>
  </outline>
</glyph>
<glyph name="uniFB1E" format="2">
  <advance width="0"/>
  <unicode hex="FB1E"/>
  <outline>
    <contour>
      <point x="100.119" y="717" type="line" smooth="yes"/>
      <point x="105.995" y="724"/>
      <point x="115.531" y="726"/>
      <point x="121.728" y="723" type="curve" smooth="yes"/>
      <point x="162.101" y="702"/>
      <point x="215.368" y="703"/>
      <point x="265.728" y="723" type="curve" smooth="yes"/>
      <point x="273.531" y="726"/>
      <point x="281.995" y="724"/>
      <point x="284.119" y="717" type="curve" smooth="yes"/>
      <point x="291.492" y="696" type="line" smooth="yes"/>
      <point x="293.349" y="688"/>
      <point x="288.205" y="680"/>
      <point x="279.865" y="675" type="curve" smooth="yes"/>
      <point x="224.023" y="642"/>
      <point x="119.095" y="646"/>
      <point x="81.8652" y="675" type="curve" smooth="yes"/>
      <point x="76.2051" y="680"/>
      <point x="75.3486" y="688"/>
      <point x="81.4922" y="696" type="curve" smooth="yes"/>
    </contour>
  </outline>
</glyph>
<glyph name="uniFB31" format="2">
  <advance width="498"/>
  <unicode hex="FB31"/>
  <outline>
    <contour>
      <point x="330.566" y="338" type="curve"/>
      <point x="330.701" y="338.5" type="line"/>
      <point x="351.701" y="338.5"/>
      <point x="364.146" y="321.5"/>
      <point x="358.519" y="300.5" type="curve" smooth="yes"/>
      <point x="352.892" y="279.5"/>
      <point x="331.337" y="262.5"/>
      <point x="310.337" y="262.5" type="curve" smooth="yes"/>
      <point x="289.337" y="262.5"/>
      <point x="276.892" y="279.5"/>
      <point x="282.519" y="300.5" type="curve" smooth="yes"/>
      <point x="288.146" y="321.5"/>
      <point x="309.701" y="338.5"/>
    </contour>
    <contour>
      <point x="520.006" y="160.5" type="line" smooth="yes"/>
      <point x="536.006" y="160.5"/>
      <point x="539.595" y="151.5"/>
      <point x="530.111" y="138.5" type="curve" smooth="yes"/>
      <point x="450.761" y="21.5" type="line" smooth="yes"/>
      <point x="442.01" y="7.5"/>
      <point x="430.134" y="0.5"/>
      <point x="414.134" y="0.5" type="curve" smooth="yes"/>
      <point x="40.1338" y="0.5" type="line" smooth="yes"/>
      <point x="24.1338" y="0.5"/>
      <point x="20.5459" y="9.5"/>
      <point x="29.0293" y="22.5" type="curve" smooth="yes"/>
      <point x="108.379" y="139.5" type="line" smooth="yes"/>
      <point x="118.13" y="153.5"/>
      <point x="129.006" y="160.5"/>
      <point x="145.006" y="160.5" type="curve" smooth="yes"/>
      <point x="446.006" y="160.5" type="line" smooth="yes"/>
      <point x="455.006" y="160.5"/>
      <point x="462.273" y="161.5"/>
      <point x="466.293" y="176.5" type="curve" smooth="yes"/>
      <point x="485.71" y="241.5"/>
      <point x="507.132" y="362.5"/>
      <point x="475.242" y="396.5" type="curve" smooth="yes"/>
      <point x="413.927" y="462.5"/>
      <point x="299.084" y="429.5"/>
      <point x="241.64" y="446.5" type="curve" smooth="yes"/>
      <point x="188.927" y="462.5"/>
      <point x="191.037" y="496.5"/>
      <point x="191.932" y="518.5" type="curve" smooth="yes"/>
      <point x="193.918" y="559.5"/>
      <point x="212.1" y="597.5"/>
      <point x="235.406" y="628.5" type="curve" smooth="yes"/>
      <point x="252.301" y="650.5"/>
      <point x="263.033" y="649.5"/>
      <point x="267.21" y="631.5" type="curve" smooth="yes"/>
      <point x="274.832" y="596.5"/>
      <point x="311.439" y="602.5"/>
      <point x="348.903" y="600.5" type="curve" smooth="yes"/>
      <point x="399.1" y="597.5"/>
      <point x="497.172" y="601.5"/>
      <point x="532.291" y="538.5" type="curve" smooth="yes"/>
      <point x="572.267" y="467.5"/>
      <point x="537.682" y="323.5"/>
      <point x="492.757" y="174.5" type="curve"/>
      <point x="492.757" y="174.5"/>
      <point x="490.006" y="160.5"/>
      <point x="504.006" y="160.5" type="curve" smooth="yes"/>
    </contour>
  </outline>
</glyph>
<glyph name="uniFB33" format="2">
  <advance width="523"/>
  <unicode hex="FB33"/>
  <outline>
    <contour>
      <point x="378.566" y="338" type="curve"/>
      <point x="378.701" y="338.5" type="line"/>
      <point x="399.701" y="338.5"/>
      <point x="412.146" y="321.5"/>
      <point x="406.519" y="300.5" type="curve" smooth="yes"/>
      <point x="400.892" y="279.5"/>
      <point x="379.337" y="262.5"/>
      <point x="358.337" y="262.5" type="curve" smooth="yes"/>
      <point x="337.337" y="262.5"/>
      <point x="324.892" y="279.5"/>
      <point x="330.519" y="300.5" type="curve" smooth="yes"/>
      <point x="336.146" y="321.5"/>
      <point x="357.701" y="338.5"/>
    </contour>
    <contour>
      <point x="333.903" y="600.5" type="curve" smooth="yes"/>
      <point x="577.903" y="600.5" type="line" smooth="yes"/>
      <point x="637.903" y="600.5"/>
      <point x="634.989" y="563.5"/>
      <point x="625.271" y="523.5" type="curve" smooth="yes"/>
      <point x="617.357" y="486.5"/>
      <point x="601.175" y="448.5"/>
      <point x="554.3" y="441.5" type="curve" smooth="yes"/>
      <point x="539.764" y="439.5"/>
      <point x="537.28" y="426.5"/>
      <point x="537.28" y="426.5" type="curve"/>
      <point x="531.15" y="377.5"/>
      <point x="511.403" y="210.5"/>
      <point x="502.666" y="155.5" type="curve" smooth="yes"/>
      <point x="499.771" y="133.5"/>
      <point x="485.766" y="77.5"/>
      <point x="442.493" y="20.5" type="curve" smooth="yes"/>
      <point x="415.579" y="-16.5"/>
      <point x="381.454" y="-9.5"/>
      <point x="391.833" y="25.5" type="curve" smooth="yes"/>
      <point x="506.28" y="426.5" type="line" smooth="yes"/>
      <point x="509.031" y="440.5"/>
      <point x="502.031" y="440.5"/>
      <point x="494.031" y="440.5" type="curve" smooth="yes"/>
      <point x="226.031" y="440.5" type="line" smooth="yes"/>
      <point x="181.031" y="440.5"/>
      <point x="169.965" y="492.5"/>
      <point x="171.859" y="514.5" type="curve" smooth="yes"/>
      <point x="173.97" y="548.5"/>
      <point x="196.1" y="597.5"/>
      <point x="220.406" y="628.5" type="curve" smooth="yes"/>
      <point x="236.301" y="650.5"/>
      <point x="248.033" y="649.5"/>
      <point x="251.21" y="631.5" type="curve" smooth="yes"/>
      <point x="259.832" y="596.5"/>
      <point x="295.903" y="600.5"/>
    </contour>
  </outline>
</glyph>
<glyph name="uniFB34" format="2">
  <advance width="561"/>
  <unicode hex="FB34"/>
  <outline>
    <contour>
      <point x="364.566" y="338" type="curve"/>
      <point x="364.701" y="338.5" type="line"/>
      <point x="385.701" y="338.5"/>
      <point x="398.146" y="321.5"/>
      <point x="392.519" y="300.5" type="curve" smooth="yes"/>
      <point x="386.892" y="279.5"/>
      <point x="365.337" y="262.5"/>
      <point x="344.337" y="262.5" type="curve" smooth="yes"/>
      <point x="323.337" y="262.5"/>
      <point x="310.892" y="279.5"/>
      <point x="316.519" y="300.5" type="curve" smooth="yes"/>
      <point x="322.146" y="321.5"/>
      <point x="343.701" y="338.5"/>
    </contour>
    <contour>
      <point x="342.903" y="600.5" type="curve" smooth="yes"/>
      <point x="613.403" y="600.5" type="line" smooth="yes"/>
      <point x="673.403" y="600.5"/>
      <point x="670.489" y="563.5"/>
      <point x="660.771" y="523.5" type="curve" smooth="yes"/>
      <point x="651.857" y="486.5"/>
      <point x="635.675" y="448.5"/>
      <point x="588.8" y="441.5" type="curve" smooth="yes"/>
      <point x="575.264" y="439.5"/>
      <point x="572.78" y="426.5"/>
      <point x="572.78" y="426.5" type="curve"/>
      <point x="566.65" y="377.5"/>
      <point x="558.903" y="210.5"/>
      <point x="550.166" y="155.5" type="curve" smooth="yes"/>
      <point x="547.271" y="133.5"/>
      <point x="533.266" y="77.5"/>
      <point x="489.993" y="20.5" type="curve" smooth="yes"/>
      <point x="463.079" y="-16.5"/>
      <point x="428.954" y="-9.5"/>
      <point x="439.333" y="25.5" type="curve" smooth="yes"/>
      <point x="540.78" y="426.5" type="line" smooth="yes"/>
      <point x="544.531" y="440.5"/>
      <point x="537.531" y="440.5"/>
      <point x="529.531" y="440.5" type="curve" smooth="yes"/>
      <point x="235.531" y="440.5" type="line" smooth="yes"/>
      <point x="189.531" y="440.5"/>
      <point x="178.465" y="492.5"/>
      <point x="180.359" y="514.5" type="curve" smooth="yes"/>
      <point x="182.47" y="548.5"/>
      <point x="205.6" y="597.5"/>
      <point x="228.906" y="628.5" type="curve" smooth="yes"/>
      <point x="245.801" y="650.5"/>
      <point x="256.533" y="649.5"/>
      <point x="260.71" y="631.5" type="curve" smooth="yes"/>
      <point x="268.332" y="596.5"/>
      <point x="304.403" y="600.5"/>
    </contour>
    <contour>
      <point x="54.8682" y="27.5" type="curve" smooth="yes"/>
      <point x="85.9121" y="113.5"/>
      <point x="96.2568" y="174.5"/>
      <point x="122.674" y="239.5" type="curve" smooth="yes"/>
      <point x="137.052" y="274.5"/>
      <point x="161.091" y="304.5"/>
      <point x="185.718" y="325.5" type="curve" smooth="yes"/>
      <point x="220.756" y="355.5"/>
      <point x="227.789" y="329.5"/>
      <point x="217.431" y="309.5" type="curve" smooth="yes"/>
      <point x="204.999" y="285.5"/>
      <point x="201.033" y="259.5"/>
      <point x="194.994" y="229.5" type="curve" smooth="yes"/>
      <point x="179.042" y="162.5"/>
      <point x="160.965" y="102.5"/>
      <point x="102.601" y="26.5" type="curve" smooth="yes"/>
      <point x="68.8105" y="-17.5"/>
      <point x="40.8828" y="-13.5"/>
    </contour>
  </outline>
</glyph>
<glyph name="uniFB36" format="2">
  <advance width="291"/>
  <unicode hex="FB36"/>
  <outline>
    <contour>
      <point x="142.566" y="338" type="curve"/>
      <point x="142.701" y="338.5" type="line"/>
      <point x="163.701" y="338.5"/>
      <point x="176.146" y="321.5"/>
      <point x="170.519" y="300.5" type="curve" smooth="yes"/>
      <point x="164.892" y="279.5"/>
      <point x="143.337" y="262.5"/>
      <point x="122.337" y="262.5" type="curve" smooth="yes"/>
      <point x="101.337" y="262.5"/>
      <point x="88.8916" y="279.5"/>
      <point x="94.5186" y="300.5" type="curve" smooth="yes"/>
      <point x="100.146" y="321.5"/>
      <point x="121.701" y="338.5"/>
    </contour>
    <contour>
      <point x="177.375" y="292.5" type="curve" smooth="yes"/>
      <point x="198.041" y="343.5"/>
      <point x="213.936" y="365.5"/>
      <point x="234.921" y="406.5" type="curve" smooth="yes"/>
      <point x="244.744" y="424.5"/>
      <point x="241.96" y="436.5"/>
      <point x="230.764" y="439.5" type="curve" smooth="yes"/>
      <point x="213.104" y="444.5"/>
      <point x="198.247" y="452.5"/>
      <point x="188.194" y="463.5" type="curve" smooth="yes"/>
      <point x="177.874" y="473.5"/>
      <point x="172.894" y="488.5"/>
      <point x="171.448" y="505.5" type="curve" smooth="yes"/>
      <point x="171.271" y="523.5"/>
      <point x="175.631" y="543.5"/>
      <point x="180.649" y="558.5" type="curve" smooth="yes"/>
      <point x="187.812" y="581.5"/>
      <point x="203.779" y="607.5"/>
      <point x="213.727" y="618.5" type="curve" smooth="yes"/>
      <point x="242.301" y="650.5"/>
      <point x="252.373" y="654.5"/>
      <point x="271.066" y="623.5" type="curve" smooth="yes"/>
      <point x="277.583" y="610.5"/>
      <point x="306.439" y="602.5"/>
      <point x="322.903" y="600.5" type="curve" smooth="yes"/>
      <point x="362.563" y="595.5"/>
      <point x="383.009" y="578.5"/>
      <point x="392.846" y="555.5" type="curve" smooth="yes"/>
      <point x="400.755" y="536.5"/>
      <point x="394.572" y="498.5"/>
      <point x="380.73" y="465.5" type="curve" smooth="yes"/>
      <point x="363.744" y="424.5"/>
      <point x="351.137" y="418.5"/>
      <point x="341.477" y="423.5" type="curve" smooth="yes"/>
      <point x="330.816" y="428.5"/>
      <point x="317.888" y="432.5"/>
      <point x="299.353" y="430.5" type="curve" smooth="yes"/>
      <point x="284.353" y="430.5"/>
      <point x="273.137" y="418.5"/>
      <point x="265.313" y="400.5" type="curve" smooth="yes"/>
      <point x="241.505" y="341.5"/>
      <point x="251.878" y="320.5"/>
      <point x="250.48" y="270.5" type="curve" smooth="yes"/>
      <point x="249.619" y="222.5"/>
      <point x="246.312" y="191.5"/>
      <point x="216.752" y="118.5" type="curve" smooth="yes"/>
      <point x="202.105" y="82.5"/>
      <point x="189.943" y="59.5"/>
      <point x="170.101" y="26.5" type="curve" smooth="yes"/>
      <point x="146.919" y="-11.5"/>
      <point x="116.899" y="-26.5"/>
      <point x="133.244" y="34.5" type="curve" smooth="yes"/>
      <point x="143.427" y="72.5"/>
      <point x="148.536" y="106.5"/>
      <point x="151.575" y="136.5" type="curve" smooth="yes"/>
      <point x="156.652" y="196.5"/>
      <point x="153.03" y="231.5"/>
    </contour>
  </outline>
</glyph>
<glyph name="uniFB39" format="2">
  <advance width="266"/>
  <unicode hex="FB39"/>
  <outline>
    <contour>
      <point x="191.323" y="408" type="curve"/>
      <point x="191.457" y="408.5" type="line"/>
      <point x="212.457" y="408.5"/>
      <point x="224.902" y="391.5"/>
      <point x="219.275" y="370.5" type="curve" smooth="yes"/>
      <point x="213.648" y="349.5"/>
      <point x="192.093" y="332.5"/>
      <point x="171.093" y="332.5" type="curve" smooth="yes"/>
      <point x="150.093" y="332.5"/>
      <point x="137.648" y="349.5"/>
      <point x="143.275" y="370.5" type="curve" smooth="yes"/>
      <point x="148.902" y="391.5"/>
      <point x="170.457" y="408.5"/>
    </contour>
    <contour>
      <point x="341.404" y="419.5" type="curve" smooth="yes"/>
      <point x="327.634" y="390.5"/>
      <point x="301.792" y="357.5"/>
      <point x="268.949" y="324.5" type="curve" smooth="yes"/>
      <point x="256.734" y="312.5"/>
      <point x="240.179" y="295.5"/>
      <point x="231.591" y="304.5" type="curve" smooth="yes"/>
      <point x="221.27" y="314.5"/>
      <point x="235.896" y="335.5"/>
      <point x="243.309" y="344.5" type="curve" smooth="yes"/>
      <point x="265.543" y="371.5"/>
      <point x="282.634" y="390.5"/>
      <point x="273.333" y="415.5" type="curve" smooth="yes"/>
      <point x="264.96" y="436.5"/>
      <point x="243.156" y="433.5"/>
      <point x="219.371" y="445.5" type="curve" smooth="yes"/>
      <point x="198.318" y="456.5"/>
      <point x="179.874" y="473.5"/>
      <point x="174.252" y="508.5" type="curve" smooth="yes"/>
      <point x="171.147" y="530.5"/>
      <point x="178.722" y="562.5"/>
      <point x="185.276" y="579.5" type="curve" smooth="yes"/>
      <point x="194.976" y="604.5"/>
      <point x="204.994" y="619.5"/>
      <point x="218.21" y="631.5" type="curve" smooth="yes"/>
      <point x="244.373" y="654.5"/>
      <point x="252.229" y="646.5"/>
      <point x="258.87" y="626.5" type="curve" smooth="yes"/>
      <point x="266.511" y="606.5"/>
      <point x="278.367" y="598.5"/>
      <point x="303.76" y="592.5" type="curve" smooth="yes"/>
      <point x="327.42" y="587.5"/>
      <point x="353.133" y="571.5"/>
      <point x="361.095" y="541.5" type="curve" smooth="yes"/>
      <point x="373.108" y="500.5"/>
      <point x="359.854" y="458.5"/>
    </contour>
  </outline>
</glyph>
<glyph name="uniFB3C" format="2">
  <advance width="510"/>
  <unicode hex="FB3C"/>
  <outline>
    <contour>
      <point x="339.533" y="364" type="curve"/>
      <point x="339.668" y="364.5" type="line"/>
      <point x="360.668" y="364.5"/>
      <point x="373.112" y="347.5"/>
      <point x="367.485" y="326.5" type="curve" smooth="yes"/>
      <point x="361.858" y="305.5"/>
      <point x="340.304" y="288.5"/>
      <point x="319.304" y="288.5" type="curve" smooth="yes"/>
      <point x="298.304" y="288.5"/>
      <point x="285.858" y="305.5"/>
      <point x="291.485" y="326.5" type="curve" smooth="yes"/>
      <point x="297.112" y="347.5"/>
      <point x="318.668" y="364.5"/>
    </contour>
    <contour>
      <point x="275.321" y="874.5" type="curve" smooth="yes"/>
      <point x="281.608" y="890.5"/>
      <point x="287.824" y="902.5"/>
      <point x="307.021" y="899.5" type="curve" smooth="yes"/>
      <point x="355.877" y="891.5"/>
      <point x="365.336" y="833.5"/>
      <point x="359.709" y="812.5" type="curve" smooth="yes"/>
      <point x="353.01" y="787.5"/>
      <point x="301.703" y="756.5"/>
      <point x="284.612" y="737.5" type="curve" smooth="yes"/>
      <point x="267.521" y="718.5"/>
      <point x="264.162" y="698.5"/>
      <point x="251.837" y="652.5" type="curve" smooth="yes"/>
      <point x="243.263" y="620.5"/>
      <point x="232.903" y="600.5"/>
      <point x="276.903" y="600.5" type="curve" smooth="yes"/>
      <point x="546.903" y="600.5" type="line" smooth="yes"/>
      <point x="590.903" y="600.5"/>
      <point x="620.152" y="586.5"/>
      <point x="615.898" y="544.5" type="curve" smooth="yes"/>
      <point x="609.75" y="480.5"/>
      <point x="593.836" y="443.5"/>
      <point x="578.562" y="386.5" type="curve" smooth="yes"/>
      <point x="560.609" y="319.5"/>
      <point x="480.944" y="268.5"/>
      <point x="401.136" y="209.5" type="curve" smooth="yes"/>
      <point x="378.849" y="193.5"/>
      <point x="335.666" y="155.5"/>
      <point x="311.197" y="101.5" type="curve" smooth="yes"/>
      <point x="302.105" y="82.5"/>
      <point x="314.158" y="71.5"/>
      <point x="307.995" y="48.5" type="curve" smooth="yes"/>
      <point x="300.493" y="20.5"/>
      <point x="280.794" y="-4.5"/>
      <point x="250.794" y="-4.5" type="curve" smooth="yes"/>
      <point x="222.794" y="-4.5"/>
      <point x="208.689" y="17.5"/>
      <point x="213.191" y="45.5" type="curve" smooth="yes"/>
      <point x="220.249" y="90.5"/>
      <point x="282.934" y="156.5"/>
      <point x="309.025" y="175.5" type="curve" smooth="yes"/>
      <point x="478.715" y="297.5"/>
      <point x="512.878" y="320.5"/>
      <point x="525.347" y="374.5" type="curve" smooth="yes"/>
      <point x="535.137" y="418.5"/>
      <point x="534.031" y="440.5"/>
      <point x="477.031" y="440.5" type="curve" smooth="yes"/>
      <point x="234.031" y="440.5" type="line" smooth="yes"/>
      <point x="176.031" y="440.5"/>
      <point x="159.606" y="472.5"/>
      <point x="171.396" y="516.5" type="curve" smooth="yes"/>
      <point x="199.799" y="622.5"/>
      <point x="214.215" y="687.5"/>
      <point x="233.789" y="719.5" type="curve" smooth="yes"/>
      <point x="258.775" y="760.5"/>
      <point x="284.919" y="768.5"/>
      <point x="288.206" y="784.5" type="curve" smooth="yes"/>
      <point x="291.493" y="800.5"/>
      <point x="266.244" y="814.5"/>
      <point x="263.46" y="826.5" type="curve" smooth="yes"/>
      <point x="261.336" y="833.5"/>
      <point x="269.034" y="858.5"/>
    </contour>
  </outline>
</glyph>
<glyph name="uniFB3E" format="2">
  <advance width="581"/>
  <unicode hex="FB3E"/>
  <outline>
    <contour>
      <point x="412.566" y="338" type="curve"/>
      <point x="412.701" y="338.5" type="line"/>
      <point x="433.701" y="338.5"/>
      <point x="446.146" y="321.5"/>
      <point x="440.519" y="300.5" type="curve" smooth="yes"/>
      <point x="434.892" y="279.5"/>
      <point x="413.337" y="262.5"/>
      <point x="392.337" y="262.5" type="curve" smooth="yes"/>
      <point x="371.337" y="262.5"/>
      <point x="358.892" y="279.5"/>
      <point x="364.519" y="300.5" type="curve" smooth="yes"/>
      <point x="370.146" y="321.5"/>
      <point x="391.701" y="338.5"/>
    </contour>
    <contour>
      <point x="202.419" y="378.5" type="curve"/>
      <point x="202.343" y="379" type="line"/>
      <point x="180.846" y="407"/>
      <point x="165.1" y="449"/>
      <point x="170.138" y="479" type="curve" smooth="yes"/>
      <point x="175.784" y="515"/>
      <point x="182.019" y="542"/>
      <point x="212.004" y="583" type="curve" smooth="yes"/>
      <point x="229.167" y="606"/>
      <point x="246.919" y="620"/>
      <point x="262.866" y="631" type="curve" smooth="yes"/>
      <point x="283.35" y="644"/>
      <point x="296.741" y="638"/>
      <point x="297.114" y="617" type="curve" smooth="yes"/>
      <point x="297.56" y="600"/>
      <point x="315.612" y="589"/>
      <point x="326.272" y="584" type="curve" smooth="yes"/>
      <point x="347.593" y="574"/>
      <point x="361.019" y="542"/>
      <point x="358.941" y="482" type="curve" smooth="yes"/>
      <point x="359.065" y="475"/>
      <point x="363.922" y="467"/>
      <point x="374.53" y="473" type="curve" smooth="yes"/>
      <point x="414.961" y="497"/>
      <point x="440.109" y="561"/>
      <point x="455.096" y="602" type="curve" smooth="yes"/>
      <point x="461.383" y="618"/>
      <point x="472.526" y="626"/>
      <point x="485.258" y="625" type="curve" smooth="yes"/>
      <point x="569.65" y="619"/>
      <point x="606.2" y="580"/>
      <point x="627.946" y="538" type="curve" smooth="yes"/>
      <point x="671.243" y="457"/>
      <point x="653.409" y="327"/>
      <point x="617.629" y="186" type="curve" smooth="yes"/>
      <point x="613.342" y="170"/>
      <point x="597.643" y="145"/>
      <point x="597.643" y="145" type="curve"/>
      <point x="513.685" y="22" type="line" smooth="yes"/>
      <point x="503.201" y="9"/>
      <point x="493.058" y="1"/>
      <point x="477.058" y="1" type="curve" smooth="yes"/>
      <point x="161.058" y="1" type="line" smooth="yes"/>
      <point x="145.058" y="1"/>
      <point x="141.47" y="10"/>
      <point x="150.953" y="23" type="curve" smooth="yes"/>
      <point x="230.303" y="140" type="line" smooth="yes"/>
      <point x="239.054" y="154"/>
      <point x="250.93" y="161"/>
      <point x="266.93" y="161" type="curve" smooth="yes"/>
      <point x="562.93" y="161" type="line" smooth="yes"/>
      <point x="571.93" y="161"/>
      <point x="580.806" y="168"/>
      <point x="583.217" y="177" type="curve" smooth="yes"/>
      <point x="595.614" y="227"/>
      <point x="611.605" y="324"/>
      <point x="563.022" y="389" type="curve" smooth="yes"/>
      <point x="519.563" y="447"/>
      <point x="463.367" y="450"/>
      <point x="422.367" y="450" type="curve" smooth="yes"/>
      <point x="363.367" y="450"/>
      <point x="276.113" y="408"/>
      <point x="238.912" y="355" type="curve" smooth="yes"/>
      <point x="177.064" y="266"/>
      <point x="183.7" y="190"/>
      <point x="154.729" y="108" type="curve" smooth="yes"/>
      <point x="144.958" y="79"/>
      <point x="132.795" y="56"/>
      <point x="117.9" y="34" type="curve" smooth="yes"/>
      <point x="93.2539" y="-2"/>
      <point x="63.1631" y="-21"/>
      <point x="71.5801" y="44" type="curve" smooth="yes"/>
      <point x="77.9053" y="90"/>
      <point x="85.3555" y="129"/>
      <point x="109.433" y="189" type="curve" smooth="yes"/>
      <point x="132.974" y="247"/>
      <point x="169.515" y="305"/>
      <point x="200.232" y="345" type="curve" smooth="yes"/>
      <point x="209.448" y="357"/>
      <point x="209.663" y="369"/>
    </contour>
  </outline>
</glyph>
<glyph name="uniFB40" format="2">
  <advance width="347"/>
  <unicode hex="FB40"/>
  <outline>
    <contour>
      <point x="238.566" y="338" type="curve"/>
      <point x="238.701" y="338.5" type="line"/>
      <point x="259.701" y="338.5"/>
      <point x="272.146" y="321.5"/>
      <point x="266.519" y="300.5" type="curve" smooth="yes"/>
      <point x="260.892" y="279.5"/>
      <point x="239.337" y="262.5"/>
      <point x="218.337" y="262.5" type="curve" smooth="yes"/>
      <point x="197.337" y="262.5"/>
      <point x="184.892" y="279.5"/>
      <point x="190.519" y="300.5" type="curve" smooth="yes"/>
      <point x="196.146" y="321.5"/>
      <point x="217.701" y="338.5"/>
    </contour>
    <contour>
      <point x="217.134" y="0.5" type="curve" smooth="yes"/>
      <point x="24.1338" y="0.5" type="line" smooth="yes"/>
      <point x="8.13379" y="0.5"/>
      <point x="5.5459" y="9.5"/>
      <point x="14.0293" y="22.5" type="curve" smooth="yes"/>
      <point x="93.3789" y="139.5" type="line" smooth="yes"/>
      <point x="103.13" y="153.5"/>
      <point x="114.006" y="160.5"/>
      <point x="130.006" y="160.5" type="curve" smooth="yes"/>
      <point x="255.006" y="160.5" type="line" smooth="yes"/>
      <point x="273.006" y="160.5"/>
      <point x="280.686" y="170.5"/>
      <point x="283.437" y="184.5" type="curve" smooth="yes"/>
      <point x="305.982" y="298.5"/>
      <point x="317.414" y="322.5"/>
      <point x="345.313" y="400.5" type="curve"/>
      <point x="345.313" y="400.5"/>
      <point x="352.209" y="422.5"/>
      <point x="331.013" y="425.5" type="curve" smooth="yes"/>
      <point x="292.62" y="431.5"/>
      <point x="262.96" y="436.5"/>
      <point x="243.658" y="461.5" type="curve" smooth="yes"/>
      <point x="234.606" y="472.5"/>
      <point x="228.894" y="488.5"/>
      <point x="227.448" y="505.5" type="curve" smooth="yes"/>
      <point x="227.271" y="523.5"/>
      <point x="231.631" y="543.5"/>
      <point x="236.649" y="558.5" type="curve" smooth="yes"/>
      <point x="243.812" y="581.5"/>
      <point x="259.779" y="607.5"/>
      <point x="269.727" y="618.5" type="curve" smooth="yes"/>
      <point x="298.301" y="650.5"/>
      <point x="314.104" y="653.5"/>
      <point x="325.334" y="624.5" type="curve" smooth="yes"/>
      <point x="331.976" y="604.5"/>
      <point x="364.367" y="598.5"/>
      <point x="376.296" y="594.5" type="curve" smooth="yes"/>
      <point x="414.616" y="584.5"/>
      <point x="434.649" y="558.5"/>
      <point x="433.075" y="526.5" type="curve" smooth="yes"/>
      <point x="429.927" y="462.5"/>
      <point x="386.96" y="436.5"/>
      <point x="379.457" y="408.5" type="curve" smooth="yes"/>
      <point x="358.896" y="335.5"/>
      <point x="381.017" y="272.5"/>
      <point x="360.293" y="176.5" type="curve" smooth="yes"/>
      <point x="349.092" y="123.5"/>
      <point x="340.91" y="85.5"/>
      <point x="308.388" y="42.5" type="curve" smooth="yes"/>
      <point x="276.134" y="0.5"/>
      <point x="234.134" y="0.5"/>
    </contour>
  </outline>
</glyph>
<glyph name="uniFB42" format="2">
  <advance width="552"/>
  <unicode hex="FB42"/>
  <outline>
    <contour>
      <point x="349" y="0" type="curve" smooth="yes"/>
      <point x="59" y="0" type="line" smooth="yes"/>
      <point x="43" y="0"/>
      <point x="39.4111" y="9"/>
      <point x="48.8945" y="22" type="curve" smooth="yes"/>
      <point x="128.245" y="139" type="line" smooth="yes"/>
      <point x="136.996" y="153"/>
      <point x="148.872" y="160"/>
      <point x="164.872" y="160" type="curve" smooth="yes"/>
      <point x="238.872" y="160" type="line" smooth="yes"/>
      <point x="269.872" y="160"/>
      <point x="284.767" y="182"/>
      <point x="271.197" y="206" type="curve" smooth="yes"/>
      <point x="254.04" y="239"/>
      <point x="233.308" y="240"/>
      <point x="223.294" y="281" type="curve" smooth="yes"/>
      <point x="211.744" y="320"/>
      <point x="231.677" y="372"/>
      <point x="246.252" y="404" type="curve" smooth="yes"/>
      <point x="255.61" y="424"/>
      <point x="250.558" y="435"/>
      <point x="240.094" y="437" type="curve" smooth="yes"/>
      <point x="219.63" y="439"/>
      <point x="204.505" y="446"/>
      <point x="193.185" y="456" type="curve" smooth="yes"/>
      <point x="182.597" y="465"/>
      <point x="175.348" y="479"/>
      <point x="172.902" y="496" type="curve" smooth="yes"/>
      <point x="170.726" y="514"/>
      <point x="173.817" y="533"/>
      <point x="176.836" y="548" type="curve" smooth="yes"/>
      <point x="181.999" y="571"/>
      <point x="194.966" y="597"/>
      <point x="205.181" y="609" type="curve" smooth="yes"/>
      <point x="231.291" y="643"/>
      <point x="244.043" y="657"/>
      <point x="266.86" y="619" type="curve" smooth="yes"/>
      <point x="274.377" y="606"/>
      <point x="301.306" y="602"/>
      <point x="318.037" y="601" type="curve" smooth="yes"/>
      <point x="358.77" y="600"/>
      <point x="380.75" y="585"/>
      <point x="393.123" y="564" type="curve" smooth="yes"/>
      <point x="403.032" y="545"/>
      <point x="401.118" y="508"/>
      <point x="390.275" y="475" type="curve" smooth="yes"/>
      <point x="376.29" y="434"/>
      <point x="363.414" y="427"/>
      <point x="353.486" y="431" type="curve" smooth="yes"/>
      <point x="342.558" y="435"/>
      <point x="328.094" y="437"/>
      <point x="310.29" y="434" type="curve" smooth="yes"/>
      <point x="294.754" y="432"/>
      <point x="283.271" y="419"/>
      <point x="278.716" y="402" type="curve" smooth="yes"/>
      <point x="265.39" y="356"/>
      <point x="277.352" y="326"/>
      <point x="297.921" y="302" type="curve" smooth="yes"/>
      <point x="321.418" y="274"/>
      <point x="327.217" y="221"/>
      <point x="305.695" y="178" type="curve" smooth="yes"/>
      <point x="300.016" y="168"/>
      <point x="301.872" y="160"/>
      <point x="312.872" y="160" type="curve" smooth="yes"/>
      <point x="374.872" y="160" type="line" smooth="yes"/>
      <point x="402.872" y="160"/>
      <point x="412.767" y="182"/>
      <point x="424.197" y="206" type="curve" smooth="yes"/>
      <point x="440.576" y="241"/>
      <point x="460.49" y="278"/>
      <point x="479.796" y="309" type="curve" smooth="yes"/>
      <point x="495.228" y="333"/>
      <point x="513.998" y="362"/>
      <point x="537.716" y="402" type="curve" smooth="yes"/>
      <point x="545.734" y="417"/>
      <point x="544.61" y="424"/>
      <point x="529.414" y="427" type="curve" smooth="yes"/>
      <point x="511.754" y="432"/>
      <point x="492.361" y="438"/>
      <point x="474.524" y="461" type="curve" smooth="yes"/>
      <point x="465.472" y="472"/>
      <point x="459.759" y="488"/>
      <point x="458.314" y="505" type="curve" smooth="yes"/>
      <point x="457.138" y="523"/>
      <point x="462.496" y="543"/>
      <point x="466.516" y="558" type="curve" smooth="yes"/>
      <point x="474.679" y="581"/>
      <point x="489.646" y="607"/>
      <point x="500.593" y="618" type="curve" smooth="yes"/>
      <point x="529.167" y="650"/>
      <point x="541.971" y="653"/>
      <point x="553.2" y="624" type="curve" smooth="yes"/>
      <point x="560.842" y="604"/>
      <point x="588.233" y="598"/>
      <point x="600.162" y="594" type="curve" smooth="yes"/>
      <point x="639.482" y="584"/>
      <point x="659.319" y="561"/>
      <point x="657.941" y="526" type="curve" smooth="yes"/>
      <point x="656.242" y="501"/>
      <point x="648.721" y="458"/>
      <point x="601.486" y="431" type="curve" smooth="yes"/>
      <point x="589.879" y="425"/>
      <point x="575.396" y="412"/>
      <point x="569.716" y="402" type="curve" smooth="yes"/>
      <point x="540.318" y="352"/>
      <point x="510.241" y="292"/>
      <point x="489.236" y="236" type="curve" smooth="yes"/>
      <point x="472.714" y="193"/>
      <point x="451.082" y="116"/>
      <point x="436.561" y="73" type="curve" smooth="yes"/>
      <point x="419.895" y="22"/>
      <point x="394" y="0"/>
    </contour>
    <contour>
      <point x="408.998" y="362" type="curve"/>
      <point x="409.132" y="362.5" type="line"/>
      <point x="430.132" y="362.5"/>
      <point x="442.576" y="345.5"/>
      <point x="436.949" y="324.5" type="curve" smooth="yes"/>
      <point x="431.322" y="303.5"/>
      <point x="409.768" y="286.5"/>
      <point x="388.768" y="286.5" type="curve" smooth="yes"/>
      <point x="367.768" y="286.5"/>
      <point x="355.322" y="303.5"/>
      <point x="360.949" y="324.5" type="curve" smooth="yes"/>
      <point x="366.576" y="345.5"/>
      <point x="388.132" y="362.5"/>
    </contour>
  </outline>
</glyph>
<glyph name="uniFB44" format="2">
  <advance width="491"/>
  <unicode hex="FB44"/>
  <outline>
    <contour>
      <point x="444.136" y="314" type="curve"/>
      <point x="444.27" y="314.5" type="line"/>
      <point x="465.27" y="314.5"/>
      <point x="477.715" y="297.5"/>
      <point x="472.088" y="276.5" type="curve" smooth="yes"/>
      <point x="466.461" y="255.5"/>
      <point x="444.906" y="238.5"/>
      <point x="423.906" y="238.5" type="curve" smooth="yes"/>
      <point x="402.906" y="238.5"/>
      <point x="390.461" y="255.5"/>
      <point x="396.088" y="276.5" type="curve" smooth="yes"/>
      <point x="401.715" y="297.5"/>
      <point x="423.27" y="314.5"/>
    </contour>
    <contour>
      <point x="272.836" y="443.5" type="curve"/>
      <point x="272.752" y="443.19" type="line"/>
      <point x="246.805" y="432.19"/>
      <point x="237.054" y="418.19"/>
      <point x="233.23" y="400.19" type="curve" smooth="yes"/>
      <point x="226.656" y="368.19"/>
      <point x="279.192" y="370.19"/>
      <point x="327.46" y="371.19" type="curve" smooth="yes"/>
      <point x="358.728" y="372.19"/>
      <point x="379.102" y="351.19"/>
      <point x="376.991" y="317.19" type="curve" smooth="yes"/>
      <point x="375.416" y="285.19"/>
      <point x="363.307" y="251.19"/>
      <point x="323.68" y="230.19" type="curve" smooth="yes"/>
      <point x="284.053" y="209.19"/>
      <point x="215.464" y="218.19"/>
      <point x="185.071" y="224.19" type="curve"/>
      <point x="173.196" y="217.19"/>
      <point x="159.98" y="205.19"/>
      <point x="140.765" y="193.19" type="curve" smooth="yes"/>
      <point x="129.89" y="186.19"/>
      <point x="117.086" y="183.19"/>
      <point x="111.229" y="191.19" type="curve" smooth="yes"/>
      <point x="105.373" y="199.19"/>
      <point x="112.856" y="212.19"/>
      <point x="122.731" y="219.19" type="curve" smooth="yes"/>
      <point x="141.215" y="232.19"/>
      <point x="139.68" y="230.19"/>
      <point x="156.162" y="243.19" type="curve"/>
      <point x="131.201" y="273.19"/>
      <point x="130.703" y="301.19"/>
      <point x="145.689" y="342.19" type="curve" smooth="yes"/>
      <point x="164.354" y="393.19"/>
      <point x="208.465" y="427.19"/>
      <point x="246.164" y="452.19" type="curve"/>
      <point x="208.719" y="469.19"/>
      <point x="210.489" y="498.19"/>
      <point x="211.849" y="518.19" type="curve" smooth="yes"/>
      <point x="213.835" y="559.19"/>
      <point x="232.017" y="597.19"/>
      <point x="255.323" y="628.19" type="curve" smooth="yes"/>
      <point x="272.218" y="650.19"/>
      <point x="282.95" y="649.19"/>
      <point x="287.127" y="631.19" type="curve" smooth="yes"/>
      <point x="294.749" y="596.19"/>
      <point x="331.356" y="602.19"/>
      <point x="368.82" y="600.19" type="curve" smooth="yes"/>
      <point x="419.017" y="597.19"/>
      <point x="529.82" y="600.19"/>
      <point x="560.796" y="529.19" type="curve" smooth="yes"/>
      <point x="590.111" y="463.19"/>
      <point x="558.938" y="328.19"/>
      <point x="516.621" y="185.19" type="curve" smooth="yes"/>
      <point x="509.459" y="162.19"/>
      <point x="505.583" y="155.19"/>
      <point x="498.636" y="144.19" type="curve" smooth="yes"/>
      <point x="414.678" y="21.1904" type="line" smooth="yes"/>
      <point x="405.194" y="8.19043"/>
      <point x="394.051" y="0.19043"/>
      <point x="378.051" y="0.19043" type="curve" smooth="yes"/>
      <point x="34.0508" y="0.19043" type="line" smooth="yes"/>
      <point x="18.0508" y="0.19043"/>
      <point x="15.4629" y="9.19043"/>
      <point x="23.9463" y="22.1904" type="curve" smooth="yes"/>
      <point x="103.296" y="139.19" type="line" smooth="yes"/>
      <point x="113.047" y="153.19"/>
      <point x="123.923" y="160.19"/>
      <point x="139.923" y="160.19" type="curve" smooth="yes"/>
      <point x="462.923" y="160.19" type="line" smooth="yes"/>
      <point x="471.923" y="160.19"/>
      <point x="480.53" y="166.19"/>
      <point x="484.21" y="176.19" type="curve" smooth="yes"/>
      <point x="503.162" y="243.19"/>
      <point x="523.886" y="339.19"/>
      <point x="504.407" y="382.19" type="curve" smooth="yes"/>
      <point x="467.844" y="462.19"/>
      <point x="332.805" y="432.19"/>
    </contour>
  </outline>
</glyph>
<glyph name="uniFB48" format="2">
  <advance width="502"/>
  <unicode hex="FB48"/>
  <outline>
    <contour>
      <point x="400.566" y="338" type="curve"/>
      <point x="400.701" y="338.5" type="line"/>
      <point x="421.701" y="338.5"/>
      <point x="434.146" y="321.5"/>
      <point x="428.519" y="300.5" type="curve" smooth="yes"/>
      <point x="422.892" y="279.5"/>
      <point x="401.337" y="262.5"/>
      <point x="380.337" y="262.5" type="curve" smooth="yes"/>
      <point x="359.337" y="262.5"/>
      <point x="346.892" y="279.5"/>
      <point x="352.519" y="300.5" type="curve" smooth="yes"/>
      <point x="358.146" y="321.5"/>
      <point x="379.701" y="338.5"/>
    </contour>
    <contour>
      <point x="519.309" y="344.5" type="curve" smooth="yes"/>
      <point x="532.706" y="394.5"/>
      <point x="507.031" y="440.5"/>
      <point x="449.031" y="440.5" type="curve" smooth="yes"/>
      <point x="226.031" y="440.5" type="line" smooth="yes"/>
      <point x="181.031" y="440.5"/>
      <point x="169.965" y="492.5"/>
      <point x="171.859" y="514.5" type="curve" smooth="yes"/>
      <point x="173.97" y="548.5"/>
      <point x="197.1" y="597.5"/>
      <point x="220.406" y="628.5" type="curve" smooth="yes"/>
      <point x="237.301" y="650.5"/>
      <point x="248.033" y="649.5"/>
      <point x="252.21" y="631.5" type="curve" smooth="yes"/>
      <point x="259.832" y="596.5"/>
      <point x="295.903" y="600.5"/>
      <point x="333.903" y="600.5" type="curve" smooth="yes"/>
      <point x="466.903" y="600.5" type="line" smooth="yes"/>
      <point x="554.903" y="600.5"/>
      <point x="584.559" y="539.5"/>
      <point x="570.031" y="440.5" type="curve" smooth="yes"/>
      <point x="559.812" y="372.5"/>
      <point x="520.867" y="208.5"/>
      <point x="511.398" y="154.5" type="curve" smooth="yes"/>
      <point x="507.503" y="132.5"/>
      <point x="495.427" y="72.5"/>
      <point x="462.493" y="20.5" type="curve" smooth="yes"/>
      <point x="438.043" y="-18.5"/>
      <point x="409.99" y="-7.5"/>
      <point x="421.101" y="26.5" type="curve" smooth="yes"/>
      <point x="421.101" y="26.5"/>
      <point x="476.743" y="215.5"/>
    </contour>
  </outline>
</glyph>
